<?xml version="1.0" standalone="no"?>
<!DOCTYPE svg PUBLIC "-//W3C//DTD SVG 1.1//EN" "http://www.w3.org/Graphics/SVG/1.1/DTD/svg11.dtd" >
<svg>
<metadata>
Created by FontForge 20090622 at Sun May  3 08:51:48 2020
 By deploy user
Copyright (c) 2018 Swiss Typefaces Sarl. All rights reserved.
</metadata>
<defs>
<font id="EuclidCircularB-Medium" horiz-adv-x="0" >
  <font-face 
    font-family="Euclid Circular B Medium"
    font-weight="500"
    font-stretch="normal"
    units-per-em="1000"
    panose-1="2 11 6 4 0 0 0 0 0 0"
    ascent="806"
    descent="-194"
    x-height="500"
    cap-height="710"
    bbox="-208 -287 1377 1000"
    underline-thickness="88"
    underline-position="-46"
    unicode-range="U+0020-U+FEFF"
  />
<missing-glyph horiz-adv-x="664" 
d="M82 0v710h500v-710h-500zM548 691h-432l216 -321zM321 355l-220 327v-654zM342 355l221 -327v654zM332 339l-216 -320h432z" />
    <glyph glyph-name="uni0407_uni0407" unicode="&#x407;&#x407;" horiz-adv-x="583" 
d="M92 845q0 -27 -19.5 -46.5t-46.5 -19.5q-28 0 -47.5 19.5t-19.5 46.5q0 28 19.5 47.5t47.5 19.5q27 0 46.5 -19.5t19.5 -47.5zM354 845q0 -27 -19.5 -46.5t-46.5 -19.5q-28 0 -47.5 19.5t-19.5 46.5q0 28 19.5 47.5t47.5 19.5q27 0 46.5 -19.5t19.5 -47.5zM616 845
q0 -27 -19.5 -46.5t-46.5 -19.5q-28 0 -47.5 19.5t-19.5 46.5q0 28 19.5 47.5t47.5 19.5q27 0 46.5 -19.5t19.5 -47.5zM87 0v710h117v-710h-117zM378 0v710h117v-710h-117z" />
    <glyph glyph-name="uni0457_uni0457" unicode="&#x457;&#x457;" horiz-adv-x="517" 
d="M110 655q0 -28 -20 -48t-48 -20t-47.5 20t-19.5 48t19.5 47.5t47.5 19.5t48 -19.5t20 -47.5zM325 655q0 -28 -20 -48t-48 -20t-47.5 20t-19.5 48t19.5 47.5t47.5 19.5t48 -19.5t20 -47.5zM541 655q0 -28 -19.5 -48t-47.5 -20t-48 20t-20 48t20 47.5t48 19.5t47.5 -19.5
t19.5 -47.5zM184 0h-110v500h110v-500zM442 0h-110v500h110v-500z" />
    <glyph glyph-name="uni0457_uni0458" unicode="&#x457;&#x458;" horiz-adv-x="517" 
d="M110 655q0 -28 -20 -48t-48 -20t-47.5 20t-19.5 48t19.5 47.5t47.5 19.5t48 -19.5t20 -47.5zM325 655q0 -28 -20 -48t-48 -20t-47.5 20t-19.5 48t19.5 47.5t47.5 19.5t48 -19.5t20 -47.5zM541 655q0 -28 -19.5 -48t-47.5 -20t-48 20t-20 48t20 47.5t48 19.5t47.5 -19.5
t19.5 -47.5zM184 0h-110v500h110v-500zM442 500v-553q0 -80 -47 -123t-120 -43q-29 0 -48 3v96q14 -2 27 -2q78 0 78 85v537h110z" />
    <glyph glyph-name="f_f" unicode="ff" horiz-adv-x="750" 
d="M121 0v402h-104v98h104v90q0 81 47.5 123.5t123.5 42.5q46 0 82 -12v-98q-18 10 -59 10q-44 0 -64 -19.5t-20 -65.5v-71h117v-98h-117v-402h-110zM483 0v402h-83v98h83v90q0 81 47.5 123.5t123.5 42.5q44 0 82 -12v-98q-27 10 -59 10q-44 0 -64 -19.5t-20 -65.5v-71h143
v-98h-143v-402h-110z" />
    <glyph glyph-name="f_i" unicode="fi" horiz-adv-x="646" 
d="M121 0v402h-104v98h104v84q0 81 48 126.5t123 45.5q46 0 82 -12v-98q-27 10 -59 10q-44 0 -64 -19.5t-20 -65.5v-71h143v-98h-143v-402h-110zM590 683q0 -31 -21 -52.5t-52 -21.5q-30 0 -52 21.5t-22 52.5q0 30 22 51.5t52 21.5q31 0 52 -21.5t21 -51.5zM462 0v500h110
v-500h-110z" />
    <glyph glyph-name="f_f_i" unicode="ffi" horiz-adv-x="1009" 
d="M952 683q0 -31 -21 -52.5t-52 -21.5q-30 0 -52 21.5t-22 52.5q0 30 22 51.5t52 21.5q31 0 52 -21.5t21 -51.5zM121 0v402h-104v98h104v90q0 81 47.5 123.5t123.5 42.5q46 0 82 -12v-98q-18 10 -59 10q-44 0 -64 -19.5t-20 -65.5v-71h117v-98h-117v-402h-110zM483 0v402
h-83v98h83v90q0 81 47.5 123.5t123.5 42.5q44 0 82 -12v-98q-27 10 -59 10q-44 0 -64 -19.5t-20 -65.5v-71h143v-98h-143v-402h-110zM824 0v500h110v-500h-110z" />
    <glyph glyph-name="f_l" unicode="fl" horiz-adv-x="646" 
d="M121 0v402h-104v98h104v84q0 81 48 126.5t123 45.5q46 0 82 -12v-98q-27 10 -59 10q-44 0 -64 -19.5t-20 -65.5v-71h143v-98h-143v-402h-110zM462 0v750h110v-750h-110z" />
    <glyph glyph-name="f_f_l" unicode="ffl" horiz-adv-x="1009" 
d="M121 0v402h-104v98h104v90q0 81 47.5 123.5t123.5 42.5q46 0 82 -12v-98q-18 10 -59 10q-44 0 -64 -19.5t-20 -65.5v-71h117v-98h-117v-402h-110zM483 0v402h-83v98h83v90q0 81 47.5 123.5t123.5 42.5q44 0 82 -12v-98q-27 10 -59 10q-44 0 -64 -19.5t-20 -65.5v-71h143
v-98h-143v-402h-110zM824 0v750h110v-750h-110z" />
    <glyph glyph-name="f_t" unicode="ft" horiz-adv-x="777" 
d="M121 0v402h-104v98h104v90q0 81 47.5 123.5t123.5 42.5q46 0 82 -12v-98q-27 10 -59 10q-44 0 -64 -19.5t-20 -65.5v-71h125v-98h-125v-402h-110zM746 6q-35 -11 -82 -11q-75 0 -123 42.5t-48 123.5v241h-85v98h85v139h110v-139h143v-98h-143v-223q0 -45 20.5 -64.5
t63.5 -19.5q35 0 59 9v-98z" />
    <glyph glyph-name="t_t" unicode="tt" horiz-adv-x="775" 
d="M745 6q-35 -11 -82 -11q-76 0 -123.5 42.5t-47.5 123.5v241h-88v98h88v139h110v-139h143v-98h-143v-223q0 -46 20 -65t64 -19q35 0 59 9v-98zM373 6q-35 -11 -82 -11q-76 0 -123.5 42.5t-47.5 123.5v241h-104v98h104v139h110v-139h121v-98h-121v-223q0 -46 20 -65t64 -19
q35 0 59 9v-98z" />
    <glyph glyph-name=".notdef" horiz-adv-x="664" 
d="M82 0v710h500v-710h-500zM548 691h-432l216 -321zM321 355l-220 327v-654zM342 355l221 -327v654zM332 339l-216 -320h432z" />
    <glyph glyph-name=".null" 
 />
    <glyph glyph-name="nonmarkingreturn" horiz-adv-x="333" 
 />
    <glyph glyph-name="space" unicode=" " horiz-adv-x="235" 
 />
    <glyph glyph-name="exclam" unicode="!" horiz-adv-x="279" 
d="M105 238l-21 196v276h111v-276l-22 -196h-68zM226 79q0 -36 -25.5 -61.5t-61.5 -25.5q-35 0 -60.5 25.5t-25.5 61.5q0 35 25.5 61t60.5 26q36 0 61.5 -26t25.5 -61z" />
    <glyph glyph-name="quotedbl" unicode="&#x22;" horiz-adv-x="423" 
d="M63 444v266h95v-266h-95zM265 444v266h95v-266h-95z" />
    <glyph glyph-name="numbersign" unicode="#" horiz-adv-x="732" 
d="M336 0l60 193h-163l-60 -193h-97l60 193h-103v88h131l47 152h-105v88h133l59 189h97l-59 -189h162l59 189h97l-59 -189h104v-88h-131l-48 -152h107v-88h-135l-60 -193h-96zM309 433l-48 -152h163l47 152h-162z" />
    <glyph glyph-name="dollar" unicode="$" horiz-adv-x="528" 
d="M239 -88v80q-85 10 -140 65t-56 146h110q9 -87 86 -103v212l-34 13q-160 61 -160 205q0 83 53.5 134.5t140.5 56.5v77h54v-78q76 -11 127 -62.5t51 -125.5h-110q-11 63 -68 80v-199l30 -12q82 -32 124 -83.5t42 -130.5q0 -90 -53 -140.5t-143 -55.5v-79h-54zM155 531
q0 -62 84 -97v181q-38 -5 -61 -28t-23 -56zM379 184q0 37 -21 61.5t-65 45.5v-194q38 5 62 28.5t24 58.5z" />
    <glyph glyph-name="percent" unicode="%" horiz-adv-x="986" 
d="M424 521q0 -81 -58 -139t-139 -58q-82 0 -139.5 58t-57.5 139q0 82 57.5 139.5t139.5 57.5q81 0 139 -57.5t58 -139.5zM210 0l450 710h116l-450 -710h-116zM127 521q0 -42 29 -71.5t71 -29.5t71 29.5t29 71.5t-29 71.5t-71 29.5t-71 -29.5t-29 -71.5zM956 189
q0 -81 -58 -139t-139 -58q-82 0 -139.5 58t-57.5 139q0 82 57.5 139.5t139.5 57.5q81 0 139 -57.5t58 -139.5zM658 189q0 -41 29.5 -71t71.5 -30q41 0 70 30t29 71t-29 71t-70 30q-42 0 -71.5 -30t-29.5 -71z" />
    <glyph glyph-name="ampersand" unicode="&#x26;" horiz-adv-x="757" 
d="M617 0l-104 101q-55 -58 -106.5 -84.5t-115.5 -26.5q-104 0 -165 58.5t-61 148.5q0 69 38 115.5t104 85.5q-82 82 -82 155q0 71 54.5 120t135.5 49q82 0 134 -50t52 -120q0 -60 -34.5 -100.5t-95.5 -72.5l135 -132l76 95h130l-134 -164l184 -178h-145zM231 552
q0 -20 11.5 -40t21.5 -30.5t39 -37.5l3 2q44 23 65 44.5t21 55.5q0 36 -22 59t-57 23q-34 0 -58 -21t-24 -55zM174 195q0 -50 35.5 -78.5t82.5 -28.5q74 0 150 82l-164 158q-104 -57 -104 -133z" />
    <glyph glyph-name="quotesingle" unicode="'" horiz-adv-x="221" 
d="M63 444v266h95v-266h-95z" />
    <glyph glyph-name="parenleft" unicode="(" horiz-adv-x="286" 
d="M260 -160h-89q-128 232 -128 480t128 480h89q-121 -235 -121 -480t121 -480z" />
    <glyph glyph-name="parenright" unicode=")" horiz-adv-x="286" 
d="M26 -160q121 235 121 480t-121 480h89q128 -232 128 -480t-128 -480h-89z" />
    <glyph glyph-name="asterisk" unicode="*" horiz-adv-x="465" 
d="M150 340l-64 46l81 111l-131 44l23 77l133 -43v135h80v-135l133 43l24 -77l-132 -43l82 -112l-64 -46l-82 111z" />
    <glyph glyph-name="plus" unicode="+" horiz-adv-x="496" 
d="M37 241v97h162v162h98v-162h162v-97h-162v-162h-98v162h-162z" />
    <glyph glyph-name="comma" unicode="," horiz-adv-x="268" 
d="M203 25l-107 -172h-68l69 147q-21 10 -35 31t-14 48q0 36 25 61.5t61 25.5t61 -25.5t25 -61.5q0 -27 -17 -54z" />
    <glyph glyph-name="hyphen" unicode="-" horiz-adv-x="392" 
d="M62 226v108h269v-108h-269z" />
    <glyph glyph-name="period" unicode="." horiz-adv-x="265" 
d="M219 79q0 -36 -25.5 -61.5t-61.5 -25.5q-35 0 -60.5 25.5t-25.5 61.5q0 35 25.5 61t60.5 26q36 0 61.5 -26t25.5 -61z" />
    <glyph glyph-name="slash" unicode="/" horiz-adv-x="526" 
d="M20 -110l386 820h101l-386 -820h-101z" />
    <glyph glyph-name="zero" unicode="0" horiz-adv-x="626" 
d="M571 263q0 -120 -72.5 -196.5t-185.5 -76.5t-185 76.5t-72 196.5v186q0 120 72 196.5t185 76.5t185.5 -76.5t72.5 -196.5v-186zM166 263q0 -77 40.5 -121t106.5 -44t107 44t41 121v186q0 76 -41 120.5t-107 44.5t-106.5 -44.5t-40.5 -120.5v-186z" />
    <glyph glyph-name="one" unicode="1" horiz-adv-x="346" 
d="M148 0v601h-143l84 109h169v-710h-110z" />
    <glyph glyph-name="two" unicode="2" horiz-adv-x="565" 
d="M516 108v-108h-470v40q0 32 6.5 61t22 54t29.5 44t40.5 41l42 34.5t47.5 34.5t45 32q63 46 91 80.5t28 84.5q0 48 -30.5 78t-82.5 30q-55 0 -91 -33t-37 -88h-111q0 101 68.5 165t171.5 64q95 0 159 -56t64 -157q0 -80 -36.5 -134.5t-120.5 -114.5q-13 -10 -48 -34
t-51.5 -37t-36 -36t-25.5 -45h325z" />
    <glyph glyph-name="three" unicode="3" horiz-adv-x="584" 
d="M536 200q0 -94 -66 -152t-172 -58q-107 0 -181.5 64t-76.5 169h110q4 -57 45.5 -91t102.5 -34q55 0 90.5 29.5t36.5 79.5q0 55 -37 84t-100 29h-56v94h56q52 0 84 28t33 73q1 43 -31.5 71t-79.5 28q-56 0 -93 -32.5t-37 -88.5h-111q0 104 70.5 166.5t170.5 62.5
q99 0 161 -56.5t61 -143.5q0 -49 -25 -90.5t-62 -63.5q48 -21 77.5 -65t29.5 -103z" />
    <glyph glyph-name="four" unicode="4" horiz-adv-x="626" 
d="M384 0v178h-367v89l379 443h98v-430h95v-102h-95v-178h-110zM384 280v266l-229 -266h229z" />
    <glyph glyph-name="five" unicode="5" horiz-adv-x="563" 
d="M34 199h113q11 -44 47.5 -72.5t84.5 -28.5q59 0 96 38t37 94t-37 94t-93 38q-86 0 -124 -73l-99 31l76 390h338v-107h-252l-33 -170q45 31 111 31q100 0 162 -69t62 -176q0 -100 -68.5 -164.5t-175.5 -64.5q-98 0 -170 60.5t-75 148.5z" />
    <glyph glyph-name="six" unicode="6" horiz-adv-x="564" 
d="M523 230q0 -103 -68.5 -171.5t-175.5 -68.5t-175 68.5t-68 170.5q0 50 19 89.5t61 94.5l237 297h138l-200 -252h11q87 0 154 -65.5t67 -162.5zM147 229q0 -56 37.5 -94.5t94.5 -38.5t95 38.5t38 94.5q0 55 -38.5 94t-94.5 39t-94 -39t-38 -94z" />
    <glyph glyph-name="seven" unicode="7" horiz-adv-x="525" 
d="M178 0h-124l326 603h-349v107h480v-94z" />
    <glyph glyph-name="eight" unicode="8" horiz-adv-x="579" 
d="M534 215q0 -98 -69 -161.5t-176 -63.5q-105 0 -174.5 63.5t-69.5 161.5q0 123 102 179q-67 51 -67 141q0 81 59 134t150 53q93 0 151.5 -52.5t58.5 -134.5q0 -89 -66 -141q101 -55 101 -179zM187 528q0 -39 29 -66.5t73 -27.5q46 0 74.5 27.5t28.5 66.5q0 41 -28.5 67.5
t-74.5 26.5q-45 0 -73.5 -27t-28.5 -67zM157 217q0 -52 36.5 -88t95.5 -36q61 0 97 36t36 88q0 53 -36 88.5t-96 35.5t-96.5 -35.5t-36.5 -88.5z" />
    <glyph glyph-name="nine" unicode="9" horiz-adv-x="564" 
d="M72 0l202 254h-11q-88 0 -155 65.5t-67 162.5q0 102 68.5 171t175.5 69t175.5 -69t68.5 -170q0 -51 -19.5 -91t-61.5 -94l-238 -298h-138zM153 483q0 -56 38 -95t94 -39t94 39t38 95q0 55 -38 94t-94 39t-94 -39t-38 -94z" />
    <glyph glyph-name="colon" unicode=":" horiz-adv-x="286" 
d="M230 425q0 -36 -25.5 -61.5t-61.5 -25.5q-35 0 -60.5 25.5t-25.5 61.5q0 35 25.5 61t60.5 26q36 0 61.5 -26t25.5 -61zM230 79q0 -36 -25.5 -61.5t-61.5 -25.5q-35 0 -60.5 25.5t-25.5 61.5q0 35 25.5 61t60.5 26q36 0 61.5 -26t25.5 -61z" />
    <glyph glyph-name="semicolon" unicode=";" horiz-adv-x="293" 
d="M234 425q0 -36 -25.5 -61.5t-61.5 -25.5q-35 0 -60.5 25.5t-25.5 61.5q0 35 25.5 61t60.5 26q36 0 61.5 -26t25.5 -61zM217 25l-107 -172h-68l69 147q-21 10 -35 31t-14 48q0 36 25 61.5t61 25.5t61 -25.5t25 -61.5q0 -27 -17 -54z" />
    <glyph glyph-name="less" unicode="&#x3c;" horiz-adv-x="451" 
d="M420 543l-253 -253l253 -253h-138l-253 253l253 253h138z" />
    <glyph glyph-name="equal" unicode="=" horiz-adv-x="551" 
d="M65 348v97h422v-97h-422zM65 135v96h422v-96h-422z" />
    <glyph glyph-name="greater" unicode="&#x3e;" horiz-adv-x="451" 
d="M422 290l-253 -253h-138l253 253l-253 253h138z" />
    <glyph glyph-name="question" unicode="?" horiz-adv-x="512" 
d="M179 246v19q0 69 89 132q3 2 14.5 10.5t14.5 10.5t13 9.5t12.5 10.5t10 10t9.5 11.5t6.5 11.5t6 13t3 14t1.5 16q0 44 -29 72t-74 28q-49 0 -82 -31t-33 -81h-110q0 91 65 155.5t160 64.5q93 0 153 -60t60 -144q0 -104 -98 -177q-6 -4 -18 -13t-17.5 -13.5l-14.5 -12
t-13.5 -12.5t-9.5 -12t-7 -13.5t-2 -13.5v-5h-110zM320 79q0 -36 -25.5 -61.5t-61.5 -25.5q-35 0 -60.5 25.5t-25.5 61.5q0 35 25.5 61t60.5 26q36 0 61.5 -26t25.5 -61z" />
    <glyph glyph-name="at" unicode="@" horiz-adv-x="808" 
d="M574 21q-86 -31 -181 -31q-158 0 -253.5 99t-95.5 248q0 167 115 276t273 109q148 0 245 -87t97 -229q0 -122 -52 -185t-129 -63q-75 0 -106 56q-19 -25 -53.5 -39.5t-72.5 -14.5q-68 0 -111.5 48t-43.5 124q0 92 58.5 155.5t142.5 63.5q41 0 70 -19.5t41 -46.5l10 56h87
l-48 -230q-16 -79 37 -79q94 0 94 176q0 112 -76 177.5t-191 65.5q-128 0 -219 -86t-91 -228q0 -124 73.5 -200.5t198.5 -76.5q105 0 181 38v-77zM297 368q-11 -55 12 -92t68 -37q44 0 75.5 29t39.5 74q11 55 -12 92t-68 37q-44 0 -75.5 -29t-39.5 -74z" />
    <glyph glyph-name="A" unicode="A" horiz-adv-x="730" 
d="M4 0l310 710h102l310 -710h-122l-81 186h-318l-80 -186h-121zM250 290h228l-114 263z" />
    <glyph glyph-name="B" unicode="B" horiz-adv-x="631" 
d="M87 0v710h245q93 0 152.5 -57t59.5 -139q0 -88 -66 -137q114 -47 114 -169q0 -89 -64.5 -148.5t-164.5 -59.5h-276zM204 411h122q47 0 75 27t28 69q0 40 -28 68t-75 28h-122v-192zM204 107h156q55 0 86.5 28.5t31.5 73.5t-31.5 73.5t-86.5 28.5h-156v-204z" />
    <glyph glyph-name="C" unicode="C" horiz-adv-x="754" 
d="M42 355q0 154 107 260.5t260 106.5q103 0 187.5 -48.5t132.5 -131.5l-101 -58q-76 125 -219 125q-105 0 -177 -74t-72 -180t72 -180t177 -74q143 0 219 125l101 -58q-48 -83 -132.5 -131.5t-187.5 -48.5q-153 0 -260 106.5t-107 260.5z" />
    <glyph glyph-name="D" unicode="D" horiz-adv-x="719" 
d="M87 0v710h218q158 0 265 -102t107 -253t-107 -253t-265 -102h-218zM204 109h101q112 0 182.5 70t70.5 176t-70.5 176t-182.5 70h-101v-492z" />
    <glyph glyph-name="E" unicode="E" horiz-adv-x="562" 
d="M87 0v710h427v-112h-310v-182h250v-112h-250v-192h310v-112h-427z" />
    <glyph glyph-name="F" unicode="F" horiz-adv-x="536" 
d="M87 0v710h422v-112h-305v-183h240v-111h-240v-304h-117z" />
    <glyph glyph-name="G" unicode="G" horiz-adv-x="764" 
d="M709 90q-46 -50 -122 -76t-161 -26q-166 0 -275 105.5t-109 261.5q0 155 106.5 261t265.5 106q171 0 275 -107l-80 -83q-77 77 -195 77q-110 0 -182 -73.5t-72 -180.5q0 -110 73 -182t192 -72q114 0 170 46v158h-178v110h292v-325z" />
    <glyph glyph-name="H" unicode="H" horiz-adv-x="760" 
d="M87 0v710h117v-294h351v294h117v-710h-117v305h-351v-305h-117z" />
    <glyph glyph-name="I" unicode="I" horiz-adv-x="291" 
d="M87 0v710h117v-710h-117z" />
    <glyph glyph-name="J" unicode="J" horiz-adv-x="537" 
d="M456 195q0 -104 -62 -155.5t-155 -51.5t-155.5 54.5t-62.5 154.5h116q0 -47 29.5 -73.5t72.5 -26.5t71.5 27t28.5 81v505h117v-515z" />
    <glyph glyph-name="K" unicode="K" horiz-adv-x="682" 
d="M87 0v710h116v-306l285 306h148l-315 -339l385 -371h-158l-345 332v-332h-116z" />
    <glyph glyph-name="L" unicode="L" horiz-adv-x="549" 
d="M87 0v710h117v-598h325v-112h-442z" />
    <glyph glyph-name="M" unicode="M" horiz-adv-x="885" 
d="M443 187l-239 323v-510h-117v710h107l248 -336l249 336h107v-710h-118v509z" />
    <glyph glyph-name="N" unicode="N" horiz-adv-x="793" 
d="M706 0h-102l-400 511v-511h-117v710h102l399 -509v509h118v-710z" />
    <glyph glyph-name="O" unicode="O" horiz-adv-x="817" 
d="M776 355q0 -153 -107 -260t-260 -107t-260 106.5t-107 260.5t107 260.5t260 106.5t260 -107t107 -260zM160 355q0 -106 72 -180t177 -74t176.5 74t71.5 180t-71.5 180t-176.5 74t-177 -74t-72 -180z" />
    <glyph glyph-name="P" unicode="P" horiz-adv-x="588" 
d="M313 710q108 0 177 -66.5t69 -165.5t-69 -165.5t-177 -66.5h-109v-246h-117v710h226zM312 356q61 0 96.5 34.5t35.5 87.5t-35.5 87.5t-96.5 34.5h-108v-244h108z" />
    <glyph glyph-name="Q" unicode="Q" horiz-adv-x="839" 
d="M701 0l-70 62q-98 -74 -222 -74q-153 0 -260 106.5t-107 260.5t107 260.5t260 106.5t260 -107t107 -260q0 -120 -70 -217l158 -138h-163zM160 355q0 -106 72 -180t177 -74q74 0 133 39l-110 96l70 81l115 -101q40 62 40 139q0 106 -71.5 180t-176.5 74t-177 -74t-72 -180
z" />
    <glyph glyph-name="R" unicode="R" horiz-adv-x="645" 
d="M87 0v710h256q98 0 156.5 -56.5t58.5 -145.5q0 -74 -42 -122.5t-119 -66.5l264 -319h-144l-260 312h-53v-312h-117zM204 414h125q52 0 82 24.5t30 69.5t-30 69.5t-82 24.5h-125v-188z" />
    <glyph glyph-name="S" unicode="S" horiz-adv-x="562" 
d="M32 116l92 73q59 -91 165 -91q50 0 82.5 24.5t32.5 63.5q0 71 -101 108l-78 28q-86 31 -127 79.5t-41 120.5q0 91 65 145.5t166 54.5q134 0 215 -97l-81 -79q-57 66 -135 66q-47 0 -79.5 -22.5t-32.5 -59.5t24.5 -58.5t83.5 -43.5l72 -27q168 -63 167 -208
q0 -92 -66 -148.5t-171 -56.5q-85 0 -152.5 35t-100.5 93z" />
    <glyph glyph-name="T" unicode="T" horiz-adv-x="567" 
d="M225 0v598h-206v112h530v-112h-207v-598h-117z" />
    <glyph glyph-name="U" unicode="U" horiz-adv-x="723" 
d="M644 278q0 -131 -78.5 -210.5t-203.5 -79.5q-126 0 -204.5 79t-78.5 211v432h117v-434q0 -82 45 -128.5t121 -46.5q75 0 120 46.5t45 128.5v434h117v-432z" />
    <glyph glyph-name="V" unicode="V" horiz-adv-x="710" 
d="M304 0l-298 710h128l221 -531l220 531h129l-298 -710h-102z" />
    <glyph glyph-name="W" unicode="W" horiz-adv-x="953" 
d="M642 0l-165 434l-165 -434h-108l-183 710h123l130 -516l203 528l203 -528l130 516h124l-184 -710h-108z" />
    <glyph glyph-name="X" unicode="X" horiz-adv-x="683" 
d="M544 0l-202 266l-202 -266h-141l271 360l-258 350h138l192 -258l191 258h138l-258 -351l271 -359h-140z" />
    <glyph glyph-name="Y" unicode="Y" horiz-adv-x="681" 
d="M282 0v300l-269 410h137l190 -294l191 294h138l-270 -411v-299h-117z" />
    <glyph glyph-name="Z" unicode="Z" horiz-adv-x="602" 
d="M36 0v79l362 519h-353v112h512v-79l-363 -519h371v-112h-529z" />
    <glyph glyph-name="bracketleft" unicode="[" horiz-adv-x="314" 
d="M85 -160v960h202v-85h-107v-790h107v-85h-202z" />
    <glyph glyph-name="backslash" unicode="\" horiz-adv-x="526" 
d="M506 -110h-101l-386 820h101z" />
    <glyph glyph-name="bracketright" unicode="]" horiz-adv-x="314" 
d="M229 -160h-202v85h107v790h-107v85h202v-960z" />
    <glyph glyph-name="asciicircum" unicode="^" horiz-adv-x="379" 
d="M47 500l117 210h52l116 -210h-75l-67 119l-67 -119h-76z" />
    <glyph glyph-name="underscore" unicode="_" horiz-adv-x="524" 
d="M48 -88v88h428v-88h-428z" />
    <glyph glyph-name="grave" unicode="`" 
d="M32 560l-148 190h133l100 -190h-85z" />
    <glyph glyph-name="a" unicode="a" horiz-adv-x="624" 
d="M38 250q0 108 69.5 184t171.5 76q51 0 94 -22.5t66 -54.5v67h110v-500h-110v67q-23 -32 -66 -54.5t-94 -22.5q-102 0 -171.5 76t-69.5 184zM448 250q0 68 -41.5 114t-107.5 46t-107.5 -46t-41.5 -114t41.5 -114t107.5 -46t107.5 46t41.5 114z" />
    <glyph glyph-name="b" unicode="b" horiz-adv-x="624" 
d="M184 67v-67h-110v750h110v-317q23 32 66.5 54.5t94.5 22.5q102 0 171.5 -76t69.5 -184t-69.5 -184t-171.5 -76q-51 0 -94.5 22.5t-66.5 54.5zM474 250q0 68 -42 114t-107 46q-66 0 -108 -46t-42 -114t42 -114t108 -46q65 0 107 46t42 114z" />
    <glyph glyph-name="c" unicode="c" horiz-adv-x="562" 
d="M535 128q-33 -63 -95 -100.5t-138 -37.5q-113 0 -188.5 74.5t-75.5 185.5t75.5 185.5t188.5 74.5q76 0 138 -37.5t95 -100.5l-96 -52q-19 40 -55 64t-82 24q-66 0 -109 -45.5t-43 -112.5t43 -112.5t109 -45.5q46 0 82 24t55 64z" />
    <glyph glyph-name="d" unicode="d" horiz-adv-x="624" 
d="M38 250q0 108 69.5 184t171.5 76q51 0 94 -22.5t66 -54.5v317h110v-750h-110v67q-23 -32 -66 -54.5t-94 -22.5q-102 0 -171.5 76t-69.5 184zM448 250q0 68 -41.5 114t-107.5 46t-107.5 -46t-41.5 -114t41.5 -114t107.5 -46t107.5 46t41.5 114z" />
    <glyph glyph-name="e" unicode="e" horiz-adv-x="580" 
d="M39 250q0 111 74 185.5t187 74.5q103 0 172 -66t69 -182q0 -20 -1 -36h-393q4 -61 47.5 -98.5t106.5 -37.5q98 0 143 76l84 -60q-74 -116 -228 -116q-114 0 -187.5 73t-73.5 187zM296 417q-51 0 -92 -29t-52 -82h278q-9 52 -46.5 81.5t-87.5 29.5z" />
    <glyph glyph-name="f" unicode="f" horiz-adv-x="388" 
d="M121 0v402h-104v98h104v84q0 81 48 126.5t123 45.5q46 0 82 -12v-98q-27 10 -59 10q-44 0 -64 -19.5t-20 -65.5v-71h143v-98h-143v-402h-110z" />
    <glyph glyph-name="g" unicode="g" horiz-adv-x="623" 
d="M549 34q0 -125 -71.5 -189t-188.5 -64q-72 0 -134.5 25t-99.5 67l67 79q67 -73 166 -73q65 0 108 41.5t43 114.5v46q-23 -34 -66.5 -56t-93.5 -22q-101 0 -170.5 73.5t-69.5 180.5q0 106 69.5 179.5t170.5 73.5q50 0 93.5 -21.5t66.5 -55.5v67h110v-466zM150 257
q0 -66 42.5 -109.5t106.5 -43.5t106.5 43.5t42.5 109.5t-42.5 109.5t-106.5 43.5t-106.5 -43.5t-42.5 -109.5z" />
    <glyph glyph-name="h" unicode="h" horiz-adv-x="594" 
d="M74 0v750h110v-318q47 78 152 78q87 0 139 -57t52 -152v-301h-110v283q0 59 -28 93t-76 34q-57 0 -93 -43t-36 -121v-246h-110z" />
    <glyph glyph-name="i" unicode="i" horiz-adv-x="258" 
d="M202 683q0 -31 -21 -52.5t-52 -21.5q-30 0 -52 21.5t-22 52.5q0 30 22 51.5t52 21.5q31 0 52 -21.5t21 -51.5zM74 0v500h110v-500h-110z" />
    <glyph glyph-name="j" unicode="j" horiz-adv-x="266" 
d="M210 683q0 -31 -21 -52.5t-52 -21.5q-30 0 -52 21.5t-22 52.5q0 30 22 51.5t52 21.5q31 0 52 -21.5t21 -51.5zM192 500v-553q0 -80 -47.5 -123t-120.5 -43q-28 0 -47 3v96q14 -2 27 -2q78 0 78 85v537h110z" />
    <glyph glyph-name="k" unicode="k" horiz-adv-x="547" 
d="M74 0v750h110v-440l191 190h139l-223 -223l273 -277h-141l-239 242v-242h-110z" />
    <glyph glyph-name="l" unicode="l" horiz-adv-x="258" 
d="M74 0v750h110v-750h-110z" />
    <glyph glyph-name="m" unicode="m" horiz-adv-x="888" 
d="M74 0v500h110v-68q46 78 142 78q112 0 155 -99q22 47 65.5 73t94.5 26q84 0 132 -57t48 -154v-299h-110v281q0 60 -22.5 94.5t-66.5 34.5q-54 0 -86.5 -43.5t-32.5 -120.5v-246h-110v281q0 60 -22.5 94.5t-66.5 34.5q-54 0 -87 -43.5t-33 -120.5v-246h-110z" />
    <glyph glyph-name="n" unicode="n" horiz-adv-x="594" 
d="M74 0v500h110v-68q47 78 152 78q87 0 139 -57t52 -152v-301h-110v283q0 59 -28 93t-76 34q-57 0 -93 -43t-36 -121v-246h-110z" />
    <glyph glyph-name="o" unicode="o" horiz-adv-x="599" 
d="M562 250q0 -109 -75.5 -184.5t-186.5 -75.5t-186.5 75.5t-75.5 184.5t75.5 184.5t186.5 75.5t186.5 -75.5t75.5 -184.5zM149 250q0 -67 42.5 -112.5t108.5 -45.5q65 0 107.5 45.5t42.5 112.5t-42.5 112.5t-107.5 45.5q-66 0 -108.5 -45.5t-42.5 -112.5z" />
    <glyph glyph-name="p" unicode="p" horiz-adv-x="624" 
d="M74 -209v709h110v-67q23 32 66.5 54.5t94.5 22.5q102 0 171.5 -76t69.5 -184t-69.5 -184t-171.5 -76q-51 0 -94.5 22.5t-66.5 54.5v-276h-110zM474 250q0 68 -42 114t-107 46q-66 0 -108 -46t-42 -114t42 -114t108 -46q65 0 107 46t42 114z" />
    <glyph glyph-name="q" unicode="q" horiz-adv-x="624" 
d="M439 -209v276q-23 -32 -66 -54.5t-94 -22.5q-102 0 -171.5 76t-69.5 184t69.5 184t171.5 76q51 0 94 -22.5t66 -54.5v67h110v-709h-110zM448 250q0 68 -41.5 114t-107.5 46t-107.5 -46t-41.5 -114t41.5 -114t107.5 -46t107.5 46t41.5 114z" />
    <glyph glyph-name="r" unicode="r" horiz-adv-x="380" 
d="M74 0v500h110v-89q14 42 51.5 68t80.5 26q23 0 43 -4v-113q-29 9 -55 9q-50 0 -85 -40.5t-35 -112.5v-244h-110z" />
    <glyph glyph-name="s" unicode="s" horiz-adv-x="454" 
d="M414 145q0 -71 -51 -113t-130 -42q-69 0 -122 27t-79 79l81 58q15 -32 48 -50.5t72 -18.5q31 0 51.5 14t20.5 39q0 22 -16.5 36.5t-60.5 27.5l-44 12q-65 18 -98.5 57.5t-32.5 95.5q1 65 51.5 104t127.5 39q115 0 169 -85l-76 -58q-36 51 -95 51q-27 0 -47 -13t-20 -34
q0 -42 60 -59l51 -15q140 -41 140 -152z" />
    <glyph glyph-name="t" unicode="t" horiz-adv-x="403" 
d="M373 6q-35 -11 -82 -11q-76 0 -123.5 42.5t-47.5 123.5v241h-104v98h104v139h110v-139h143v-98h-143v-223q0 -46 20 -65.5t64 -19.5q32 0 59 10v-98z" />
    <glyph glyph-name="u" unicode="u" horiz-adv-x="583" 
d="M67 201v299h110v-281q0 -60 26 -94.5t74 -34.5q55 0 88.5 43t33.5 121v246h110v-500h-110v68q-45 -78 -146 -78q-86 0 -136 57.5t-50 153.5z" />
    <glyph glyph-name="v" unicode="v" horiz-adv-x="557" 
d="M230 0l-226 500h122l152 -350l153 350h123l-227 -500h-97z" />
    <glyph glyph-name="w" unicode="w" horiz-adv-x="780" 
d="M500 0l-110 324l-109 -324h-104l-168 500h116l108 -344l115 344h84l114 -344l109 344h117l-168 -500h-104z" />
    <glyph glyph-name="x" unicode="x" horiz-adv-x="547" 
d="M5 0l199 249l-188 251h131l126 -168l126 168h132l-188 -251l199 -249h-133l-135 169l-135 -169h-134z" />
    <glyph glyph-name="y" unicode="y" horiz-adv-x="558" 
d="M234 -209h-121l107 236l-215 473h121l154 -354l153 354h122z" />
    <glyph glyph-name="z" unicode="z" horiz-adv-x="490" 
d="M40 0v87l262 313h-258v100h400v-88l-261 -312h269v-100h-412z" />
    <glyph glyph-name="braceleft" unicode="{" horiz-adv-x="327" 
d="M301 -160h-71q-132 0 -132 143v229q0 33 -12 49t-44 16h-13v85h13q32 0 44 16t12 48v231q0 143 132 143h71v-85h-48q-34 0 -46.5 -15t-12.5 -52v-222q0 -84 -58 -106q58 -24 58 -108v-220q0 -37 12.5 -52t46.5 -15h48v-85z" />
    <glyph glyph-name="bar" unicode="|" horiz-adv-x="264" 
d="M84 -110v820h96v-820h-96z" />
    <glyph glyph-name="braceright" unicode="}" horiz-adv-x="327" 
d="M26 -160v85h48q34 0 46.5 15t12.5 52v220q0 84 58 108q-58 22 -58 106v222q0 37 -12.5 52t-46.5 15h-48v85h71q132 0 132 -143v-231q0 -32 12 -48t44 -16h13v-85h-13q-32 0 -44 -16t-12 -49v-229q0 -143 -132 -143h-71z" />
    <glyph glyph-name="asciitilde" unicode="~" horiz-adv-x="381" 
d="M64 230l55 119h46l60 -54l25 54h70l-55 -119h-46l-61 55l-25 -55h-69z" />
    <glyph glyph-name="uni00A0" unicode="&#xa0;" horiz-adv-x="235" 
 />
    <glyph glyph-name="exclamdown" unicode="&#xa1;" horiz-adv-x="267" 
d="M220 425q0 -36 -25.5 -61.5t-61.5 -25.5q-35 0 -60.5 25.5t-25.5 61.5q0 35 25.5 61t60.5 26q36 0 61.5 -26t25.5 -61zM167 264l22 -196v-277h-111v277l21 196h68z" />
    <glyph glyph-name="cent" unicode="&#xa2;" horiz-adv-x="591" 
d="M276 -88v79q-102 10 -168 83.5t-66 175.5t66 175.5t168 83.5v79h54v-79q87 -7 147.5 -59.5t79.5 -132.5h-115q-30 77 -112 91v-316q82 14 112 91h115q-19 -80 -79.5 -132.5t-147.5 -59.5v-79h-54zM153 250q0 -62 33.5 -105t89.5 -53v316q-56 -10 -89.5 -53t-33.5 -105z
" />
    <glyph glyph-name="sterling" unicode="&#xa3;" horiz-adv-x="575" 
d="M49 0v108h76q34 49 34 106q0 39 -26 119h-84v56h66q-23 79 -23 124q0 83 61.5 146t155.5 63q95 0 157.5 -65.5t64.5 -156.5h-110q-1 48 -32.5 81t-79.5 33q-47 0 -77 -30t-30 -77q0 -44 27 -118h181v-56h-162q20 -65 20 -114q0 -62 -32 -111h295v-108h-482z" />
    <glyph glyph-name="yen" unicode="&#xa5;" horiz-adv-x="696" 
d="M82 169v55h211v75h-211v55h176l-230 356h133l187 -300l186 300h134l-230 -356h176v-55h-211v-75h211v-55h-211v-169h-110v169h-211z" />
    <glyph glyph-name="brokenbar" unicode="&#xa6;" horiz-adv-x="264" 
d="M84 355v355h96v-355h-96zM84 -110v355h96v-355h-96z" />
    <glyph glyph-name="section" unicode="&#xa7;" horiz-adv-x="456" 
d="M404 -64q1 -70 -46.5 -112.5t-119.5 -42.5q-69 0 -119.5 37.5t-57.5 114.5h97q12 -68 80 -68q29 0 50 19t20 52q-1 68 -89 116l-60 32q-108 56 -108 164q0 107 96 164q-94 63 -94 159q0 68 44.5 109.5t114.5 41.5q68 0 115.5 -37t54.5 -115h-96q-13 68 -72 68
q-30 0 -47 -17.5t-17 -49.5q0 -34 20.5 -57t66.5 -49l60 -32q110 -57 110 -164t-97 -164q92 -65 94 -169zM219 157l5 -3q86 42 86 107q0 61 -72 99l-3 2q-44 -21 -66 -45t-22 -61q0 -62 72 -99z" />
    <glyph glyph-name="dieresis" unicode="&#xa8;" 
d="M-49 653q0 -27 -19 -46.5t-46 -19.5q-28 0 -47.5 19.5t-19.5 46.5q0 28 19.5 47.5t47.5 19.5q27 0 46 -19.5t19 -47.5zM181 653q0 -27 -19 -46.5t-47 -19.5q-27 0 -46.5 19.5t-19.5 46.5q0 28 19.5 47.5t46.5 19.5q28 0 47 -19.5t19 -47.5z" />
    <glyph glyph-name="copyright" unicode="&#xa9;" horiz-adv-x="816" 
d="M775 355q0 -151 -107.5 -259t-259.5 -108q-151 0 -259 108t-108 259t108 259t259 108q152 0 259.5 -108t107.5 -259zM118 355q0 -120 85.5 -205t204.5 -85t204.5 85t85.5 205t-85.5 205t-204.5 85t-204.5 -85t-85.5 -205zM217 355q0 80 56.5 136.5t136.5 56.5
q56 0 102 -27t70 -73l-68 -37q-34 62 -104 62q-48 0 -82 -35t-34 -83t34 -83t82 -35q70 0 104 62l68 -37q-24 -46 -70 -72.5t-102 -26.5q-80 0 -136.5 56t-56.5 136z" />
    <glyph glyph-name="ordfeminine" unicode="&#xaa;" horiz-adv-x="413" 
d="M39 560q0 65 40.5 110.5t100.5 45.5q56 0 86 -39v33h83v-300h-83v33q-30 -39 -86 -39q-60 0 -100.5 45.5t-40.5 110.5zM273 560q0 35 -21 58t-54 23q-34 0 -55 -22.5t-21 -58.5t21 -58.5t55 -22.5q33 0 54 23t21 58z" />
    <glyph glyph-name="guillemotleft" unicode="&#xab;" horiz-adv-x="500" 
d="M223 250l141 217h95l-116 -217l116 -217h-95zM36 250l141 217h95l-116 -217l116 -217h-95z" />
    <glyph glyph-name="uni00AD" unicode="&#xad;" horiz-adv-x="392" 
d="M62 226v108h269v-108h-269z" />
    <glyph glyph-name="registered" unicode="&#xae;" horiz-adv-x="816" 
d="M775 355q0 -151 -107.5 -259t-259.5 -108q-151 0 -259 108t-108 259t108 259t259 108q152 0 259.5 -108t107.5 -259zM118 355q0 -120 85.5 -205t204.5 -85t204.5 85t85.5 205t-85.5 205t-204.5 85t-204.5 -85t-85.5 -205zM286 169v372h143q52 0 83.5 -31t31.5 -79
q0 -72 -77 -97l134 -165h-92l-127 156h-18v-156h-78zM364 391h57q21 0 34 11t13 29t-13 28.5t-34 10.5h-57v-79z" />
    <glyph glyph-name="macron" unicode="&#xaf;" 
d="M-166 628v82h332v-82h-332z" />
    <glyph glyph-name="degree" unicode="&#xb0;" horiz-adv-x="360" 
d="M321 573q0 -59 -41.5 -100t-99.5 -41t-99.5 41t-41.5 100t41.5 100t99.5 41t99.5 -41t41.5 -100zM115 573q0 -27 18.5 -46t46.5 -19q27 0 46 19t19 46q0 26 -19 45.5t-46 19.5t-46 -19t-19 -46z" />
    <glyph glyph-name="twosuperior" unicode="&#xb2;" horiz-adv-x="354" 
d="M322 491v-81h-293v28q0 18 4 34.5t8 28.5t15.5 26.5l17 21.5t23 21t22.5 17.5l25.5 18t23.5 16.5q68 48 68 92q0 23 -16 38t-42 15q-28 0 -46.5 -17.5t-18.5 -43.5h-83q0 63 43 103t107 40q58 0 98.5 -35t40.5 -98q0 -52 -22.5 -85.5t-68.5 -66.5l-23 -15.5t-26.5 -18.5
t-20.5 -18t-15 -21h179z" />
    <glyph glyph-name="threesuperior" unicode="&#xb3;" horiz-adv-x="365" 
d="M335 533q0 -57 -41.5 -93t-107.5 -36q-65 0 -112 39t-49 107h82q8 -65 79 -65q29 0 47.5 15t18.5 40q0 27 -19.5 42.5t-52.5 15.5h-36v67h34q29 0 45 14.5t16 37.5q1 22 -15.5 36t-40.5 14q-29 0 -48 -17t-19 -44h-82q0 65 44.5 104t105.5 39q64 0 101.5 -35.5
t37.5 -89.5q-1 -60 -48 -93q26 -12 43 -37.5t17 -60.5z" />
    <glyph glyph-name="acute" unicode="&#xb4;" 
d="M-117 560l100 190h133l-148 -190h-85z" />
    <glyph glyph-name="paragraph" unicode="&#xb6;" horiz-adv-x="643" 
d="M253 -184v444q-93 0 -159 66t-66 159t66 159t159 66h292v-894h-96v796h-99v-796h-97z" />
    <glyph glyph-name="periodcentered" unicode="&#xb7;" horiz-adv-x="279" 
d="M226 276q0 -36 -25.5 -61.5t-61.5 -25.5q-35 0 -60.5 25.5t-25.5 61.5q0 35 25.5 61t60.5 26q36 0 61.5 -26t25.5 -61z" />
    <glyph glyph-name="cedilla" unicode="&#xb8;" 
d="M-112 -204v58q30 -17 76 -17q65 0 65 38q0 29 -45 29q-24 0 -43 -10l-34 20l54 89h58l-33 -54q21 7 43 7q36 0 59.5 -20.5t23.5 -56.5q0 -44 -39 -71t-94 -27q-56 0 -91 15z" />
    <glyph glyph-name="onesuperior" unicode="&#xb9;" horiz-adv-x="235" 
d="M98 410v350h-91l60 82h114v-432h-83z" />
    <glyph glyph-name="ordmasculine" unicode="&#xba;" horiz-adv-x="390" 
d="M353 560q0 -66 -46 -111t-112 -45t-111.5 45t-45.5 111t45.5 111t111.5 45t112 -45t46 -111zM121 560q0 -34 21 -56.5t53 -22.5t53 22.5t21 56.5t-21 56.5t-53 22.5t-53 -22.5t-21 -56.5z" />
    <glyph glyph-name="guillemotright" unicode="&#xbb;" horiz-adv-x="500" 
d="M463 250l-141 -217h-95l116 217l-116 217h95zM276 250l-141 -217h-95l116 217l-116 217h95z" />
    <glyph glyph-name="onequarter" unicode="&#xbc;" horiz-adv-x="806" 
d="M99 278v350h-91l60 82h114v-432h-83zM53 0l500 710h98l-500 -710h-98zM645 0v99h-215v67l224 266h74v-257h56v-76h-56v-99h-83zM645 175v135l-113 -135h113z" />
    <glyph glyph-name="onehalf" unicode="&#xbd;" horiz-adv-x="795" 
d="M99 278v350h-91l60 82h114v-432h-83zM53 0l500 710h98l-500 -710h-98zM763 81v-81h-293v28q0 18 4 34.5t8 28.5t15.5 26.5l17 21.5t23 21t22.5 17.5l25.5 18t23.5 16.5q68 48 68 92q0 23 -16 38t-42 15q-28 0 -46.5 -17.5t-18.5 -43.5h-83q0 63 43 103t107 40
q58 0 98.5 -35t40.5 -98q0 -52 -22.5 -85.5t-68.5 -66.5l-23 -15.5t-26.5 -18.5t-20.5 -18t-15 -21h179z" />
    <glyph glyph-name="threequarters" unicode="&#xbe;" horiz-adv-x="909" 
d="M335 401q0 -57 -41.5 -93t-107.5 -36q-65 0 -112 39t-49 107h82q8 -65 79 -65q29 0 47.5 15t18.5 40q0 27 -19.5 42.5t-52.5 15.5h-36v67h34q29 0 45 14.5t16 37.5q1 22 -15.5 36t-40.5 14q-29 0 -48 -17t-19 -44h-82q0 65 44.5 104t105.5 39q64 0 101.5 -35.5
t37.5 -89.5q-1 -60 -48 -93q26 -12 43 -37.5t17 -60.5zM157 0l500 710h98l-500 -710h-98zM749 0v99h-215v67l224 266h74v-257h56v-76h-56v-99h-83zM749 175v135l-113 -135h113z" />
    <glyph glyph-name="questiondown" unicode="&#xbf;" horiz-adv-x="502" 
d="M185 423q0 36 25.5 61.5t61.5 25.5q35 0 60.5 -25.5t25.5 -61.5q0 -35 -25.5 -61t-60.5 -26q-36 0 -61.5 26t-25.5 61zM326 256v-19q0 -69 -89 -132q-3 -2 -14.5 -10.5t-14.5 -10.5t-13 -9.5t-12.5 -10.5t-10 -10t-9.5 -11.5t-6.5 -11.5t-6 -13t-3 -14t-1.5 -16
q0 -44 29 -72t74 -28q49 0 82 31t33 81h110q0 -91 -65 -155.5t-160 -64.5q-93 0 -153 60t-60 144q0 104 98 177q6 4 18 13t17.5 13.5l14.5 12t13.5 12.5t9.5 12t7 13.5t2 13.5v5h110z" />
    <glyph glyph-name="Agrave" unicode="&#xc0;" horiz-adv-x="730" 
d="M403 770h-86l-118 157h129zM4 0l310 710h102l310 -710h-122l-81 186h-318l-80 -186h-121zM250 290h228l-114 263z" />
    <glyph glyph-name="Aacute" unicode="&#xc1;" horiz-adv-x="730" 
d="M330 770l75 157h129l-118 -157h-86zM4 0l310 710h102l310 -710h-122l-81 186h-318l-80 -186h-121zM250 290h228l-114 263z" />
    <glyph glyph-name="Acircumflex" unicode="&#xc2;" horiz-adv-x="730" 
d="M195 766v92l170 80l170 -80v-92l-170 80zM4 0l310 710h102l310 -710h-122l-81 186h-318l-80 -186h-121zM250 290h228l-114 263z" />
    <glyph glyph-name="Atilde" unicode="&#xc3;" horiz-adv-x="730" 
d="M185 782l3 22q8 47 39.5 75t72.5 28q30 0 73.5 -22.5t56.5 -22.5q32 0 43 45h72l-3 -22q-8 -46 -39.5 -74t-72.5 -28q-31 0 -74.5 22.5t-55.5 22.5q-32 0 -44 -46h-71zM4 0l310 710h102l310 -710h-122l-81 186h-318l-80 -186h-121zM250 290h228l-114 263z" />
    <glyph glyph-name="Adieresis" unicode="&#xc4;" horiz-adv-x="730" 
d="M316 845q0 -27 -19 -46.5t-46 -19.5q-28 0 -47.5 19.5t-19.5 46.5q0 28 19.5 47.5t47.5 19.5q27 0 46 -19.5t19 -47.5zM546 845q0 -27 -19 -46.5t-47 -19.5q-27 0 -46.5 19.5t-19.5 46.5q0 28 19.5 47.5t46.5 19.5q28 0 47 -19.5t19 -47.5zM4 0l310 710h102l310 -710
h-122l-81 186h-318l-80 -186h-121zM250 290h228l-114 263z" />
    <glyph glyph-name="Aring" unicode="&#xc5;" horiz-adv-x="730" 
d="M487 873q0 -49 -36 -84.5t-86 -35.5t-85.5 35.5t-35.5 84.5t35.5 84.5t85.5 35.5t86 -35.5t36 -84.5zM301 873q0 -27 19 -45.5t45 -18.5q28 0 47 18.5t19 45.5t-19.5 46t-46.5 19q-26 0 -45 -19.5t-19 -45.5zM4 0l310 710h102l310 -710h-122l-81 186h-318l-80 -186h-121z
M250 290h228l-114 263z" />
    <glyph glyph-name="AE" unicode="&#xc6;" horiz-adv-x="927" 
d="M-25 0l414 710h489v-112h-310v-182h250v-112h-250v-192h310v-112h-427v186h-239l-108 -186h-129zM272 290h179v308h-1z" />
    <glyph glyph-name="Ccedilla" unicode="&#xc7;" horiz-adv-x="754" 
d="M297 -146q30 -17 76 -17q65 0 65 38q0 29 -45 29q-23 0 -43 -10l-34 20l47 77q-137 17 -229 120t-92 244q0 154 107 260.5t260 106.5q103 0 187.5 -48.5t132.5 -131.5l-101 -58q-76 125 -219 125q-105 0 -177 -74t-72 -180t72 -180t177 -74q143 0 219 125l101 -58
q-46 -81 -128 -129t-182 -51l-23 -39q21 7 43 7q36 0 59 -20.5t23 -56.5q0 -44 -39 -71t-93 -27q-57 0 -92 15v58z" />
    <glyph glyph-name="Egrave" unicode="&#xc8;" horiz-adv-x="562" 
d="M339 770h-86l-118 157h129zM87 0v710h427v-112h-310v-182h250v-112h-250v-192h310v-112h-427z" />
    <glyph glyph-name="Eacute" unicode="&#xc9;" horiz-adv-x="562" 
d="M265 770l75 157h129l-118 -157h-86zM87 0v710h427v-112h-310v-182h250v-112h-250v-192h310v-112h-427z" />
    <glyph glyph-name="Ecircumflex" unicode="&#xca;" horiz-adv-x="562" 
d="M130 766v92l170 80l170 -80v-92l-170 80zM87 0v710h427v-112h-310v-182h250v-112h-250v-192h310v-112h-427z" />
    <glyph glyph-name="Edieresis" unicode="&#xcb;" horiz-adv-x="562" 
d="M251 845q0 -27 -19 -46.5t-46 -19.5q-28 0 -47.5 19.5t-19.5 46.5q0 28 19.5 47.5t47.5 19.5q27 0 46 -19.5t19 -47.5zM481 845q0 -27 -19 -46.5t-47 -19.5q-27 0 -46.5 19.5t-19.5 46.5q0 28 19.5 47.5t46.5 19.5q28 0 47 -19.5t19 -47.5zM87 0v710h427v-112h-310v-182
h250v-112h-250v-192h310v-112h-427z" />
    <glyph glyph-name="Igrave" unicode="&#xcc;" horiz-adv-x="291" 
d="M184 770h-86l-118 157h129zM87 0v710h117v-710h-117z" />
    <glyph glyph-name="Iacute" unicode="&#xcd;" horiz-adv-x="291" 
d="M111 770l75 157h129l-118 -157h-86zM87 0v710h117v-710h-117z" />
    <glyph glyph-name="Icircumflex" unicode="&#xce;" horiz-adv-x="291" 
d="M-24 766v92l170 80l170 -80v-92l-170 80zM87 0v710h117v-710h-117z" />
    <glyph glyph-name="Idieresis" unicode="&#xcf;" horiz-adv-x="291" 
d="M97 845q0 -27 -19 -46.5t-46 -19.5q-28 0 -47.5 19.5t-19.5 46.5q0 28 19.5 47.5t47.5 19.5q27 0 46 -19.5t19 -47.5zM327 845q0 -27 -19 -46.5t-47 -19.5q-27 0 -46.5 19.5t-19.5 46.5q0 28 19.5 47.5t46.5 19.5q28 0 47 -19.5t19 -47.5zM87 0v710h117v-710h-117z" />
    <glyph glyph-name="Eth" unicode="&#xd0;" horiz-adv-x="730" 
d="M98 0v308h-73v102h73v300h218q158 0 265 -102t107 -253t-107 -253t-265 -102h-218zM215 109h101q112 0 182.5 70t70.5 176t-70.5 176t-182.5 70h-101v-191h145v-102h-145v-199z" />
    <glyph glyph-name="Ntilde" unicode="&#xd1;" horiz-adv-x="793" 
d="M214 782l3 22q8 47 39.5 75t72.5 28q30 0 73.5 -22.5t56.5 -22.5q33 0 43 45h72l-3 -22q-8 -46 -39.5 -74t-72.5 -28q-31 0 -74.5 22.5t-55.5 22.5q-32 0 -44 -46h-71zM706 0h-102l-400 511v-511h-117v710h102l399 -509v509h118v-710z" />
    <glyph glyph-name="Ograve" unicode="&#xd2;" horiz-adv-x="817" 
d="M447 770h-86l-118 157h129zM776 355q0 -153 -107 -260t-260 -107t-260 106.5t-107 260.5t107 260.5t260 106.5t260 -107t107 -260zM160 355q0 -106 72 -180t177 -74t176.5 74t71.5 180t-71.5 180t-176.5 74t-177 -74t-72 -180z" />
    <glyph glyph-name="Oacute" unicode="&#xd3;" horiz-adv-x="817" 
d="M374 770l75 157h129l-118 -157h-86zM776 355q0 -153 -107 -260t-260 -107t-260 106.5t-107 260.5t107 260.5t260 106.5t260 -107t107 -260zM160 355q0 -106 72 -180t177 -74t176.5 74t71.5 180t-71.5 180t-176.5 74t-177 -74t-72 -180z" />
    <glyph glyph-name="Ocircumflex" unicode="&#xd4;" horiz-adv-x="817" 
d="M239 766v92l170 80l170 -80v-92l-170 80zM776 355q0 -153 -107 -260t-260 -107t-260 106.5t-107 260.5t107 260.5t260 106.5t260 -107t107 -260zM160 355q0 -106 72 -180t177 -74t176.5 74t71.5 180t-71.5 180t-176.5 74t-177 -74t-72 -180z" />
    <glyph glyph-name="Otilde" unicode="&#xd5;" horiz-adv-x="817" 
d="M229 782l3 22q8 47 39.5 75t72.5 28q30 0 73.5 -22.5t56.5 -22.5q32 0 43 45h72l-3 -22q-8 -46 -39.5 -74t-72.5 -28q-31 0 -74.5 22.5t-55.5 22.5q-32 0 -44 -46h-71zM776 355q0 -153 -107 -260t-260 -107t-260 106.5t-107 260.5t107 260.5t260 106.5t260 -107t107 -260
zM160 355q0 -106 72 -180t177 -74t176.5 74t71.5 180t-71.5 180t-176.5 74t-177 -74t-72 -180z" />
    <glyph glyph-name="Odieresis" unicode="&#xd6;" horiz-adv-x="817" 
d="M360 845q0 -27 -19 -46.5t-46 -19.5q-28 0 -47.5 19.5t-19.5 46.5q0 28 19.5 47.5t47.5 19.5q27 0 46 -19.5t19 -47.5zM590 845q0 -27 -19 -46.5t-47 -19.5q-27 0 -46.5 19.5t-19.5 46.5q0 28 19.5 47.5t46.5 19.5q28 0 47 -19.5t19 -47.5zM776 355q0 -153 -107 -260
t-260 -107t-260 106.5t-107 260.5t107 260.5t260 106.5t260 -107t107 -260zM160 355q0 -106 72 -180t177 -74t176.5 74t71.5 180t-71.5 180t-176.5 74t-177 -74t-72 -180z" />
    <glyph glyph-name="multiply" unicode="&#xd7;" horiz-adv-x="504" 
d="M117 87l-69 68l135 135l-135 134l69 68l135 -133l136 133l68 -68l-134 -134l134 -135l-68 -68l-136 133z" />
    <glyph glyph-name="Oslash" unicode="&#xd8;" horiz-adv-x="821" 
d="M778 355q0 -153 -107 -260t-260 -107q-119 0 -214 68l-70 -75l-68 66l69 73q-84 101 -84 235q0 154 107 260.5t260 106.5q119 0 214 -68l70 75l67 -65l-68 -74q84 -102 84 -235zM162 355q0 -83 46 -148l338 362q-62 40 -135 40q-105 0 -177 -74t-72 -180zM659 355
q0 82 -46 149l-338 -363q62 -40 136 -40q105 0 176.5 74t71.5 180z" />
    <glyph glyph-name="Ugrave" unicode="&#xd9;" horiz-adv-x="723" 
d="M400 770h-86l-118 157h129zM644 278q0 -131 -78.5 -210.5t-203.5 -79.5q-126 0 -204.5 79t-78.5 211v432h117v-434q0 -82 45 -128.5t121 -46.5q75 0 120 46.5t45 128.5v434h117v-432z" />
    <glyph glyph-name="Uacute" unicode="&#xda;" horiz-adv-x="723" 
d="M326 770l75 157h129l-118 -157h-86zM644 278q0 -131 -78.5 -210.5t-203.5 -79.5q-126 0 -204.5 79t-78.5 211v432h117v-434q0 -82 45 -128.5t121 -46.5q75 0 120 46.5t45 128.5v434h117v-432z" />
    <glyph glyph-name="Ucircumflex" unicode="&#xdb;" horiz-adv-x="723" 
d="M192 766v92l170 80l170 -80v-92l-170 80zM644 278q0 -131 -78.5 -210.5t-203.5 -79.5q-126 0 -204.5 79t-78.5 211v432h117v-434q0 -82 45 -128.5t121 -46.5q75 0 120 46.5t45 128.5v434h117v-432z" />
    <glyph glyph-name="Udieresis" unicode="&#xdc;" horiz-adv-x="723" 
d="M313 845q0 -27 -19 -46.5t-46 -19.5q-28 0 -47.5 19.5t-19.5 46.5q0 28 19.5 47.5t47.5 19.5q27 0 46 -19.5t19 -47.5zM543 845q0 -27 -19 -46.5t-47 -19.5q-27 0 -46.5 19.5t-19.5 46.5q0 28 19.5 47.5t46.5 19.5q28 0 47 -19.5t19 -47.5zM644 278q0 -131 -78.5 -210.5
t-203.5 -79.5q-126 0 -204.5 79t-78.5 211v432h117v-434q0 -82 45 -128.5t121 -46.5q75 0 120 46.5t45 128.5v434h117v-432z" />
    <glyph glyph-name="Yacute" unicode="&#xdd;" horiz-adv-x="681" 
d="M305 770l75 157h129l-118 -157h-86zM282 0v300l-269 410h137l190 -294l191 294h138l-270 -411v-299h-117z" />
    <glyph glyph-name="Thorn" unicode="&#xde;" horiz-adv-x="596" 
d="M313 587q108 0 177 -66.5t69 -165.5t-69 -165.5t-177 -66.5h-109v-123h-117v710h117v-123h109zM312 233q61 0 96.5 34.5t35.5 87.5t-35.5 87.5t-96.5 34.5h-108v-244h108z" />
    <glyph glyph-name="germandbls" unicode="&#xdf;" horiz-adv-x="579" 
d="M74 0v539q0 97 63 157t154 60q89 0 152 -57.5t63 -141.5q0 -95 -81 -157q55 -27 86 -76.5t31 -103.5q0 -93 -66.5 -156.5t-168.5 -63.5h-44v101h39q56 0 92.5 34t36.5 87q0 52 -36.5 86t-92.5 34h-38v101h21q49 0 79.5 30.5t30.5 75.5q0 44 -29.5 75t-74.5 31
q-46 0 -76.5 -32.5t-30.5 -83.5v-539h-110z" />
    <glyph glyph-name="agrave" unicode="&#xe0;" horiz-adv-x="624" 
d="M276 560l-148 190h133l100 -190h-85zM38 250q0 108 69.5 184t171.5 76q51 0 94 -22.5t66 -54.5v67h110v-500h-110v67q-23 -32 -66 -54.5t-94 -22.5q-102 0 -171.5 76t-69.5 184zM448 250q0 68 -41.5 114t-107.5 46t-107.5 -46t-41.5 -114t41.5 -114t107.5 -46t107.5 46
t41.5 114z" />
    <glyph glyph-name="aacute" unicode="&#xe1;" horiz-adv-x="624" 
d="M282 560l100 190h133l-148 -190h-85zM38 250q0 108 69.5 184t171.5 76q51 0 94 -22.5t66 -54.5v67h110v-500h-110v67q-23 -32 -66 -54.5t-94 -22.5q-102 0 -171.5 76t-69.5 184zM448 250q0 68 -41.5 114t-107.5 46t-107.5 -46t-41.5 -114t41.5 -114t107.5 -46t107.5 46
t41.5 114z" />
    <glyph glyph-name="acircumflex" unicode="&#xe2;" horiz-adv-x="624" 
d="M320 756l166 -100v-93l-166 99l-166 -99v93zM38 250q0 108 69.5 184t171.5 76q51 0 94 -22.5t66 -54.5v67h110v-500h-110v67q-23 -32 -66 -54.5t-94 -22.5q-102 0 -171.5 76t-69.5 184zM448 250q0 68 -41.5 114t-107.5 46t-107.5 -46t-41.5 -114t41.5 -114t107.5 -46
t107.5 46t41.5 114z" />
    <glyph glyph-name="atilde" unicode="&#xe3;" horiz-adv-x="624" 
d="M139 583l4 22q7 46 38.5 74t72.5 28q31 0 74.5 -22.5t55.5 -22.5q32 0 44 46h72l-4 -22q-7 -47 -38.5 -75t-72.5 -28q-31 0 -74.5 22.5t-55.5 22.5q-32 0 -44 -45h-72zM38 250q0 108 69.5 184t171.5 76q51 0 94 -22.5t66 -54.5v67h110v-500h-110v67q-23 -32 -66 -54.5
t-94 -22.5q-102 0 -171.5 76t-69.5 184zM448 250q0 68 -41.5 114t-107.5 46t-107.5 -46t-41.5 -114t41.5 -114t107.5 -46t107.5 46t41.5 114z" />
    <glyph glyph-name="adieresis" unicode="&#xe4;" horiz-adv-x="624" 
d="M271 653q0 -27 -19 -46.5t-46 -19.5q-28 0 -47.5 19.5t-19.5 46.5q0 28 19.5 47.5t47.5 19.5q27 0 46 -19.5t19 -47.5zM501 653q0 -27 -19 -46.5t-47 -19.5q-27 0 -46.5 19.5t-19.5 46.5q0 28 19.5 47.5t46.5 19.5q28 0 47 -19.5t19 -47.5zM38 250q0 108 69.5 184
t171.5 76q51 0 94 -22.5t66 -54.5v67h110v-500h-110v67q-23 -32 -66 -54.5t-94 -22.5q-102 0 -171.5 76t-69.5 184zM448 250q0 68 -41.5 114t-107.5 46t-107.5 -46t-41.5 -114t41.5 -114t107.5 -46t107.5 46t41.5 114z" />
    <glyph glyph-name="aring" unicode="&#xe5;" horiz-adv-x="624" 
d="M442 663q0 -49 -36 -84.5t-86 -35.5t-85.5 35.5t-35.5 84.5t35.5 84.5t85.5 35.5t86 -35.5t36 -84.5zM256 663q0 -27 19 -45.5t45 -18.5q28 0 47 18.5t19 45.5t-19 46t-47 19q-26 0 -45 -19.5t-19 -45.5zM38 250q0 108 69.5 184t171.5 76q51 0 94 -22.5t66 -54.5v67h110
v-500h-110v67q-23 -32 -66 -54.5t-94 -22.5q-102 0 -171.5 76t-69.5 184zM448 250q0 68 -41.5 114t-107.5 46t-107.5 -46t-41.5 -114t41.5 -114t107.5 -46t107.5 46t41.5 114z" />
    <glyph glyph-name="ae" unicode="&#xe6;" horiz-adv-x="896" 
d="M36 137q0 72 56 109.5t166 50.5q49 5 104 8v22q0 38 -26 64t-70 26q-84 0 -128 -75l-86 49q26 54 84 86.5t130 32.5q114 0 163 -84q32 40 83 62t109 22q99 0 168 -66t69 -182q0 -20 -1 -36h-393q4 -61 47 -98.5t107 -37.5q96 0 143 76l84 -60q-34 -54 -92 -85t-129 -31
q-66 0 -121 24.5t-89 68.5q-58 -93 -191 -93q-87 0 -137 43t-50 104zM613 417q-51 0 -92 -29t-52 -82h278q-9 52 -46.5 81.5t-87.5 29.5zM363 188v39q-80 -6 -127 -15q-46 -9 -65 -26t-19 -45q0 -29 23.5 -46t63.5 -17q54 0 89 27.5t35 82.5z" />
    <glyph glyph-name="ccedilla" unicode="&#xe7;" horiz-adv-x="562" 
d="M191 -204v58q30 -17 76 -17q65 0 65 38q0 29 -45 29q-24 0 -43 -10l-34 20l48 79q-97 15 -158.5 86.5t-61.5 170.5q0 111 75.5 185.5t188.5 74.5q76 0 138 -37.5t95 -100.5l-96 -52q-19 40 -55 64t-82 24q-66 0 -109 -45.5t-43 -112.5t43 -112.5t109 -45.5q46 0 82 24
t55 64l96 -52q-31 -61 -89.5 -98t-131.5 -40l-25 -41q21 7 43 7q36 0 59.5 -20.5t23.5 -56.5q0 -44 -39 -71t-94 -27q-56 0 -91 15z" />
    <glyph glyph-name="egrave" unicode="&#xe8;" horiz-adv-x="580" 
d="M257 560l-148 190h133l100 -190h-85zM39 250q0 111 74 185.5t187 74.5q103 0 172 -66t69 -182q0 -20 -1 -36h-393q4 -61 47.5 -98.5t106.5 -37.5q98 0 143 76l84 -60q-74 -116 -228 -116q-114 0 -187.5 73t-73.5 187zM296 417q-51 0 -92 -29t-52 -82h278
q-9 52 -46.5 81.5t-87.5 29.5z" />
    <glyph glyph-name="eacute" unicode="&#xe9;" horiz-adv-x="580" 
d="M262 560l100 190h133l-148 -190h-85zM39 250q0 111 74 185.5t187 74.5q103 0 172 -66t69 -182q0 -20 -1 -36h-393q4 -61 47.5 -98.5t106.5 -37.5q98 0 143 76l84 -60q-74 -116 -228 -116q-114 0 -187.5 73t-73.5 187zM296 417q-51 0 -92 -29t-52 -82h278
q-9 52 -46.5 81.5t-87.5 29.5z" />
    <glyph glyph-name="ecircumflex" unicode="&#xea;" horiz-adv-x="580" 
d="M301 756l166 -100v-93l-166 99l-166 -99v93zM39 250q0 111 74 185.5t187 74.5q103 0 172 -66t69 -182q0 -20 -1 -36h-393q4 -61 47.5 -98.5t106.5 -37.5q98 0 143 76l84 -60q-74 -116 -228 -116q-114 0 -187.5 73t-73.5 187zM296 417q-51 0 -92 -29t-52 -82h278
q-9 52 -46.5 81.5t-87.5 29.5z" />
    <glyph glyph-name="edieresis" unicode="&#xeb;" horiz-adv-x="580" 
d="M252 653q0 -27 -19 -46.5t-46 -19.5q-28 0 -47.5 19.5t-19.5 46.5q0 28 19.5 47.5t47.5 19.5q27 0 46 -19.5t19 -47.5zM482 653q0 -27 -19 -46.5t-47 -19.5q-27 0 -46.5 19.5t-19.5 46.5q0 28 19.5 47.5t46.5 19.5q28 0 47 -19.5t19 -47.5zM39 250q0 111 74 185.5
t187 74.5q103 0 172 -66t69 -182q0 -20 -1 -36h-393q4 -61 47.5 -98.5t106.5 -37.5q98 0 143 76l84 -60q-74 -116 -228 -116q-114 0 -187.5 73t-73.5 187zM296 417q-51 0 -92 -29t-52 -82h278q-9 52 -46.5 81.5t-87.5 29.5z" />
    <glyph glyph-name="igrave" unicode="&#xec;" horiz-adv-x="258" 
d="M86 560l-148 190h133l100 -190h-85zM74 0v500h110v-500h-110z" />
    <glyph glyph-name="iacute" unicode="&#xed;" horiz-adv-x="258" 
d="M91 560l100 190h133l-148 -190h-85zM74 0v500h110v-500h-110z" />
    <glyph glyph-name="icircumflex" unicode="&#xee;" horiz-adv-x="258" 
d="M129 756l166 -100v-93l-166 99l-166 -99v93zM74 0v500h110v-500h-110z" />
    <glyph glyph-name="idieresis" unicode="&#xef;" horiz-adv-x="258" 
d="M100 655q0 -28 -20 -48t-48 -20t-47.5 20t-19.5 48t19.5 47.5t47.5 19.5t48 -19.5t20 -47.5zM293 655q0 -28 -20 -48t-48 -20t-47.5 20t-19.5 48t19.5 47.5t47.5 19.5t48 -19.5t20 -47.5zM74 0v500h110v-500h-110z" />
    <glyph glyph-name="eth" unicode="&#xf0;" horiz-adv-x="601" 
d="M470 569h-67l108 -162q52 -80 52 -157q0 -108 -76 -184t-187 -76q-110 0 -186 76t-76 184q0 112 77.5 185t177.5 73q9 0 29 -2l-41 63h-140v78h88l-68 103h121l69 -103h119v-78zM150 250q0 -68 42 -113t108 -45t108.5 45.5t42.5 112.5t-42.5 112.5t-108.5 45.5t-108 -45
t-42 -113z" />
    <glyph glyph-name="ntilde" unicode="&#xf1;" horiz-adv-x="594" 
d="M119 583l4 22q7 46 38.5 74t72.5 28q31 0 74.5 -22.5t55.5 -22.5q32 0 44 46h72l-4 -22q-7 -47 -38.5 -75t-72.5 -28q-31 0 -74.5 22.5t-55.5 22.5q-32 0 -44 -45h-72zM74 0v500h110v-68q47 78 152 78q87 0 139 -57t52 -152v-301h-110v283q0 59 -28 93t-76 34
q-57 0 -93 -43t-36 -121v-246h-110z" />
    <glyph glyph-name="ograve" unicode="&#xf2;" horiz-adv-x="599" 
d="M256 560l-148 190h133l100 -190h-85zM562 250q0 -109 -75.5 -184.5t-186.5 -75.5t-186.5 75.5t-75.5 184.5t75.5 184.5t186.5 75.5t186.5 -75.5t75.5 -184.5zM149 250q0 -67 42.5 -112.5t108.5 -45.5q65 0 107.5 45.5t42.5 112.5t-42.5 112.5t-107.5 45.5
q-66 0 -108.5 -45.5t-42.5 -112.5z" />
    <glyph glyph-name="oacute" unicode="&#xf3;" horiz-adv-x="599" 
d="M261 560l100 190h133l-148 -190h-85zM562 250q0 -109 -75.5 -184.5t-186.5 -75.5t-186.5 75.5t-75.5 184.5t75.5 184.5t186.5 75.5t186.5 -75.5t75.5 -184.5zM149 250q0 -67 42.5 -112.5t108.5 -45.5q65 0 107.5 45.5t42.5 112.5t-42.5 112.5t-107.5 45.5
q-66 0 -108.5 -45.5t-42.5 -112.5z" />
    <glyph glyph-name="ocircumflex" unicode="&#xf4;" horiz-adv-x="599" 
d="M300 756l166 -100v-93l-166 99l-166 -99v93zM562 250q0 -109 -75.5 -184.5t-186.5 -75.5t-186.5 75.5t-75.5 184.5t75.5 184.5t186.5 75.5t186.5 -75.5t75.5 -184.5zM149 250q0 -67 42.5 -112.5t108.5 -45.5q65 0 107.5 45.5t42.5 112.5t-42.5 112.5t-107.5 45.5
q-66 0 -108.5 -45.5t-42.5 -112.5z" />
    <glyph glyph-name="otilde" unicode="&#xf5;" horiz-adv-x="599" 
d="M119 583l4 22q7 46 38.5 74t72.5 28q31 0 74.5 -22.5t55.5 -22.5q32 0 44 46h72l-4 -22q-7 -47 -38.5 -75t-72.5 -28q-31 0 -74.5 22.5t-55.5 22.5q-32 0 -44 -45h-72zM562 250q0 -109 -75.5 -184.5t-186.5 -75.5t-186.5 75.5t-75.5 184.5t75.5 184.5t186.5 75.5
t186.5 -75.5t75.5 -184.5zM149 250q0 -67 42.5 -112.5t108.5 -45.5q65 0 107.5 45.5t42.5 112.5t-42.5 112.5t-107.5 45.5q-66 0 -108.5 -45.5t-42.5 -112.5z" />
    <glyph glyph-name="odieresis" unicode="&#xf6;" horiz-adv-x="599" 
d="M251 653q0 -27 -19 -46.5t-46 -19.5q-28 0 -47.5 19.5t-19.5 46.5q0 28 19.5 47.5t47.5 19.5q27 0 46 -19.5t19 -47.5zM481 653q0 -27 -19 -46.5t-47 -19.5q-27 0 -46.5 19.5t-19.5 46.5q0 28 19.5 47.5t46.5 19.5q28 0 47 -19.5t19 -47.5zM562 250q0 -109 -75.5 -184.5
t-186.5 -75.5t-186.5 75.5t-75.5 184.5t75.5 184.5t186.5 75.5t186.5 -75.5t75.5 -184.5zM149 250q0 -67 42.5 -112.5t108.5 -45.5q65 0 107.5 45.5t42.5 112.5t-42.5 112.5t-107.5 45.5q-66 0 -108.5 -45.5t-42.5 -112.5z" />
    <glyph glyph-name="oslash" unicode="&#xf8;" horiz-adv-x="608" 
d="M567 250q0 -109 -75.5 -184.5t-186.5 -75.5q-92 0 -162 54l-54 -54l-42 43l53 53q-57 71 -57 164q0 109 75.5 184.5t186.5 75.5q90 0 161 -53l53 53l42 -42l-52 -53q58 -73 58 -165zM154 250q0 -49 23 -86l215 217q-38 27 -87 27q-66 0 -108.5 -45.5t-42.5 -112.5z
M455 250q0 49 -23 87l-215 -218q38 -27 88 -27q65 0 107.5 45.5t42.5 112.5z" />
    <glyph glyph-name="ugrave" unicode="&#xf9;" horiz-adv-x="583" 
d="M244 560l-148 190h133l100 -190h-85zM67 201v299h110v-281q0 -60 26 -94.5t74 -34.5q55 0 88.5 43t33.5 121v246h110v-500h-110v68q-45 -78 -146 -78q-86 0 -136 57.5t-50 153.5z" />
    <glyph glyph-name="uacute" unicode="&#xfa;" horiz-adv-x="583" 
d="M250 560l100 190h133l-148 -190h-85zM67 201v299h110v-281q0 -60 26 -94.5t74 -34.5q55 0 88.5 43t33.5 121v246h110v-500h-110v68q-45 -78 -146 -78q-86 0 -136 57.5t-50 153.5z" />
    <glyph glyph-name="ucircumflex" unicode="&#xfb;" horiz-adv-x="583" 
d="M288 756l166 -100v-93l-166 99l-166 -99v93zM67 201v299h110v-281q0 -60 26 -94.5t74 -34.5q55 0 88.5 43t33.5 121v246h110v-500h-110v68q-45 -78 -146 -78q-86 0 -136 57.5t-50 153.5z" />
    <glyph glyph-name="udieresis" unicode="&#xfc;" horiz-adv-x="583" 
d="M239 653q0 -27 -19 -46.5t-46 -19.5q-28 0 -47.5 19.5t-19.5 46.5q0 28 19.5 47.5t47.5 19.5q27 0 46 -19.5t19 -47.5zM469 653q0 -27 -19 -46.5t-47 -19.5q-27 0 -46.5 19.5t-19.5 46.5q0 28 19.5 47.5t46.5 19.5q28 0 47 -19.5t19 -47.5zM67 201v299h110v-281
q0 -60 26 -94.5t74 -34.5q55 0 88.5 43t33.5 121v246h110v-500h-110v68q-45 -78 -146 -78q-86 0 -136 57.5t-50 153.5z" />
    <glyph glyph-name="yacute" unicode="&#xfd;" horiz-adv-x="558" 
d="M243 560l100 190h133l-148 -190h-85zM234 -209h-121l107 236l-215 473h121l154 -354l153 354h122z" />
    <glyph glyph-name="thorn" unicode="&#xfe;" horiz-adv-x="624" 
d="M74 -209v959h110v-317q23 32 66.5 54.5t94.5 22.5q102 0 171.5 -76t69.5 -184t-69.5 -184t-171.5 -76q-51 0 -94.5 22.5t-66.5 54.5v-276h-110zM474 250q0 68 -42 114t-107 46q-66 0 -108 -46t-42 -114t42 -114t108 -46q65 0 107 46t42 114z" />
    <glyph glyph-name="ydieresis" unicode="&#xff;" horiz-adv-x="558" 
d="M232 653q0 -27 -19 -46.5t-46 -19.5q-28 0 -47.5 19.5t-19.5 46.5q0 28 19.5 47.5t47.5 19.5q27 0 46 -19.5t19 -47.5zM462 653q0 -27 -19 -46.5t-47 -19.5q-27 0 -46.5 19.5t-19.5 46.5q0 28 19.5 47.5t46.5 19.5q28 0 47 -19.5t19 -47.5zM234 -209h-121l107 236
l-215 473h121l154 -354l153 354h122z" />
    <glyph glyph-name="Amacron" unicode="&#x100;" horiz-adv-x="730" 
d="M199 798v82h332v-82h-332zM4 0l310 710h102l310 -710h-122l-81 186h-318l-80 -186h-121zM250 290h228l-114 263z" />
    <glyph glyph-name="amacron" unicode="&#x101;" horiz-adv-x="624" 
d="M154 628v82h332v-82h-332zM38 250q0 108 69.5 184t171.5 76q51 0 94 -22.5t66 -54.5v67h110v-500h-110v67q-23 -32 -66 -54.5t-94 -22.5q-102 0 -171.5 76t-69.5 184zM448 250q0 68 -41.5 114t-107.5 46t-107.5 -46t-41.5 -114t41.5 -114t107.5 -46t107.5 46t41.5 114z
" />
    <glyph glyph-name="Abreve" unicode="&#x102;" horiz-adv-x="730" 
d="M199 921h68q0 -46 28 -72t70 -26t70 26t28 72h68q0 -75 -48 -120.5t-118 -45.5t-118 45.5t-48 120.5zM4 0l310 710h102l310 -710h-122l-81 186h-318l-80 -186h-121zM250 290h228l-114 263z" />
    <glyph glyph-name="abreve" unicode="&#x103;" horiz-adv-x="624" 
d="M486 735q0 -75 -48 -120.5t-118 -45.5t-118 45.5t-48 120.5v15h68v-15q0 -46 28 -72.5t70 -26.5t70 26.5t28 72.5v15h68v-15zM38 250q0 108 69.5 184t171.5 76q51 0 94 -22.5t66 -54.5v67h110v-500h-110v67q-23 -32 -66 -54.5t-94 -22.5q-102 0 -171.5 76t-69.5 184z
M448 250q0 68 -41.5 114t-107.5 46t-107.5 -46t-41.5 -114t41.5 -114t107.5 -46t107.5 46t41.5 114z" />
    <glyph glyph-name="Aogonek" unicode="&#x104;" horiz-adv-x="730" 
d="M4 0l310 710h102l310 -710q-89 -50 -89 -101q0 -29 36 -29q30 0 53 19v-81q-33 -27 -91 -27q-44 0 -73 26.5t-29 67.5q0 69 71 125l-81 186h-318l-80 -186h-121zM250 290h228l-114 263z" />
    <glyph glyph-name="aogonek" unicode="&#x105;" horiz-adv-x="624" 
d="M38 250q0 108 69.5 184t171.5 76q51 0 94 -22.5t66 -54.5v67h110v-500q-90 -50 -90 -104q0 -34 37 -34q28 0 53 19v-73q-33 -27 -87 -27q-44 0 -72 26t-28 67q0 66 77 126v67q-23 -32 -66 -54.5t-94 -22.5q-102 0 -171.5 76t-69.5 184zM448 250q0 68 -41.5 114t-107.5 46
t-107.5 -46t-41.5 -114t41.5 -114t107.5 -46t107.5 46t41.5 114z" />
    <glyph glyph-name="Cacute" unicode="&#x106;" horiz-adv-x="754" 
d="M374 770l75 157h129l-118 -157h-86zM42 355q0 154 107 260.5t260 106.5q103 0 187.5 -48.5t132.5 -131.5l-101 -58q-76 125 -219 125q-105 0 -177 -74t-72 -180t72 -180t177 -74q143 0 219 125l101 -58q-48 -83 -132.5 -131.5t-187.5 -48.5q-153 0 -260 106.5t-107 260.5
z" />
    <glyph glyph-name="cacute" unicode="&#x107;" horiz-adv-x="562" 
d="M263 560l100 190h133l-148 -190h-85zM535 128q-33 -63 -95 -100.5t-138 -37.5q-113 0 -188.5 74.5t-75.5 185.5t75.5 185.5t188.5 74.5q76 0 138 -37.5t95 -100.5l-96 -52q-19 40 -55 64t-82 24q-66 0 -109 -45.5t-43 -112.5t43 -112.5t109 -45.5q46 0 82 24t55 64z" />
    <glyph glyph-name="Ccircumflex" unicode="&#x108;" horiz-adv-x="754" 
d="M239 766v92l170 80l170 -80v-92l-170 80zM42 355q0 154 107 260.5t260 106.5q103 0 187.5 -48.5t132.5 -131.5l-101 -58q-76 125 -219 125q-105 0 -177 -74t-72 -180t72 -180t177 -74q143 0 219 125l101 -58q-48 -83 -132.5 -131.5t-187.5 -48.5q-153 0 -260 106.5
t-107 260.5z" />
    <glyph glyph-name="ccircumflex" unicode="&#x109;" horiz-adv-x="562" 
d="M302 756l166 -100v-93l-166 99l-166 -99v93zM535 128q-33 -63 -95 -100.5t-138 -37.5q-113 0 -188.5 74.5t-75.5 185.5t75.5 185.5t188.5 74.5q76 0 138 -37.5t95 -100.5l-96 -52q-19 40 -55 64t-82 24q-66 0 -109 -45.5t-43 -112.5t43 -112.5t109 -45.5q46 0 82 24
t55 64z" />
    <glyph glyph-name="Cdotaccent" unicode="&#x10a;" horiz-adv-x="754" 
d="M475 845q0 -27 -19.5 -46.5t-46.5 -19.5q-28 0 -47.5 19.5t-19.5 46.5q0 28 19.5 47.5t47.5 19.5q27 0 46.5 -19.5t19.5 -47.5zM42 355q0 154 107 260.5t260 106.5q103 0 187.5 -48.5t132.5 -131.5l-101 -58q-76 125 -219 125q-105 0 -177 -74t-72 -180t72 -180t177 -74
q143 0 219 125l101 -58q-48 -83 -132.5 -131.5t-187.5 -48.5q-153 0 -260 106.5t-107 260.5z" />
    <glyph glyph-name="cdotaccent" unicode="&#x10b;" horiz-adv-x="562" 
d="M368 653q0 -27 -19.5 -46.5t-46.5 -19.5q-28 0 -47.5 19.5t-19.5 46.5q0 28 19.5 47.5t47.5 19.5q27 0 46.5 -19.5t19.5 -47.5zM535 128q-33 -63 -95 -100.5t-138 -37.5q-113 0 -188.5 74.5t-75.5 185.5t75.5 185.5t188.5 74.5q76 0 138 -37.5t95 -100.5l-96 -52
q-19 40 -55 64t-82 24q-66 0 -109 -45.5t-43 -112.5t43 -112.5t109 -45.5q46 0 82 24t55 64z" />
    <glyph glyph-name="Ccaron" unicode="&#x10c;" horiz-adv-x="754" 
d="M409 766l-170 80v92l170 -80l170 80v-92zM42 355q0 154 107 260.5t260 106.5q103 0 187.5 -48.5t132.5 -131.5l-101 -58q-76 125 -219 125q-105 0 -177 -74t-72 -180t72 -180t177 -74q143 0 219 125l101 -58q-48 -83 -132.5 -131.5t-187.5 -48.5q-153 0 -260 106.5
t-107 260.5z" />
    <glyph glyph-name="ccaron" unicode="&#x10d;" horiz-adv-x="562" 
d="M302 563l-166 99v94l166 -100l166 100v-94zM535 128q-33 -63 -95 -100.5t-138 -37.5q-113 0 -188.5 74.5t-75.5 185.5t75.5 185.5t188.5 74.5q76 0 138 -37.5t95 -100.5l-96 -52q-19 40 -55 64t-82 24q-66 0 -109 -45.5t-43 -112.5t43 -112.5t109 -45.5q46 0 82 24t55 64
z" />
    <glyph glyph-name="Dcaron" unicode="&#x10e;" horiz-adv-x="719" 
d="M340 766l-170 80v92l170 -80l170 80v-92zM87 0v710h218q158 0 265 -102t107 -253t-107 -253t-265 -102h-218zM204 109h101q112 0 182.5 70t70.5 176t-70.5 176t-182.5 70h-101v-492z" />
    <glyph glyph-name="dcaron" unicode="&#x10f;" horiz-adv-x="624" 
d="M38 250q0 108 69.5 184t171.5 76q51 0 94 -22.5t66 -54.5v317h110v-750h-110v67q-23 -32 -66 -54.5t-94 -22.5q-102 0 -171.5 76t-69.5 184zM578 587l22 163h110l-57 -163h-75zM448 250q0 68 -41.5 114t-107.5 46t-107.5 -46t-41.5 -114t41.5 -114t107.5 -46t107.5 46
t41.5 114z" />
    <glyph glyph-name="Dcroat" unicode="&#x110;" horiz-adv-x="730" 
d="M98 0v308h-73v102h73v300h218q158 0 265 -102t107 -253t-107 -253t-265 -102h-218zM215 109h101q112 0 182.5 70t70.5 176t-70.5 176t-182.5 70h-101v-191h145v-102h-145v-199z" />
    <glyph glyph-name="dcroat" unicode="&#x111;" horiz-adv-x="624" 
d="M38 250q0 108 69.5 184t171.5 76q51 0 94 -22.5t66 -54.5v139h-153v78h153v100h110v-100h67v-78h-67v-572h-110v67q-23 -32 -66 -54.5t-94 -22.5q-102 0 -171.5 76t-69.5 184zM448 250q0 68 -41.5 114t-107.5 46t-107.5 -46t-41.5 -114t41.5 -114t107.5 -46t107.5 46
t41.5 114z" />
    <glyph glyph-name="Emacron" unicode="&#x112;" horiz-adv-x="562" 
d="M134 798v82h332v-82h-332zM87 0v710h427v-112h-310v-182h250v-112h-250v-192h310v-112h-427z" />
    <glyph glyph-name="emacron" unicode="&#x113;" horiz-adv-x="580" 
d="M135 628v82h332v-82h-332zM39 250q0 111 74 185.5t187 74.5q103 0 172 -66t69 -182q0 -20 -1 -36h-393q4 -61 47.5 -98.5t106.5 -37.5q98 0 143 76l84 -60q-74 -116 -228 -116q-114 0 -187.5 73t-73.5 187zM296 417q-51 0 -92 -29t-52 -82h278q-9 52 -46.5 81.5
t-87.5 29.5z" />
    <glyph glyph-name="Ebreve" unicode="&#x114;" horiz-adv-x="562" 
d="M134 921h68q0 -46 28 -72t70 -26t70 26t28 72h68q0 -75 -48 -120.5t-118 -45.5t-118 45.5t-48 120.5zM87 0v710h427v-112h-310v-182h250v-112h-250v-192h310v-112h-427z" />
    <glyph glyph-name="ebreve" unicode="&#x115;" horiz-adv-x="580" 
d="M467 735q0 -75 -48 -120.5t-118 -45.5t-118 45.5t-48 120.5v15h68v-15q0 -46 28 -72.5t70 -26.5t70 26.5t28 72.5v15h68v-15zM39 250q0 111 74 185.5t187 74.5q103 0 172 -66t69 -182q0 -20 -1 -36h-393q4 -61 47.5 -98.5t106.5 -37.5q98 0 143 76l84 -60
q-74 -116 -228 -116q-114 0 -187.5 73t-73.5 187zM296 417q-51 0 -92 -29t-52 -82h278q-9 52 -46.5 81.5t-87.5 29.5z" />
    <glyph glyph-name="Edotaccent" unicode="&#x116;" horiz-adv-x="562" 
d="M366 845q0 -27 -19.5 -46.5t-46.5 -19.5q-28 0 -47.5 19.5t-19.5 46.5q0 28 19.5 47.5t47.5 19.5q27 0 46.5 -19.5t19.5 -47.5zM87 0v710h427v-112h-310v-182h250v-112h-250v-192h310v-112h-427z" />
    <glyph glyph-name="edotaccent" unicode="&#x117;" horiz-adv-x="580" 
d="M367 653q0 -27 -19.5 -46.5t-46.5 -19.5q-28 0 -47.5 19.5t-19.5 46.5q0 28 19.5 47.5t47.5 19.5q27 0 46.5 -19.5t19.5 -47.5zM39 250q0 111 74 185.5t187 74.5q103 0 172 -66t69 -182q0 -20 -1 -36h-393q4 -61 47.5 -98.5t106.5 -37.5q98 0 143 76l84 -60
q-74 -116 -228 -116q-114 0 -187.5 73t-73.5 187zM296 417q-51 0 -92 -29t-52 -82h278q-9 52 -46.5 81.5t-87.5 29.5z" />
    <glyph glyph-name="Eogonek" unicode="&#x118;" horiz-adv-x="562" 
d="M87 0v710h427v-112h-310v-182h250v-112h-250v-192h310v-112q-89 -50 -89 -101q0 -29 36 -29q30 0 53 19v-81q-33 -27 -90 -27q-45 0 -74 26.5t-29 67.5q0 65 76 125h-310z" />
    <glyph glyph-name="eogonek" unicode="&#x119;" horiz-adv-x="580" 
d="M330 -119q0 61 55 120q-39 -11 -85 -11q-114 0 -187.5 73t-73.5 187q0 111 74 185.5t187 74.5q103 0 172 -66t69 -182q0 -20 -1 -36h-393q4 -61 47.5 -98.5t106.5 -37.5q98 0 143 76l84 -60q-8 -14 -24 -35q-77 -106 -77 -160q0 -21 14 -35t37 -14q25 0 50 19v-73
q-33 -27 -87 -27q-48 0 -79.5 28.5t-31.5 71.5zM296 417q-51 0 -92 -29t-52 -82h278q-9 52 -46.5 81.5t-87.5 29.5z" />
    <glyph glyph-name="Ecaron" unicode="&#x11a;" horiz-adv-x="562" 
d="M300 766l-170 80v92l170 -80l170 80v-92zM87 0v710h427v-112h-310v-182h250v-112h-250v-192h310v-112h-427z" />
    <glyph glyph-name="ecaron" unicode="&#x11b;" horiz-adv-x="580" 
d="M301 563l-166 99v94l166 -100l166 100v-94zM39 250q0 111 74 185.5t187 74.5q103 0 172 -66t69 -182q0 -20 -1 -36h-393q4 -61 47.5 -98.5t106.5 -37.5q98 0 143 76l84 -60q-74 -116 -228 -116q-114 0 -187.5 73t-73.5 187zM296 417q-51 0 -92 -29t-52 -82h278
q-9 52 -46.5 81.5t-87.5 29.5z" />
    <glyph glyph-name="Gcircumflex" unicode="&#x11c;" horiz-adv-x="764" 
d="M246 766v92l170 80l170 -80v-92l-170 80zM709 90q-46 -50 -122 -76t-161 -26q-166 0 -275 105.5t-109 261.5q0 155 106.5 261t265.5 106q171 0 275 -107l-80 -83q-77 77 -195 77q-110 0 -182 -73.5t-72 -180.5q0 -110 73 -182t192 -72q114 0 170 46v158h-178v110h292
v-325z" />
    <glyph glyph-name="gcircumflex" unicode="&#x11d;" horiz-adv-x="623" 
d="M317 756l166 -100v-93l-166 99l-166 -99v93zM549 34q0 -125 -71.5 -189t-188.5 -64q-72 0 -134.5 25t-99.5 67l67 79q67 -73 166 -73q65 0 108 41.5t43 114.5v46q-23 -34 -66.5 -56t-93.5 -22q-101 0 -170.5 73.5t-69.5 180.5q0 106 69.5 179.5t170.5 73.5
q50 0 93.5 -21.5t66.5 -55.5v67h110v-466zM150 257q0 -66 42.5 -109.5t106.5 -43.5t106.5 43.5t42.5 109.5t-42.5 109.5t-106.5 43.5t-106.5 -43.5t-42.5 -109.5z" />
    <glyph glyph-name="Gbreve" unicode="&#x11e;" horiz-adv-x="764" 
d="M250 921h68q0 -46 28 -72t70 -26t70 26t28 72h68q0 -75 -48 -120.5t-118 -45.5t-118 45.5t-48 120.5zM709 90q-46 -50 -122 -76t-161 -26q-166 0 -275 105.5t-109 261.5q0 155 106.5 261t265.5 106q171 0 275 -107l-80 -83q-77 77 -195 77q-110 0 -182 -73.5t-72 -180.5
q0 -110 73 -182t192 -72q114 0 170 46v158h-178v110h292v-325z" />
    <glyph glyph-name="gbreve" unicode="&#x11f;" horiz-adv-x="623" 
d="M483 735q0 -75 -48 -120.5t-118 -45.5t-118 45.5t-48 120.5v15h68v-15q0 -46 28 -72.5t70 -26.5t70 26.5t28 72.5v15h68v-15zM549 34q0 -125 -71.5 -189t-188.5 -64q-72 0 -134.5 25t-99.5 67l67 79q67 -73 166 -73q65 0 108 41.5t43 114.5v46q-23 -34 -66.5 -56
t-93.5 -22q-101 0 -170.5 73.5t-69.5 180.5q0 106 69.5 179.5t170.5 73.5q50 0 93.5 -21.5t66.5 -55.5v67h110v-466zM150 257q0 -66 42.5 -109.5t106.5 -43.5t106.5 43.5t42.5 109.5t-42.5 109.5t-106.5 43.5t-106.5 -43.5t-42.5 -109.5z" />
    <glyph glyph-name="Gdotaccent" unicode="&#x120;" horiz-adv-x="764" 
d="M482 845q0 -27 -19.5 -46.5t-46.5 -19.5q-28 0 -47.5 19.5t-19.5 46.5q0 28 19.5 47.5t47.5 19.5q27 0 46.5 -19.5t19.5 -47.5zM709 90q-46 -50 -122 -76t-161 -26q-166 0 -275 105.5t-109 261.5q0 155 106.5 261t265.5 106q171 0 275 -107l-80 -83q-77 77 -195 77
q-110 0 -182 -73.5t-72 -180.5q0 -110 73 -182t192 -72q114 0 170 46v158h-178v110h292v-325z" />
    <glyph glyph-name="gdotaccent" unicode="&#x121;" horiz-adv-x="623" 
d="M383 653q0 -27 -19.5 -46.5t-46.5 -19.5q-28 0 -47.5 19.5t-19.5 46.5q0 28 19.5 47.5t47.5 19.5q27 0 46.5 -19.5t19.5 -47.5zM549 34q0 -125 -71.5 -189t-188.5 -64q-72 0 -134.5 25t-99.5 67l67 79q67 -73 166 -73q65 0 108 41.5t43 114.5v46q-23 -34 -66.5 -56
t-93.5 -22q-101 0 -170.5 73.5t-69.5 180.5q0 106 69.5 179.5t170.5 73.5q50 0 93.5 -21.5t66.5 -55.5v67h110v-466zM150 257q0 -66 42.5 -109.5t106.5 -43.5t106.5 43.5t42.5 109.5t-42.5 109.5t-106.5 43.5t-106.5 -43.5t-42.5 -109.5z" />
    <glyph glyph-name="Gcommaaccent" unicode="&#x122;" horiz-adv-x="764" 
d="M709 90q-46 -50 -122 -76t-161 -26q-166 0 -275 105.5t-109 261.5q0 155 106.5 261t265.5 106q171 0 275 -107l-80 -83q-77 77 -195 77q-110 0 -182 -73.5t-72 -180.5q0 -110 73 -182t192 -72q114 0 170 46v158h-178v110h292v-325zM352 -287l39 90q-38 18 -38 60
q0 27 19 46.5t47 19.5q27 0 46.5 -19.5t19.5 -46.5q0 -21 -13 -41l-68 -109h-52z" />
    <glyph glyph-name="gcommaaccent" unicode="&#x123;" horiz-adv-x="623" 
d="M383 654q0 -27 -19.5 -47t-46.5 -20t-46.5 20t-19.5 47q0 20 13 40l68 109h52l-39 -90q38 -18 38 -59zM549 34q0 -125 -71.5 -189t-188.5 -64q-72 0 -134.5 25t-99.5 67l67 79q67 -73 166 -73q65 0 108 41.5t43 114.5v46q-23 -34 -66.5 -56t-93.5 -22q-101 0 -170.5 73.5
t-69.5 180.5q0 106 69.5 179.5t170.5 73.5q50 0 93.5 -21.5t66.5 -55.5v67h110v-466zM150 257q0 -66 42.5 -109.5t106.5 -43.5t106.5 43.5t42.5 109.5t-42.5 109.5t-106.5 43.5t-106.5 -43.5t-42.5 -109.5z" />
    <glyph glyph-name="Hcircumflex" unicode="&#x124;" horiz-adv-x="760" 
d="M210 766v92l170 80l170 -80v-92l-170 80zM87 0v710h117v-294h351v294h117v-710h-117v305h-351v-305h-117z" />
    <glyph glyph-name="hcircumflex" unicode="&#x125;" horiz-adv-x="594" 
d="M143 766v92l170 80l170 -80v-92l-170 80zM74 0v750h110v-318q47 78 152 78q87 0 139 -57t52 -152v-301h-110v283q0 59 -28 93t-76 34q-57 0 -93 -43t-36 -121v-246h-110z" />
    <glyph glyph-name="Hbar" unicode="&#x126;" horiz-adv-x="781" 
d="M98 0v521h-73v85h73v104h117v-104h351v104h117v-104h73v-85h-73v-521h-117v305h-351v-305h-117zM215 416h351v105h-351v-105z" />
    <glyph glyph-name="hbar" unicode="&#x127;" horiz-adv-x="594" 
d="M74 0v572h-67v78h67v100h110v-100h153v-78h-153v-140q47 78 152 78q87 0 139 -57t52 -152v-301h-110v283q0 59 -28 93t-76 34q-57 0 -93 -43t-36 -121v-246h-110z" />
    <glyph glyph-name="Itilde" unicode="&#x128;" horiz-adv-x="291" 
d="M-34 782l3 22q8 47 39.5 75t72.5 28q30 0 73.5 -22.5t56.5 -22.5q33 0 43 45h72l-3 -22q-8 -46 -39.5 -74t-72.5 -28q-31 0 -74.5 22.5t-55.5 22.5q-32 0 -44 -46h-71zM87 0v710h117v-710h-117z" />
    <glyph glyph-name="itilde" unicode="&#x129;" horiz-adv-x="258" 
d="M-52 583l4 22q7 46 38.5 74t72.5 28q31 0 74.5 -22.5t55.5 -22.5q32 0 44 46h72l-4 -22q-7 -47 -38.5 -75t-72.5 -28q-31 0 -74.5 22.5t-55.5 22.5q-32 0 -44 -45h-72zM74 0v500h110v-500h-110z" />
    <glyph glyph-name="Imacron" unicode="&#x12a;" horiz-adv-x="291" 
d="M-20 798v82h332v-82h-332zM87 0v710h117v-710h-117z" />
    <glyph glyph-name="imacron" unicode="&#x12b;" horiz-adv-x="258" 
d="M-37 628v82h332v-82h-332zM74 0v500h110v-500h-110z" />
    <glyph glyph-name="Ibreve" unicode="&#x12c;" horiz-adv-x="291" 
d="M-20 921h68q0 -46 28 -72t70 -26t70 26t28 72h68q0 -75 -48 -120.5t-118 -45.5t-118 45.5t-48 120.5zM87 0v710h117v-710h-117z" />
    <glyph glyph-name="ibreve" unicode="&#x12d;" horiz-adv-x="258" 
d="M295 735q0 -75 -48 -120.5t-118 -45.5t-118 45.5t-48 120.5v15h68v-15q0 -46 28 -72.5t70 -26.5t70 26.5t28 72.5v15h68v-15zM74 0v500h110v-500h-110z" />
    <glyph glyph-name="Iogonek" unicode="&#x12e;" horiz-adv-x="291" 
d="M204 -192q-33 -27 -90 -27q-45 0 -74 26.5t-29 67.5q0 65 76 125v710h117v-710q-89 -50 -89 -101q0 -29 36 -29q30 0 53 19v-81z" />
    <glyph glyph-name="iogonek" unicode="&#x12f;" horiz-adv-x="258" 
d="M202 683q0 -31 -21 -52.5t-52 -21.5q-30 0 -52 21.5t-22 52.5q0 30 22 51.5t52 21.5q31 0 52 -21.5t21 -51.5zM-3 -126q0 66 77 126v500h110v-500q-90 -50 -90 -104q0 -34 37 -34q28 0 53 19v-73q-33 -27 -87 -27q-44 0 -72 26t-28 67z" />
    <glyph glyph-name="Idotaccent" unicode="&#x130;" horiz-adv-x="291" 
d="M212 845q0 -27 -19.5 -46.5t-46.5 -19.5q-28 0 -47.5 19.5t-19.5 46.5q0 28 19.5 47.5t47.5 19.5q27 0 46.5 -19.5t19.5 -47.5zM87 0v710h117v-710h-117z" />
    <glyph glyph-name="dotlessi" unicode="&#x131;" horiz-adv-x="258" 
d="M74 0v500h110v-500h-110z" />
    <glyph glyph-name="Jcircumflex" unicode="&#x134;" horiz-adv-x="537" 
d="M227 766v92l170 80l170 -80v-92l-170 80zM456 195q0 -104 -62 -155.5t-155 -51.5t-155.5 54.5t-62.5 154.5h116q0 -47 29.5 -73.5t72.5 -26.5t71.5 27t28.5 81v505h117v-515z" />
    <glyph glyph-name="jcircumflex" unicode="&#x135;" horiz-adv-x="266" 
d="M137 756l166 -100v-93l-166 99l-166 -99v93zM192 500v-553q0 -80 -47.5 -123t-120.5 -43q-28 0 -47 3v96q14 -2 27 -2q78 0 78 85v537h110z" />
    <glyph glyph-name="Kcommaaccent" unicode="&#x136;" horiz-adv-x="682" 
d="M87 0v710h116v-306l285 306h148l-315 -339l385 -371h-158l-345 332v-332h-116zM308 -287l39 90q-38 18 -38 60q0 27 19 46.5t47 19.5q27 0 46.5 -19.5t19.5 -46.5q0 -21 -13 -41l-68 -109h-52z" />
    <glyph glyph-name="kcommaaccent" unicode="&#x137;" horiz-adv-x="547" 
d="M74 0v750h110v-440l191 190h139l-223 -223l273 -277h-141l-239 242v-242h-110zM236 -287l39 90q-38 18 -38 60q0 27 19 46.5t47 19.5q27 0 46.5 -19.5t19.5 -46.5q0 -21 -13 -41l-68 -109h-52z" />
    <glyph glyph-name="Lacute" unicode="&#x139;" horiz-adv-x="549" 
d="M112 770l75 157h129l-118 -157h-86zM87 0v710h117v-598h325v-112h-442z" />
    <glyph glyph-name="lacute" unicode="&#x13a;" horiz-adv-x="258" 
d="M91 810l100 190h133l-148 -190h-85zM74 0v750h110v-750h-110z" />
    <glyph glyph-name="Lcommaaccent" unicode="&#x13b;" horiz-adv-x="549" 
d="M87 0v710h117v-598h325v-112h-442zM238 -287l39 90q-38 18 -38 60q0 27 19 46.5t47 19.5q27 0 46.5 -19.5t19.5 -46.5q0 -21 -13 -41l-68 -109h-52z" />
    <glyph glyph-name="lcommaaccent" unicode="&#x13c;" horiz-adv-x="258" 
d="M74 0v750h110v-750h-110zM62 -287l39 90q-38 18 -38 60q0 27 19 46.5t47 19.5q27 0 46.5 -19.5t19.5 -46.5q0 -21 -13 -41l-68 -109h-52z" />
    <glyph glyph-name="Lcaron" unicode="&#x13d;" horiz-adv-x="550" 
d="M291 587l22 163h110l-57 -163h-75zM87 0v710h117v-598h325v-112h-442z" />
    <glyph glyph-name="lcaron" unicode="&#x13e;" horiz-adv-x="258" 
d="M74 0v750h110v-750h-110zM213 587l22 163h110l-57 -163h-75z" />
    <glyph glyph-name="Ldot" unicode="&#x13f;" horiz-adv-x="555" 
d="M87 0v710h117v-598h325v-112h-442zM486 411q0 -27 -19.5 -46.5t-46.5 -19.5q-28 0 -47.5 19.5t-19.5 46.5q0 28 19.5 47.5t47.5 19.5q27 0 46.5 -19.5t19.5 -47.5z" />
    <glyph glyph-name="ldot" unicode="&#x140;" horiz-adv-x="393" 
d="M74 0v750h110v-750h-110zM392 374q0 -27 -19.5 -46.5t-46.5 -19.5q-28 0 -47.5 19.5t-19.5 46.5q0 28 19.5 47.5t47.5 19.5q27 0 46.5 -19.5t19.5 -47.5z" />
    <glyph glyph-name="Lslash" unicode="&#x141;" horiz-adv-x="573" 
d="M110 0v257l-72 -44v99l72 44v354h117v-282l149 92v-99l-149 -92v-217h325v-112h-442z" />
    <glyph glyph-name="lslash" unicode="&#x142;" horiz-adv-x="334" 
d="M113 0v295l-76 -47v91l76 47v364h110v-296l77 47v-92l-77 -47v-362h-110z" />
    <glyph glyph-name="Nacute" unicode="&#x143;" horiz-adv-x="793" 
d="M359 770l75 157h129l-118 -157h-86zM706 0h-102l-400 511v-511h-117v710h102l399 -509v509h118v-710z" />
    <glyph glyph-name="nacute" unicode="&#x144;" horiz-adv-x="594" 
d="M262 560l100 190h133l-148 -190h-85zM74 0v500h110v-68q47 78 152 78q87 0 139 -57t52 -152v-301h-110v283q0 59 -28 93t-76 34q-57 0 -93 -43t-36 -121v-246h-110z" />
    <glyph glyph-name="Ncommaaccent" unicode="&#x145;" horiz-adv-x="793" 
d="M706 0h-102l-400 511v-511h-117v710h102l399 -509v509h118v-710zM331 -287l39 90q-38 18 -38 60q0 27 19 46.5t47 19.5q27 0 46.5 -19.5t19.5 -46.5q0 -21 -13 -41l-68 -109h-52z" />
    <glyph glyph-name="ncommaaccent" unicode="&#x146;" horiz-adv-x="594" 
d="M74 0v500h110v-68q47 78 152 78q87 0 139 -57t52 -152v-301h-110v283q0 59 -28 93t-76 34q-57 0 -93 -43t-36 -121v-246h-110zM233 -287l39 90q-38 18 -38 60q0 27 19 46.5t47 19.5q27 0 46.5 -19.5t19.5 -46.5q0 -21 -13 -41l-68 -109h-52z" />
    <glyph glyph-name="Ncaron" unicode="&#x147;" horiz-adv-x="793" 
d="M394 766l-170 80v92l170 -80l170 80v-92zM706 0h-102l-400 511v-511h-117v710h102l399 -509v509h118v-710z" />
    <glyph glyph-name="ncaron" unicode="&#x148;" horiz-adv-x="594" 
d="M300 563l-166 99v94l166 -100l166 100v-94zM74 0v500h110v-68q47 78 152 78q87 0 139 -57t52 -152v-301h-110v283q0 59 -28 93t-76 34q-57 0 -93 -43t-36 -121v-246h-110z" />
    <glyph glyph-name="Eng" unicode="&#x14a;" horiz-adv-x="793" 
d="M588 -27v47l-384 491v-511h-117v710h102l399 -509v509h118v-763q0 -81 -48 -123.5t-124 -42.5q-45 0 -81 12v105q29 -9 60 -9q39 0 57 19t18 65z" />
    <glyph glyph-name="eng" unicode="&#x14b;" horiz-adv-x="594" 
d="M74 0v500h110v-68q47 78 152 78q87 0 139 -57t52 -152v-349q0 -81 -48 -123.5t-123 -42.5q-32 0 -59 5v98q17 -3 35 -3q44 0 64.5 19.5t20.5 64.5v313q0 59 -28 93t-76 34q-57 0 -93 -43t-36 -121v-246h-110z" />
    <glyph glyph-name="Omacron" unicode="&#x14c;" horiz-adv-x="817" 
d="M243 798v82h332v-82h-332zM776 355q0 -153 -107 -260t-260 -107t-260 106.5t-107 260.5t107 260.5t260 106.5t260 -107t107 -260zM160 355q0 -106 72 -180t177 -74t176.5 74t71.5 180t-71.5 180t-176.5 74t-177 -74t-72 -180z" />
    <glyph glyph-name="omacron" unicode="&#x14d;" horiz-adv-x="599" 
d="M134 628v82h332v-82h-332zM562 250q0 -109 -75.5 -184.5t-186.5 -75.5t-186.5 75.5t-75.5 184.5t75.5 184.5t186.5 75.5t186.5 -75.5t75.5 -184.5zM149 250q0 -67 42.5 -112.5t108.5 -45.5q65 0 107.5 45.5t42.5 112.5t-42.5 112.5t-107.5 45.5q-66 0 -108.5 -45.5
t-42.5 -112.5z" />
    <glyph glyph-name="Obreve" unicode="&#x14e;" horiz-adv-x="817" 
d="M243 921h68q0 -46 28 -72t70 -26t70 26t28 72h68q0 -75 -48 -120.5t-118 -45.5t-118 45.5t-48 120.5zM776 355q0 -153 -107 -260t-260 -107t-260 106.5t-107 260.5t107 260.5t260 106.5t260 -107t107 -260zM160 355q0 -106 72 -180t177 -74t176.5 74t71.5 180t-71.5 180
t-176.5 74t-177 -74t-72 -180z" />
    <glyph glyph-name="obreve" unicode="&#x14f;" horiz-adv-x="599" 
d="M466 735q0 -75 -48 -120.5t-118 -45.5t-118 45.5t-48 120.5v15h68v-15q0 -46 28 -72.5t70 -26.5t70 26.5t28 72.5v15h68v-15zM562 250q0 -109 -75.5 -184.5t-186.5 -75.5t-186.5 75.5t-75.5 184.5t75.5 184.5t186.5 75.5t186.5 -75.5t75.5 -184.5zM149 250
q0 -67 42.5 -112.5t108.5 -45.5q65 0 107.5 45.5t42.5 112.5t-42.5 112.5t-107.5 45.5q-66 0 -108.5 -45.5t-42.5 -112.5z" />
    <glyph glyph-name="Ohungarumlaut" unicode="&#x150;" horiz-adv-x="817" 
d="M462 770l68 157h120l-116 -157h-72zM288 770l67 157h121l-116 -157h-72zM776 355q0 -153 -107 -260t-260 -107t-260 106.5t-107 260.5t107 260.5t260 106.5t260 -107t107 -260zM160 355q0 -106 72 -180t177 -74t176.5 74t71.5 180t-71.5 180t-176.5 74t-177 -74t-72 -180
z" />
    <glyph glyph-name="ohungarumlaut" unicode="&#x151;" horiz-adv-x="599" 
d="M346 560l68 190h120l-116 -190h-72zM172 560l67 190h121l-116 -190h-72zM562 250q0 -109 -75.5 -184.5t-186.5 -75.5t-186.5 75.5t-75.5 184.5t75.5 184.5t186.5 75.5t186.5 -75.5t75.5 -184.5zM149 250q0 -67 42.5 -112.5t108.5 -45.5q65 0 107.5 45.5t42.5 112.5
t-42.5 112.5t-107.5 45.5q-66 0 -108.5 -45.5t-42.5 -112.5z" />
    <glyph glyph-name="OE" unicode="&#x152;" horiz-adv-x="1132" 
d="M657 0v95q-43 -51 -108 -79t-140 -28q-153 0 -260 106.5t-107 260.5t107 260.5t260 106.5q75 0 140 -28t108 -79v95h427v-112h-309v-182h249v-112h-249v-192h309v-112h-427zM160 355q0 -106 72 -180t177 -74t176.5 74t71.5 180t-71.5 180t-176.5 74t-177 -74t-72 -180z
" />
    <glyph glyph-name="oe" unicode="&#x153;" horiz-adv-x="991" 
d="M940 106q-75 -116 -229 -116q-133 0 -207 95q-79 -95 -204 -95q-111 0 -186.5 75.5t-75.5 184.5t75.5 184.5t186.5 75.5q127 0 204 -97q76 97 207 97q103 0 172 -66t70 -182q0 -20 -2 -36h-392q4 -61 47 -98.5t106 -37.5q97 0 144 76zM708 417q-51 0 -92 -29t-52 -82h278
q-9 52 -46.5 81.5t-87.5 29.5zM149 250q0 -67 42.5 -112.5t108.5 -45.5q65 0 107.5 45.5t42.5 112.5t-42.5 112.5t-107.5 45.5q-66 0 -108.5 -45.5t-42.5 -112.5z" />
    <glyph glyph-name="Racute" unicode="&#x154;" horiz-adv-x="645" 
d="M265 770l75 157h129l-118 -157h-86zM87 0v710h256q98 0 156.5 -56.5t58.5 -145.5q0 -74 -42 -122.5t-119 -66.5l264 -319h-144l-260 312h-53v-312h-117zM204 414h125q52 0 82 24.5t30 69.5t-30 69.5t-82 24.5h-125v-188z" />
    <glyph glyph-name="racute" unicode="&#x155;" horiz-adv-x="380" 
d="M178 560l100 190h133l-148 -190h-85zM74 0v500h110v-89q14 42 51.5 68t80.5 26q23 0 43 -4v-113q-29 9 -55 9q-50 0 -85 -40.5t-35 -112.5v-244h-110z" />
    <glyph glyph-name="Rcommaaccent" unicode="&#x156;" horiz-adv-x="645" 
d="M87 0v710h256q98 0 156.5 -56.5t58.5 -145.5q0 -74 -42 -122.5t-119 -66.5l264 -319h-144l-260 312h-53v-312h-117zM204 414h125q52 0 82 24.5t30 69.5t-30 69.5t-82 24.5h-125v-188zM293 -287l39 90q-38 18 -38 60q0 27 19 46.5t47 19.5q27 0 46.5 -19.5t19.5 -46.5
q0 -21 -13 -41l-68 -109h-52z" />
    <glyph glyph-name="rcommaaccent" unicode="&#x157;" horiz-adv-x="380" 
d="M74 0v500h110v-89q14 42 51.5 68t80.5 26q23 0 43 -4v-113q-29 9 -55 9q-50 0 -85 -40.5t-35 -112.5v-244h-110zM62 -287l39 90q-38 18 -38 60q0 27 19 46.5t47 19.5q27 0 46.5 -19.5t19.5 -46.5q0 -21 -13 -41l-68 -109h-52z" />
    <glyph glyph-name="Rcaron" unicode="&#x158;" horiz-adv-x="645" 
d="M300 766l-170 80v92l170 -80l170 80v-92zM87 0v710h256q98 0 156.5 -56.5t58.5 -145.5q0 -74 -42 -122.5t-119 -66.5l264 -319h-144l-260 312h-53v-312h-117zM204 414h125q52 0 82 24.5t30 69.5t-30 69.5t-82 24.5h-125v-188z" />
    <glyph glyph-name="rcaron" unicode="&#x159;" horiz-adv-x="380" 
d="M216 563l-166 99v94l166 -100l166 100v-94zM74 0v500h110v-89q14 42 51.5 68t80.5 26q23 0 43 -4v-113q-29 9 -55 9q-50 0 -85 -40.5t-35 -112.5v-244h-110z" />
    <glyph glyph-name="Sacute" unicode="&#x15a;" horiz-adv-x="562" 
d="M254 770l75 157h129l-118 -157h-86zM32 116l92 73q59 -91 165 -91q50 0 82.5 24.5t32.5 63.5q0 71 -101 108l-78 28q-86 31 -127 79.5t-41 120.5q0 91 65 145.5t166 54.5q134 0 215 -97l-81 -79q-57 66 -135 66q-47 0 -79.5 -22.5t-32.5 -59.5t24.5 -58.5t83.5 -43.5
l72 -27q168 -63 167 -208q0 -92 -66 -148.5t-171 -56.5q-85 0 -152.5 35t-100.5 93z" />
    <glyph glyph-name="sacute" unicode="&#x15b;" horiz-adv-x="454" 
d="M193 560l100 190h133l-148 -190h-85zM414 145q0 -71 -51 -113t-130 -42q-69 0 -122 27t-79 79l81 58q15 -32 48 -50.5t72 -18.5q31 0 51.5 14t20.5 39q0 22 -16.5 36.5t-60.5 27.5l-44 12q-65 18 -98.5 57.5t-32.5 95.5q1 65 51.5 104t127.5 39q115 0 169 -85l-76 -58
q-36 51 -95 51q-27 0 -47 -13t-20 -34q0 -42 60 -59l51 -15q140 -41 140 -152z" />
    <glyph glyph-name="Scircumflex" unicode="&#x15c;" horiz-adv-x="562" 
d="M119 766v92l170 80l170 -80v-92l-170 80zM32 116l92 73q59 -91 165 -91q50 0 82.5 24.5t32.5 63.5q0 71 -101 108l-78 28q-86 31 -127 79.5t-41 120.5q0 91 65 145.5t166 54.5q134 0 215 -97l-81 -79q-57 66 -135 66q-47 0 -79.5 -22.5t-32.5 -59.5t24.5 -58.5
t83.5 -43.5l72 -27q168 -63 167 -208q0 -92 -66 -148.5t-171 -56.5q-85 0 -152.5 35t-100.5 93z" />
    <glyph glyph-name="scircumflex" unicode="&#x15d;" horiz-adv-x="454" 
d="M232 756l166 -100v-93l-166 99l-166 -99v93zM414 145q0 -71 -51 -113t-130 -42q-69 0 -122 27t-79 79l81 58q15 -32 48 -50.5t72 -18.5q31 0 51.5 14t20.5 39q0 22 -16.5 36.5t-60.5 27.5l-44 12q-65 18 -98.5 57.5t-32.5 95.5q1 65 51.5 104t127.5 39q115 0 169 -85
l-76 -58q-36 51 -95 51q-27 0 -47 -13t-20 -34q0 -42 60 -59l51 -15q140 -41 140 -152z" />
    <glyph glyph-name="Scedilla" unicode="&#x15e;" horiz-adv-x="562" 
d="M32 116l92 73q59 -91 165 -91q50 0 82.5 24.5t32.5 63.5q0 71 -101 108l-78 28q-86 31 -127 79.5t-41 120.5q0 91 65 145.5t166 54.5q134 0 215 -97l-81 -79q-57 66 -135 66q-47 0 -79.5 -22.5t-32.5 -59.5t24.5 -58.5t83.5 -43.5l72 -27q168 -63 167 -208
q0 -90 -63 -146t-164 -59l-23 -39q21 7 43 7q36 0 59 -20.5t23 -56.5q0 -44 -39 -71t-93 -27q-57 0 -92 15v58q30 -17 76 -17q65 0 65 38q0 29 -45 29q-23 0 -43 -10l-34 20l47 77q-70 9 -124.5 42t-82.5 83z" />
    <glyph glyph-name="scedilla" unicode="&#x15f;" horiz-adv-x="454" 
d="M118 -204v58q30 -17 76 -17q65 0 65 38q0 29 -45 29q-24 0 -43 -10l-34 20l48 80q-110 16 -153 102l81 58q15 -32 48 -50.5t72 -18.5q31 0 51.5 14t20.5 39q0 22 -16.5 36.5t-60.5 27.5l-44 12q-65 18 -98.5 57.5t-32.5 95.5q1 65 51.5 104t127.5 39q115 0 169 -85
l-76 -58q-36 51 -95 51q-27 0 -47 -13t-20 -34q0 -42 60 -59l51 -15q140 -41 140 -152q0 -68 -48.5 -110.5t-124.5 -44.5l-25 -41q21 7 43 7q36 0 59.5 -20.5t23.5 -56.5q0 -44 -39 -71t-94 -27q-56 0 -91 15z" />
    <glyph glyph-name="Scaron" unicode="&#x160;" horiz-adv-x="562" 
d="M289 766l-170 80v92l170 -80l170 80v-92zM32 116l92 73q59 -91 165 -91q50 0 82.5 24.5t32.5 63.5q0 71 -101 108l-78 28q-86 31 -127 79.5t-41 120.5q0 91 65 145.5t166 54.5q134 0 215 -97l-81 -79q-57 66 -135 66q-47 0 -79.5 -22.5t-32.5 -59.5t24.5 -58.5
t83.5 -43.5l72 -27q168 -63 167 -208q0 -92 -66 -148.5t-171 -56.5q-85 0 -152.5 35t-100.5 93z" />
    <glyph glyph-name="scaron" unicode="&#x161;" horiz-adv-x="454" 
d="M232 563l-166 99v94l166 -100l166 100v-94zM414 145q0 -71 -51 -113t-130 -42q-69 0 -122 27t-79 79l81 58q15 -32 48 -50.5t72 -18.5q31 0 51.5 14t20.5 39q0 22 -16.5 36.5t-60.5 27.5l-44 12q-65 18 -98.5 57.5t-32.5 95.5q1 65 51.5 104t127.5 39q115 0 169 -85
l-76 -58q-36 51 -95 51q-27 0 -47 -13t-20 -34q0 -42 60 -59l51 -15q140 -41 140 -152z" />
    <glyph glyph-name="uni0162" unicode="&#x162;" horiz-adv-x="567" 
d="M225 0v598h-206v112h530v-112h-207v-598h-117zM216 -287l39 90q-38 18 -38 60q0 27 19 46.5t47 19.5q27 0 46.5 -19.5t19.5 -46.5q0 -21 -13 -41l-68 -109h-52z" />
    <glyph glyph-name="uni0163" unicode="&#x163;" horiz-adv-x="403" 
d="M373 6q-35 -11 -82 -11q-76 0 -123.5 42.5t-47.5 123.5v241h-104v98h104v139h110v-139h143v-98h-143v-223q0 -46 20 -65.5t64 -19.5q32 0 59 10v-98zM186 -287l39 90q-38 18 -38 60q0 27 19 46.5t47 19.5q27 0 46.5 -19.5t19.5 -46.5q0 -21 -13 -41l-68 -109h-52z" />
    <glyph glyph-name="Tcaron" unicode="&#x164;" horiz-adv-x="567" 
d="M283 766l-170 80v92l170 -80l170 80v-92zM225 0v598h-206v112h530v-112h-207v-598h-117z" />
    <glyph glyph-name="tcaron" unicode="&#x165;" horiz-adv-x="403" 
d="M258 547l22 163h110l-57 -163h-75zM373 6q-35 -11 -82 -11q-76 0 -123.5 42.5t-47.5 123.5v241h-104v98h104v139h110v-139h143v-98h-143v-223q0 -46 20 -65.5t64 -19.5q32 0 59 10v-98z" />
    <glyph glyph-name="Tbar" unicode="&#x166;" horiz-adv-x="593" 
d="M238 0v309h-149v103h149v186h-206v112h530v-112h-207v-186h149v-103h-149v-309h-117z" />
    <glyph glyph-name="tbar" unicode="&#x167;" horiz-adv-x="415" 
d="M24 244v79h104v79h-104v98h104v139h110v-139h143v-98h-143v-79h143v-79h-143v-65q0 -46 20 -65.5t64 -19.5q32 0 59 10v-98q-35 -11 -82 -11q-76 0 -123.5 42.5t-47.5 123.5v83h-104z" />
    <glyph glyph-name="Utilde" unicode="&#x168;" horiz-adv-x="723" 
d="M182 782l3 22q8 47 39.5 75t72.5 28q30 0 73.5 -22.5t56.5 -22.5q33 0 43 45h72l-3 -22q-8 -46 -39.5 -74t-72.5 -28q-31 0 -74.5 22.5t-55.5 22.5q-32 0 -44 -46h-71zM644 278q0 -131 -78.5 -210.5t-203.5 -79.5q-126 0 -204.5 79t-78.5 211v432h117v-434
q0 -82 45 -128.5t121 -46.5q75 0 120 46.5t45 128.5v434h117v-432z" />
    <glyph glyph-name="utilde" unicode="&#x169;" horiz-adv-x="583" 
d="M107 583l4 22q7 46 38.5 74t72.5 28q31 0 74.5 -22.5t55.5 -22.5q32 0 44 46h72l-4 -22q-7 -47 -38.5 -75t-72.5 -28q-31 0 -74.5 22.5t-55.5 22.5q-32 0 -44 -45h-72zM67 201v299h110v-281q0 -60 26 -94.5t74 -34.5q55 0 88.5 43t33.5 121v246h110v-500h-110v68
q-45 -78 -146 -78q-86 0 -136 57.5t-50 153.5z" />
    <glyph glyph-name="Umacron" unicode="&#x16a;" horiz-adv-x="723" 
d="M196 798v82h332v-82h-332zM644 278q0 -131 -78.5 -210.5t-203.5 -79.5q-126 0 -204.5 79t-78.5 211v432h117v-434q0 -82 45 -128.5t121 -46.5q75 0 120 46.5t45 128.5v434h117v-432z" />
    <glyph glyph-name="umacron" unicode="&#x16b;" horiz-adv-x="583" 
d="M122 628v82h332v-82h-332zM67 201v299h110v-281q0 -60 26 -94.5t74 -34.5q55 0 88.5 43t33.5 121v246h110v-500h-110v68q-45 -78 -146 -78q-86 0 -136 57.5t-50 153.5z" />
    <glyph glyph-name="Ubreve" unicode="&#x16c;" horiz-adv-x="723" 
d="M196 921h68q0 -46 28 -72t70 -26t70 26t28 72h68q0 -75 -48 -120.5t-118 -45.5t-118 45.5t-48 120.5zM644 278q0 -131 -78.5 -210.5t-203.5 -79.5q-126 0 -204.5 79t-78.5 211v432h117v-434q0 -82 45 -128.5t121 -46.5q75 0 120 46.5t45 128.5v434h117v-432z" />
    <glyph glyph-name="ubreve" unicode="&#x16d;" horiz-adv-x="583" 
d="M454 735q0 -75 -48 -120.5t-118 -45.5t-118 45.5t-48 120.5v15h68v-15q0 -46 28 -72.5t70 -26.5t70 26.5t28 72.5v15h68v-15zM67 201v299h110v-281q0 -60 26 -94.5t74 -34.5q55 0 88.5 43t33.5 121v246h110v-500h-110v68q-45 -78 -146 -78q-86 0 -136 57.5t-50 153.5z
" />
    <glyph glyph-name="Uring" unicode="&#x16e;" horiz-adv-x="723" 
d="M484 873q0 -49 -36 -84.5t-86 -35.5t-85.5 35.5t-35.5 84.5t35.5 84.5t85.5 35.5t86 -35.5t36 -84.5zM298 873q0 -27 19 -45.5t45 -18.5q28 0 47 18.5t19 45.5t-19 46t-47 19q-26 0 -45 -19.5t-19 -45.5zM644 278q0 -131 -78.5 -210.5t-203.5 -79.5q-126 0 -204.5 79
t-78.5 211v432h117v-434q0 -82 45 -128.5t121 -46.5q75 0 120 46.5t45 128.5v434h117v-432z" />
    <glyph glyph-name="uring" unicode="&#x16f;" horiz-adv-x="583" 
d="M410 663q0 -49 -36 -84.5t-86 -35.5t-85.5 35.5t-35.5 84.5t35.5 84.5t85.5 35.5t86 -35.5t36 -84.5zM224 663q0 -27 19 -45.5t45 -18.5q28 0 47 18.5t19 45.5t-19 46t-47 19q-26 0 -45 -19.5t-19 -45.5zM67 201v299h110v-281q0 -60 26 -94.5t74 -34.5q55 0 88.5 43
t33.5 121v246h110v-500h-110v68q-45 -78 -146 -78q-86 0 -136 57.5t-50 153.5z" />
    <glyph glyph-name="Uhungarumlaut" unicode="&#x170;" horiz-adv-x="723" 
d="M415 770l68 157h120l-116 -157h-72zM241 770l67 157h121l-116 -157h-72zM644 278q0 -131 -78.5 -210.5t-203.5 -79.5q-126 0 -204.5 79t-78.5 211v432h117v-434q0 -82 45 -128.5t121 -46.5q75 0 120 46.5t45 128.5v434h117v-432z" />
    <glyph glyph-name="uhungarumlaut" unicode="&#x171;" horiz-adv-x="583" 
d="M334 560l68 190h120l-116 -190h-72zM160 560l67 190h121l-116 -190h-72zM67 201v299h110v-281q0 -60 26 -94.5t74 -34.5q55 0 88.5 43t33.5 121v246h110v-500h-110v68q-45 -78 -146 -78q-86 0 -136 57.5t-50 153.5z" />
    <glyph glyph-name="Uogonek" unicode="&#x172;" horiz-adv-x="723" 
d="M506 -192q-33 -27 -90 -27q-45 0 -74 26.5t-29 67.5q0 61 59 113h-9q-128 0 -206 79t-78 211v432h117v-434q0 -82 45 -128.5t121 -46.5q75 0 120 46.5t45 128.5v434h117v-432q0 -147 -97 -228l-39.5 -33.5t-38 -33.5t-25.5 -26t-21.5 -29.5t-5.5 -25.5q0 -32 36 -32
q30 0 53 19v-81z" />
    <glyph glyph-name="uogonek" unicode="&#x173;" horiz-adv-x="583" 
d="M67 201v299h110v-281q0 -60 26 -94.5t74 -34.5q55 0 88.5 43t33.5 121v246h110v-500q-90 -50 -90 -104q0 -34 37 -34q28 0 53 19v-73q-33 -27 -87 -27q-44 0 -72 26t-28 67q0 66 77 126v68q-45 -78 -146 -78q-86 0 -136 57.5t-50 153.5z" />
    <glyph glyph-name="Wcircumflex" unicode="&#x174;" horiz-adv-x="953" 
d="M307 766v92l170 80l170 -80v-92l-170 80zM642 0l-165 434l-165 -434h-108l-183 710h123l130 -516l203 528l203 -528l130 516h124l-184 -710h-108z" />
    <glyph glyph-name="wcircumflex" unicode="&#x175;" horiz-adv-x="780" 
d="M391 756l166 -100v-93l-166 99l-166 -99v93zM500 0l-110 324l-109 -324h-104l-168 500h116l108 -344l115 344h84l114 -344l109 344h117l-168 -500h-104z" />
    <glyph glyph-name="Ycircumflex" unicode="&#x176;" horiz-adv-x="681" 
d="M170 766v92l170 80l170 -80v-92l-170 80zM282 0v300l-269 410h137l190 -294l191 294h138l-270 -411v-299h-117z" />
    <glyph glyph-name="ycircumflex" unicode="&#x177;" horiz-adv-x="558" 
d="M281 756l166 -100v-93l-166 99l-166 -99v93zM234 -209h-121l107 236l-215 473h121l154 -354l153 354h122z" />
    <glyph glyph-name="Ydieresis" unicode="&#x178;" horiz-adv-x="681" 
d="M291 845q0 -27 -19 -46.5t-46 -19.5q-28 0 -47.5 19.5t-19.5 46.5q0 28 19.5 47.5t47.5 19.5q27 0 46 -19.5t19 -47.5zM521 845q0 -27 -19 -46.5t-47 -19.5q-27 0 -46.5 19.5t-19.5 46.5q0 28 19.5 47.5t46.5 19.5q28 0 47 -19.5t19 -47.5zM282 0v300l-269 410h137
l190 -294l191 294h138l-270 -411v-299h-117z" />
    <glyph glyph-name="Zacute" unicode="&#x179;" horiz-adv-x="602" 
d="M270 770l75 157h129l-118 -157h-86zM36 0v79l362 519h-353v112h512v-79l-363 -519h371v-112h-529z" />
    <glyph glyph-name="zacute" unicode="&#x17a;" horiz-adv-x="490" 
d="M206 560l100 190h133l-148 -190h-85zM40 0v87l262 313h-258v100h400v-88l-261 -312h269v-100h-412z" />
    <glyph glyph-name="Zdotaccent" unicode="&#x17b;" horiz-adv-x="602" 
d="M371 845q0 -27 -19.5 -46.5t-46.5 -19.5q-28 0 -47.5 19.5t-19.5 46.5q0 28 19.5 47.5t47.5 19.5q27 0 46.5 -19.5t19.5 -47.5zM36 0v79l362 519h-353v112h512v-79l-363 -519h371v-112h-529z" />
    <glyph glyph-name="zdotaccent" unicode="&#x17c;" horiz-adv-x="490" 
d="M310 653q0 -27 -19.5 -46.5t-46.5 -19.5q-28 0 -47.5 19.5t-19.5 46.5q0 28 19.5 47.5t47.5 19.5q27 0 46.5 -19.5t19.5 -47.5zM40 0v87l262 313h-258v100h400v-88l-261 -312h269v-100h-412z" />
    <glyph glyph-name="Zcaron" unicode="&#x17d;" horiz-adv-x="602" 
d="M305 766l-170 80v92l170 -80l170 80v-92zM36 0v79l362 519h-353v112h512v-79l-363 -519h371v-112h-529z" />
    <glyph glyph-name="zcaron" unicode="&#x17e;" horiz-adv-x="490" 
d="M244 563l-166 99v94l166 -100l166 100v-94zM40 0v87l262 313h-258v100h400v-88l-261 -312h269v-100h-412z" />
    <glyph glyph-name="uni018F" unicode="&#x18f;" horiz-adv-x="809" 
d="M768 355q0 -154 -106.5 -260.5t-260.5 -106.5q-155 0 -261 106.5t-106 260.5v54h609q-17 88 -85 144t-160 56q-59 0 -111 -22t-86 -59l-79 80q50 53 123.5 83.5t155.5 30.5q152 0 259.5 -106.5t107.5 -260.5zM157 305q13 -88 81.5 -146t162.5 -58q93 0 160 57.5t83 146.5
h-487z" />
    <glyph glyph-name="Scommaaccent" unicode="&#x218;" horiz-adv-x="562" 
d="M32 116l92 73q59 -91 165 -91q50 0 82.5 24.5t32.5 63.5q0 71 -101 108l-78 28q-86 31 -127 79.5t-41 120.5q0 91 65 145.5t166 54.5q134 0 215 -97l-81 -79q-57 66 -135 66q-47 0 -79.5 -22.5t-32.5 -59.5t24.5 -58.5t83.5 -43.5l72 -27q168 -63 167 -208
q0 -92 -66 -148.5t-171 -56.5q-85 0 -152.5 35t-100.5 93zM218 -287l39 90q-38 18 -38 60q0 27 19 46.5t47 19.5q27 0 46.5 -19.5t19.5 -46.5q0 -21 -13 -41l-68 -109h-52z" />
    <glyph glyph-name="scommaaccent" unicode="&#x219;" horiz-adv-x="454" 
d="M414 145q0 -71 -51 -113t-130 -42q-69 0 -122 27t-79 79l81 58q15 -32 48 -50.5t72 -18.5q31 0 51.5 14t20.5 39q0 22 -16.5 36.5t-60.5 27.5l-44 12q-65 18 -98.5 57.5t-32.5 95.5q1 65 51.5 104t127.5 39q115 0 169 -85l-76 -58q-36 51 -95 51q-27 0 -47 -13t-20 -34
q0 -42 60 -59l51 -15q140 -41 140 -152zM160 -287l39 90q-38 18 -38 60q0 27 19 46.5t47 19.5q27 0 46.5 -19.5t19.5 -46.5q0 -21 -13 -41l-68 -109h-52z" />
    <glyph glyph-name="Tcommaaccent" unicode="&#x21a;" horiz-adv-x="567" 
d="M225 0v598h-206v112h530v-112h-207v-598h-117zM216 -287l39 90q-38 18 -38 60q0 27 19 46.5t47 19.5q27 0 46.5 -19.5t19.5 -46.5q0 -21 -13 -41l-68 -109h-52z" />
    <glyph glyph-name="tcommaaccent" unicode="&#x21b;" horiz-adv-x="403" 
d="M373 6q-35 -11 -82 -11q-76 0 -123.5 42.5t-47.5 123.5v241h-104v98h104v139h110v-139h143v-98h-143v-223q0 -46 20 -65.5t64 -19.5q32 0 59 10v-98zM186 -287l39 90q-38 18 -38 60q0 27 19 46.5t47 19.5q27 0 46.5 -19.5t19.5 -46.5q0 -21 -13 -41l-68 -109h-52z" />
    <glyph glyph-name="uni0232" unicode="&#x232;" horiz-adv-x="681" 
d="M174 798v82h332v-82h-332zM282 0v300l-269 410h137l190 -294l191 294h138l-270 -411v-299h-117z" />
    <glyph glyph-name="uni0233" unicode="&#x233;" horiz-adv-x="558" 
d="M115 628v82h332v-82h-332zM234 -209h-121l107 236l-215 473h121l154 -354l153 354h122z" />
    <glyph glyph-name="dotlessj" unicode="&#x237;" horiz-adv-x="266" 
d="M192 500v-553q0 -80 -47.5 -123t-120.5 -43q-28 0 -47 3v96q14 -2 27 -2q78 0 78 85v537h110z" />
    <glyph glyph-name="uni0259" unicode="&#x259;" horiz-adv-x="578" 
d="M36 238q0 20 1 36h393q-4 60 -46.5 98t-98.5 38q-89 0 -136 -76l-84 60q76 116 220 116q110 0 181.5 -73t71.5 -187q0 -111 -70.5 -185.5t-181.5 -74.5q-107 0 -178.5 67t-71.5 181zM286 83q48 0 88 29t51 82h-278q9 -53 47.5 -82t91.5 -29z" />
    <glyph glyph-name="uni02BB" unicode="&#x2bb;" horiz-adv-x="262" 
d="M52 538l108 172h68l-70 -147q22 -10 36 -31.5t14 -47.5q0 -35 -25 -60.5t-61 -25.5t-61 25.5t-25 60.5q0 28 16 54z" />
    <glyph glyph-name="uni02BC" unicode="&#x2bc;" horiz-adv-x="266" 
d="M222 581l-108 -171h-68l70 146q-21 10 -35.5 31.5t-14.5 47.5q0 36 25.5 61.5t60.5 25.5q36 0 61.5 -25.5t25.5 -61.5q0 -25 -17 -54z" />
    <glyph glyph-name="circumflex" unicode="&#x2c6;" 
d="M0 756l166 -100v-93l-166 99l-166 -99v93z" />
    <glyph glyph-name="caron" unicode="&#x2c7;" 
d="M0 563l-166 99v94l166 -100l166 100v-94z" />
    <glyph glyph-name="breve" unicode="&#x2d8;" 
d="M166 735q0 -75 -48 -120.5t-118 -45.5t-118 45.5t-48 120.5v15h68v-15q0 -46 28 -72.5t70 -26.5t70 26.5t28 72.5v15h68v-15z" />
    <glyph glyph-name="dotaccent" unicode="&#x2d9;" 
d="M66 653q0 -27 -19.5 -46.5t-46.5 -19.5q-28 0 -47.5 19.5t-19.5 46.5q0 28 19.5 47.5t47.5 19.5q27 0 46.5 -19.5t19.5 -47.5z" />
    <glyph glyph-name="ring" unicode="&#x2da;" 
d="M122 663q0 -49 -36 -84.5t-86 -35.5t-85.5 35.5t-35.5 84.5t35.5 84.5t85.5 35.5t86 -35.5t36 -84.5zM-64 663q0 -27 19 -45.5t45 -18.5q28 0 47 18.5t19 45.5t-19 46t-47 19q-26 0 -45 -19.5t-19 -45.5z" />
    <glyph glyph-name="ogonek" unicode="&#x2db;" 
d="M-94 -126q0 66 77 126h110q-90 -50 -90 -104q0 -34 37 -34q28 0 53 19v-73q-33 -27 -87 -27q-44 0 -72 26t-28 67z" />
    <glyph glyph-name="tilde" unicode="&#x2dc;" 
d="M-181 583l4 22q7 46 38.5 74t72.5 28q31 0 74.5 -22.5t55.5 -22.5q32 0 44 46h72l-4 -22q-7 -47 -38.5 -75t-72.5 -28q-31 0 -74.5 22.5t-55.5 22.5q-32 0 -44 -45h-72z" />
    <glyph glyph-name="hungarumlaut" unicode="&#x2dd;" 
d="M-7 560l68 190h120l-116 -190h-72zM-181 560l67 190h121l-116 -190h-72z" />
    <glyph glyph-name="uni0401" unicode="&#x401;" horiz-adv-x="562" 
d="M251 845q0 -27 -19 -46.5t-46 -19.5q-28 0 -47.5 19.5t-19.5 46.5q0 28 19.5 47.5t47.5 19.5q27 0 46 -19.5t19 -47.5zM481 845q0 -27 -19 -46.5t-47 -19.5q-27 0 -46.5 19.5t-19.5 46.5q0 28 19.5 47.5t46.5 19.5q28 0 47 -19.5t19 -47.5zM87 0v710h427v-112h-310v-182
h250v-112h-250v-192h310v-112h-427z" />
    <glyph glyph-name="uni0402" unicode="&#x402;" horiz-adv-x="759" 
d="M311 358q29 40 79.5 63t109.5 23q106 0 166.5 -65.5t60.5 -164.5q0 -107 -66.5 -166.5t-162.5 -59.5q-35 0 -81 6v107q42 -5 74 -5q52 0 86 31t34 87q0 53 -35.5 86t-97.5 33q-72 0 -119.5 -47t-47.5 -130v-156h-117v598h-175v112h512v-112h-220v-240z" />
    <glyph glyph-name="uni0403" unicode="&#x403;" horiz-adv-x="517" 
d="M258 770l75 157h129l-118 -157h-86zM497 710v-112h-292v-598h-118v710h410z" />
    <glyph glyph-name="uni0404" unicode="&#x404;" horiz-adv-x="756" 
d="M501 304h-336q17 -89 84.5 -146.5t159.5 -57.5q143 0 219 125l101 -58q-48 -83 -132.5 -131.5t-187.5 -48.5q-153 0 -260 106.5t-107 260.5t107 260.5t260 106.5q103 0 187.5 -48.5t132.5 -131.5l-101 -58q-76 126 -219 126q-90 0 -157.5 -56t-85.5 -143h335v-106z" />
    <glyph glyph-name="uni0405" unicode="&#x405;" horiz-adv-x="562" 
d="M32 116l92 73q59 -91 165 -91q50 0 82.5 24.5t32.5 63.5q0 71 -101 108l-78 28q-86 31 -127 79.5t-41 120.5q0 91 65 145.5t166 54.5q134 0 215 -97l-81 -79q-57 66 -135 66q-47 0 -79.5 -22.5t-32.5 -59.5t24.5 -58.5t83.5 -43.5l72 -27q168 -63 167 -208
q0 -92 -66 -148.5t-171 -56.5q-85 0 -152.5 35t-100.5 93z" />
    <glyph glyph-name="uni0406" unicode="&#x406;" horiz-adv-x="291" 
d="M87 0v710h117v-710h-117z" />
    <glyph glyph-name="uni0407" unicode="&#x407;" horiz-adv-x="291" 
d="M116 865q0 -28 -20 -48t-48 -20t-47.5 20t-19.5 48t19.5 47.5t47.5 19.5t48 -19.5t20 -47.5zM309 865q0 -28 -20 -48t-48 -20t-47.5 20t-19.5 48t19.5 47.5t47.5 19.5t48 -19.5t20 -47.5zM87 0v710h117v-710h-117z" />
    <glyph glyph-name="uni0408" unicode="&#x408;" horiz-adv-x="537" 
d="M456 195q0 -104 -62 -155.5t-155 -51.5t-155.5 54.5t-62.5 154.5h116q0 -47 29.5 -73.5t72.5 -26.5t71.5 27t28.5 81v505h117v-515z" />
    <glyph glyph-name="uni0409" unicode="&#x409;" horiz-adv-x="1037" 
d="M141 710h503v-294h120q111 0 176.5 -56.5t65.5 -146.5q0 -93 -67 -153t-175 -60h-238v598h-267v-388q0 -112 -47 -167t-130 -55q-37 0 -61 4v109q21 -3 46 -3q38 0 56 27t18 100v485zM763 110q128 0 128 101q0 45 -33 70t-95 25h-119v-196h119z" />
    <glyph glyph-name="uni040A" unicode="&#x40a;" horiz-adv-x="1044" 
d="M87 0v710h118v-294h334v294h117v-294h116q111 0 176.5 -56.5t65.5 -146.5q0 -93 -67 -153t-175 -60h-233v305h-334v-305h-118zM770 306h-114v-196h114q128 0 128 101q0 45 -33 70t-95 25z" />
    <glyph glyph-name="uni040B" unicode="&#x40b;" horiz-adv-x="769" 
d="M194 598h-175v112h512v-112h-220v-240q62 86 190 86q99 0 161.5 -65.5t62.5 -172.5v-206h-117v181q0 75 -36 113.5t-99 38.5q-66 0 -114 -47t-48 -135v-151h-117v598z" />
    <glyph glyph-name="uni040C" unicode="&#x40c;" horiz-adv-x="682" 
d="M311 770l75 157h129l-118 -157h-86zM87 0v710h116v-306l285 306h148l-315 -339l385 -371h-158l-345 332v-332h-116z" />
    <glyph glyph-name="uni040E" unicode="&#x40e;" horiz-adv-x="710" 
d="M207 921h77q0 -44 24 -70.5t65 -26.5t65 26.5t24 70.5h77q0 -75 -48 -120.5t-118 -45.5t-118 45.5t-48 120.5zM133 -6v109q36 -4 62 -4q36 0 63 16t48 57l-278 538h134l210 -409l211 409h131l-286 -552q-47 -92 -96.5 -131t-121.5 -39q-31 0 -77 6z" />
    <glyph glyph-name="uni040F" unicode="&#x40f;" horiz-adv-x="735" 
d="M422 0v-148h-108v148h-227v710h118v-598h325v598h117v-710h-225z" />
    <glyph glyph-name="uni0410" unicode="&#x410;" horiz-adv-x="730" 
d="M4 0l310 710h102l310 -710h-122l-81 186h-318l-80 -186h-121zM250 290h228l-114 263z" />
    <glyph glyph-name="uni0411" unicode="&#x411;" horiz-adv-x="630" 
d="M205 429h153q106 0 173.5 -58.5t67.5 -156.5q0 -97 -68 -155.5t-173 -58.5h-271v710h448v-112h-330v-169zM357 109q60 0 93 27.5t33 77.5q0 51 -33 79t-93 28h-152v-212h152z" />
    <glyph glyph-name="uni0412" unicode="&#x412;" horiz-adv-x="631" 
d="M87 0v710h245q93 0 152.5 -57t59.5 -139q0 -88 -66 -137q114 -47 114 -169q0 -89 -64.5 -148.5t-164.5 -59.5h-276zM204 411h122q47 0 75 27t28 69q0 40 -28 68t-75 28h-122v-192zM204 107h156q55 0 86.5 28.5t31.5 73.5t-31.5 73.5t-86.5 28.5h-156v-204z" />
    <glyph glyph-name="uni0413" unicode="&#x413;" horiz-adv-x="517" 
d="M497 710v-112h-292v-598h-118v710h410z" />
    <glyph glyph-name="uni0414" unicode="&#x414;" horiz-adv-x="766" 
d="M625 -148v148h-487v-148h-107v260h13q91 0 91 225v373h507v-598h90v-260h-107zM253 598v-275q0 -143 -42 -211h314v486h-272z" />
    <glyph glyph-name="uni0415" unicode="&#x415;" horiz-adv-x="562" 
d="M87 0v710h427v-112h-310v-182h250v-112h-250v-192h310v-112h-427z" />
    <glyph glyph-name="uni0416" unicode="&#x416;" horiz-adv-x="992" 
d="M137 0h-150l337 356l-307 354h141l279 -322v322h117v-322l280 322h141l-307 -354l337 -356h-150l-301 315v-315h-117v314z" />
    <glyph glyph-name="uni0417" unicode="&#x417;" horiz-adv-x="574" 
d="M112 554l-67 81q93 87 233 87q99 0 162 -52.5t63 -140.5q0 -104 -80 -155q52 -24 79 -69t27 -102q0 -99 -72.5 -157t-178.5 -58q-170 0 -259 120l85 73q63 -83 173 -83q64 0 100.5 31.5t36.5 81.5q0 47 -34 76t-97 29h-99v100h96q52 0 80.5 27.5t28.5 70.5q0 45 -31 72
t-92 28q-88 0 -154 -60z" />
    <glyph glyph-name="uni0418" unicode="&#x418;" horiz-adv-x="793" 
d="M87 0v710h118v-509l399 509h102v-710h-117v511l-400 -511h-102z" />
    <glyph glyph-name="uni0419" unicode="&#x419;" horiz-adv-x="793" 
d="M240 921h77q0 -44 24 -70.5t65 -26.5t65 26.5t24 70.5h77q0 -75 -48 -120.5t-118 -45.5t-118 45.5t-48 120.5zM87 0v710h118v-509l399 509h102v-710h-117v511l-400 -511h-102z" />
    <glyph glyph-name="uni041A" unicode="&#x41a;" horiz-adv-x="682" 
d="M87 0v710h116v-306l285 306h148l-315 -339l385 -371h-158l-345 332v-332h-116z" />
    <glyph glyph-name="uni041B" unicode="&#x41b;" horiz-adv-x="736" 
d="M141 225v485h508v-710h-118v598h-272v-389q0 -111 -47 -166t-130 -55q-38 0 -61 4v109q19 -3 46 -3q38 0 56 27t18 100z" />
    <glyph glyph-name="uni041C" unicode="&#x41c;" horiz-adv-x="885" 
d="M443 187l-239 323v-510h-117v710h107l248 -336l249 336h107v-710h-118v509z" />
    <glyph glyph-name="uni041D" unicode="&#x41d;" horiz-adv-x="760" 
d="M87 0v710h117v-294h351v294h117v-710h-117v305h-351v-305h-117z" />
    <glyph glyph-name="uni041E" unicode="&#x41e;" horiz-adv-x="817" 
d="M776 355q0 -153 -107 -260t-260 -107t-260 106.5t-107 260.5t107 260.5t260 106.5t260 -107t107 -260zM160 355q0 -106 72 -180t177 -74t176.5 74t71.5 180t-71.5 180t-176.5 74t-177 -74t-72 -180z" />
    <glyph glyph-name="uni041F" unicode="&#x41f;" horiz-adv-x="747" 
d="M544 0v598h-341v-598h-116v710h573v-710h-116z" />
    <glyph glyph-name="uni0420" unicode="&#x420;" horiz-adv-x="588" 
d="M313 710q108 0 177 -66.5t69 -165.5t-69 -165.5t-177 -66.5h-109v-246h-117v710h226zM312 356q61 0 96.5 34.5t35.5 87.5t-35.5 87.5t-96.5 34.5h-108v-244h108z" />
    <glyph glyph-name="uni0421" unicode="&#x421;" horiz-adv-x="754" 
d="M42 355q0 154 107 260.5t260 106.5q103 0 187.5 -48.5t132.5 -131.5l-101 -58q-76 125 -219 125q-105 0 -177 -74t-72 -180t72 -180t177 -74q143 0 219 125l101 -58q-48 -83 -132.5 -131.5t-187.5 -48.5q-153 0 -260 106.5t-107 260.5z" />
    <glyph glyph-name="uni0422" unicode="&#x422;" horiz-adv-x="567" 
d="M225 0v598h-206v112h530v-112h-207v-598h-117z" />
    <glyph glyph-name="uni0423" unicode="&#x423;" horiz-adv-x="710" 
d="M133 -6v109q36 -4 62 -4q36 0 63 16t48 57l-278 538h134l210 -409l211 409h131l-286 -552q-47 -92 -96.5 -131t-121.5 -39q-31 0 -77 6z" />
    <glyph glyph-name="uni0424" unicode="&#x424;" horiz-adv-x="882" 
d="M500 -30h-117v91h-4q-157 0 -248.5 78.5t-91.5 219.5q0 139 91.5 217.5t248.5 78.5h4v85h117v-85h3q158 0 249 -78.5t91 -217.5q0 -141 -91.5 -219.5t-248.5 -78.5h-3v-91zM383 168v381h-4q-111 1 -166 -50t-55 -140q0 -90 55 -140.5t166 -50.5h4zM500 168h4
q111 0 166 51t55 140t-55.5 140t-165.5 50h-4v-381z" />
    <glyph glyph-name="uni0425" unicode="&#x425;" horiz-adv-x="683" 
d="M544 0l-202 266l-202 -266h-141l271 360l-258 350h138l192 -258l191 258h138l-258 -351l271 -359h-140z" />
    <glyph glyph-name="uni0426" unicode="&#x426;" horiz-adv-x="765" 
d="M641 112h90v-260h-108v148h-536v710h118v-598h318v598h118v-598z" />
    <glyph glyph-name="uni0427" unicode="&#x427;" horiz-adv-x="686" 
d="M599 0h-118v341q-63 -87 -197 -87q-106 0 -173 66t-67 175v215h118v-190q0 -77 38.5 -115.5t107.5 -38.5q73 0 123 47t50 138v159h118v-710z" />
    <glyph glyph-name="uni0428" unicode="&#x428;" horiz-adv-x="983" 
d="M87 0v710h118v-598h228v598h117v-598h228v598h118v-710h-809z" />
    <glyph glyph-name="uni0429" unicode="&#x429;" horiz-adv-x="1020" 
d="M878 -148v148h-791v710h118v-598h228v598h117v-598h228v598h118v-598h90v-260h-108z" />
    <glyph glyph-name="uni042A" unicode="&#x42a;" horiz-adv-x="720" 
d="M321 439h125q108 0 175.5 -61t67.5 -159q0 -97 -67.5 -158t-175.5 -61h-243v598h-184v112h302v-271zM321 109h123q61 0 95 28.5t34 81.5q0 54 -34 82.5t-95 28.5h-123v-221z" />
    <glyph glyph-name="uni042B" unicode="&#x42b;" horiz-adv-x="873" 
d="M205 439h125q108 0 175.5 -61t67.5 -159q0 -97 -67.5 -158t-175.5 -61h-243v710h118v-271zM668 0v710h117v-710h-117zM205 109h123q61 0 95 28.5t34 81.5q0 54 -34 82.5t-95 28.5h-123v-221z" />
    <glyph glyph-name="uni042C" unicode="&#x42c;" horiz-adv-x="604" 
d="M205 439h125q108 0 175.5 -61t67.5 -159q0 -97 -67.5 -158t-175.5 -61h-243v710h118v-271zM205 109h123q61 0 95 28.5t34 81.5q0 54 -34 82.5t-95 28.5h-123v-221z" />
    <glyph glyph-name="uni042D" unicode="&#x42d;" horiz-adv-x="756" 
d="M27 167l101 58q76 -125 219 -125q92 0 159.5 57.5t84.5 146.5h-336v106h335q-18 87 -85.5 143t-157.5 56q-143 0 -219 -126l-101 58q48 83 132.5 131.5t187.5 48.5q153 0 260 -106.5t107 -260.5t-107 -260.5t-260 -106.5q-103 0 -187.5 48.5t-132.5 131.5z" />
    <glyph glyph-name="uni042E" unicode="&#x42e;" horiz-adv-x="1072" 
d="M87 0v710h118v-296h117q20 134 118 221t234 87q151 0 253.5 -105.5t102.5 -261.5t-102.5 -261.5t-253.5 -105.5q-138 0 -237 89.5t-116 227.5h-116v-305h-118zM674 101q103 0 170 72t67 182t-67 182t-170 72t-170.5 -72t-67.5 -182t67.5 -182t170.5 -72z" />
    <glyph glyph-name="uni042F" unicode="&#x42f;" horiz-adv-x="638" 
d="M-14 0l249 288q-70 22 -111 76t-41 126q0 97 65.5 158.5t175.5 61.5h227v-710h-117v269h-71l-234 -269h-143zM326 602q-59 0 -93 -30.5t-34 -81.5q0 -52 34 -83t93 -31h108v226h-108z" />
    <glyph glyph-name="uni0430" unicode="&#x430;" horiz-adv-x="624" 
d="M38 250q0 108 69.5 184t171.5 76q51 0 94 -22.5t66 -54.5v67h110v-500h-110v67q-23 -32 -66 -54.5t-94 -22.5q-102 0 -171.5 76t-69.5 184zM448 250q0 68 -41.5 114t-107.5 46t-107.5 -46t-41.5 -114t41.5 -114t107.5 -46t107.5 46t41.5 114z" />
    <glyph glyph-name="uni0431" unicode="&#x431;" horiz-adv-x="616" 
d="M578 252q0 -110 -75 -186t-187 -76q-122 0 -191 80t-69 214v40q0 186 70.5 277.5t220.5 119.5l181 33v-105l-157 -28q-97 -18 -144 -64t-58 -133q61 71 165 71q111 0 177.5 -70t66.5 -173zM166 250q0 -71 41.5 -114.5t107.5 -43.5t108.5 43.5t42.5 114.5q0 63 -42.5 105
t-107.5 42q-66 0 -108 -43t-42 -104z" />
    <glyph glyph-name="uni0432" unicode="&#x432;" horiz-adv-x="550" 
d="M74 0v500h228q86 0 132 -40.5t46 -102.5q0 -53 -41 -91q73 -39 73 -118q0 -63 -45 -105.5t-136 -42.5h-257zM184 298h122q27 0 45.5 13.5t18.5 43.5q0 29 -18.5 42.5t-45.5 13.5h-122v-113zM184 93h146q32 0 52 16.5t20 45.5q0 30 -20 46.5t-52 16.5h-146v-125z" />
    <glyph glyph-name="uni0433" unicode="&#x433;" horiz-adv-x="419" 
d="M74 0v500h328v-98h-218v-402h-110z" />
    <glyph glyph-name="uni0434" unicode="&#x434;" horiz-adv-x="638" 
d="M31 98h13q71 0 71 147v255h412v-402h78v-223h-100v125h-373v-125h-101v223zM225 402v-168q0 -88 -29 -136h221v304h-192z" />
    <glyph glyph-name="uni0435" unicode="&#x435;" horiz-adv-x="580" 
d="M39 250q0 111 74 185.5t187 74.5q103 0 172 -66t69 -182q0 -20 -1 -36h-393q4 -61 47.5 -98.5t106.5 -37.5q98 0 143 76l84 -60q-74 -116 -228 -116q-114 0 -187.5 73t-73.5 187zM296 417q-51 0 -92 -29t-52 -82h278q-9 52 -46.5 81.5t-87.5 29.5z" />
    <glyph glyph-name="uni0436" unicode="&#x436;" horiz-adv-x="800" 
d="M133 0h-140l251 254l-217 246h131l187 -214v214h110v-213l186 213h131l-216 -246l251 -254h-140l-212 213v-213h-110v214z" />
    <glyph glyph-name="uni0437" unicode="&#x437;" horiz-adv-x="478" 
d="M437 143q0 -63 -53 -108t-152 -45q-138 0 -210 102l77 55q45 -65 125 -65q52 0 77 19t25 50q0 67 -91 67h-73v81h71q79 0 79 60q0 29 -22.5 45.5t-62.5 16.5q-71 0 -119 -56l-68 59q72 86 193 86q90 0 137 -42t47 -100q0 -70 -55 -104q75 -38 75 -121z" />
    <glyph glyph-name="uni0438" unicode="&#x438;" horiz-adv-x="611" 
d="M74 0v500h110v-333l255 333h98v-500h-110v333l-255 -333h-98z" />
    <glyph glyph-name="uni0439" unicode="&#x439;" horiz-adv-x="611" 
d="M479 735q0 -75 -48 -120.5t-118 -45.5t-118 45.5t-48 120.5v15h78v-15q0 -46 25 -72.5t63 -26.5t63 26.5t25 72.5v15h78v-15zM74 0v500h110v-333l255 333h98v-500h-110v333l-255 -333h-98z" />
    <glyph glyph-name="uni043A" unicode="&#x43a;" horiz-adv-x="537" 
d="M74 0v500h110v-214l197 214h134l-226 -246l262 -254h-146l-221 213v-213h-110z" />
    <glyph glyph-name="uni043B" unicode="&#x43b;" horiz-adv-x="595" 
d="M224 165q0 -85 -42.5 -129t-107.5 -44q-35 0 -54 4v95q22 -2 33 -2q31 0 46 20.5t15 72.5v318h407v-500h-110v402h-187v-237z" />
    <glyph glyph-name="uni043C" unicode="&#x43c;" horiz-adv-x="692" 
d="M346 117l-162 211v-328h-110v500h96l176 -228l176 228h96v-500h-110v328z" />
    <glyph glyph-name="uni043D" unicode="&#x43d;" horiz-adv-x="609" 
d="M74 0v500h110v-198h241v198h110v-500h-110v204h-241v-204h-110z" />
    <glyph glyph-name="uni043E" unicode="&#x43e;" horiz-adv-x="599" 
d="M562 250q0 -109 -75.5 -184.5t-186.5 -75.5t-186.5 75.5t-75.5 184.5t75.5 184.5t186.5 75.5t186.5 -75.5t75.5 -184.5zM149 250q0 -67 42.5 -112.5t108.5 -45.5q65 0 107.5 45.5t42.5 112.5t-42.5 112.5t-107.5 45.5q-66 0 -108.5 -45.5t-42.5 -112.5z" />
    <glyph glyph-name="uni043F" unicode="&#x43f;" horiz-adv-x="599" 
d="M74 0v500h451v-500h-110v402h-231v-402h-110z" />
    <glyph glyph-name="uni0440" unicode="&#x440;" horiz-adv-x="624" 
d="M74 -209v709h110v-67q23 32 66.5 54.5t94.5 22.5q102 0 171.5 -76t69.5 -184t-69.5 -184t-171.5 -76q-51 0 -94.5 22.5t-66.5 54.5v-276h-110zM474 250q0 68 -42 114t-107 46q-66 0 -108 -46t-42 -114t42 -114t108 -46q65 0 107 46t42 114z" />
    <glyph glyph-name="uni0441" unicode="&#x441;" horiz-adv-x="562" 
d="M535 128q-33 -63 -95 -100.5t-138 -37.5q-113 0 -188.5 74.5t-75.5 185.5t75.5 185.5t188.5 74.5q76 0 138 -37.5t95 -100.5l-96 -52q-19 40 -55 64t-82 24q-66 0 -109 -45.5t-43 -112.5t43 -112.5t109 -45.5q46 0 82 24t55 64z" />
    <glyph glyph-name="uni0442" unicode="&#x442;" horiz-adv-x="452" 
d="M167 0v402h-150v98h417v-98h-157v-402h-110z" />
    <glyph glyph-name="uni0443" unicode="&#x443;" horiz-adv-x="558" 
d="M555 500l-260 -577q-33 -74 -76.5 -108t-108.5 -34q-40 0 -61 5v95q30 -2 49 -2q56 0 90 73l33 73l-216 475h121l157 -346l150 346h122z" />
    <glyph glyph-name="uni0444" unicode="&#x444;" horiz-adv-x="747" 
d="M429 -209h-110v199h-8q-126 0 -199.5 75.5t-73.5 184.5t73.5 184.5t199.5 75.5h8v241h110v-241h8q126 0 199 -75.5t73 -184.5t-73 -184.5t-199 -75.5h-8v-199zM437 409h-8v-318h8q74 0 117.5 45.5t43.5 113.5t-44 113.5t-117 45.5zM319 91v318h-8q-74 0 -117.5 -45.5
t-43.5 -113.5q0 -69 43 -114t118 -45h8z" />
    <glyph glyph-name="uni0445" unicode="&#x445;" horiz-adv-x="547" 
d="M5 0l199 249l-188 251h131l126 -168l126 168h132l-188 -251l199 -249h-133l-135 169l-135 -169h-134z" />
    <glyph glyph-name="uni0446" unicode="&#x446;" horiz-adv-x="633" 
d="M602 98v-223h-100v125h-428v500h110v-402h229v402h110v-402h79z" />
    <glyph glyph-name="uni0447" unicode="&#x447;" horiz-adv-x="553" 
d="M479 0h-110v218q-19 -26 -58.5 -42.5t-88.5 -16.5q-83 0 -133.5 49t-50.5 140v152h110v-140q0 -103 103 -103q46 0 82 31t36 92v120h110v-500z" />
    <glyph glyph-name="uni0448" unicode="&#x448;" horiz-adv-x="825" 
d="M74 0v500h110v-402h174v402h110v-402h173v402h110v-500h-677z" />
    <glyph glyph-name="uni0449" unicode="&#x449;" horiz-adv-x="863" 
d="M831 98v-223h-101v125h-656v500h110v-402h174v402h110v-402h173v402h110v-402h80z" />
    <glyph glyph-name="uni044A" unicode="&#x44a;" horiz-adv-x="578" 
d="M151 0v403h-133v97h243v-165h105q91 0 137.5 -50.5t46.5 -115.5q0 -66 -46.5 -117.5t-137.5 -51.5h-215zM261 238v-141h96q41 0 64 18.5t23 52.5q0 70 -87 70h-96z" />
    <glyph glyph-name="uni044B" unicode="&#x44b;" horiz-adv-x="730" 
d="M546 0v500h110v-500h-110zM74 0v500h110v-165h105q91 0 137.5 -50.5t46.5 -115.5q0 -66 -46.5 -117.5t-137.5 -51.5h-215zM184 238v-141h96q41 0 64 18.5t23 52.5q0 70 -87 70h-96z" />
    <glyph glyph-name="uni044C" unicode="&#x44c;" horiz-adv-x="501" 
d="M74 0v500h110v-165h105q91 0 137.5 -50.5t46.5 -115.5q0 -66 -46.5 -117.5t-137.5 -51.5h-215zM184 238v-141h96q41 0 64 18.5t23 52.5q0 70 -87 70h-96z" />
    <glyph glyph-name="uni044D" unicode="&#x44d;" horiz-adv-x="563" 
d="M28 128l96 52q19 -40 55 -64t82 -24q57 0 97.5 34.5t51.5 88.5h-203v80h200q-13 50 -52.5 81.5t-93.5 31.5q-46 0 -82 -24t-55 -64l-96 52q33 63 95 100.5t138 37.5q113 0 188.5 -74.5t75.5 -185.5t-75.5 -185.5t-188.5 -74.5q-76 0 -138 37.5t-95 100.5z" />
    <glyph glyph-name="uni044E" unicode="&#x44e;" horiz-adv-x="812" 
d="M184 301h89q16 91 84.5 150t163.5 59q109 0 180.5 -75t71.5 -185t-71.5 -185t-180.5 -75q-96 0 -165 60.5t-84 153.5h-88v-204h-110v500h110v-199zM380 250q0 -68 39.5 -112.5t101.5 -44.5t101.5 44.5t39.5 112.5t-39.5 112.5t-101.5 44.5t-101.5 -44.5t-39.5 -112.5z
" />
    <glyph glyph-name="uni044F" unicode="&#x44f;" horiz-adv-x="532" 
d="M-7 0l187 193q-50 17 -78.5 55.5t-28.5 88.5q0 72 48 117.5t135 45.5h202v-500h-110v171h-56l-169 -171h-130zM262 263h86v144h-86q-40 0 -61.5 -19.5t-21.5 -54.5q0 -33 22.5 -51.5t60.5 -18.5z" />
    <glyph glyph-name="uni0451" unicode="&#x451;" horiz-adv-x="580" 
d="M250 653q0 -27 -19 -46.5t-46 -19.5q-28 0 -47.5 19.5t-19.5 46.5q0 28 19.5 47.5t47.5 19.5q27 0 46 -19.5t19 -47.5zM480 653q0 -27 -19 -46.5t-47 -19.5q-27 0 -46.5 19.5t-19.5 46.5q0 28 19.5 47.5t46.5 19.5q28 0 47 -19.5t19 -47.5zM39 250q0 111 74 185.5
t187 74.5q103 0 172 -66t69 -182q0 -20 -1 -36h-393q4 -61 47.5 -98.5t106.5 -37.5q98 0 143 76l84 -60q-74 -116 -228 -116q-114 0 -187.5 73t-73.5 187zM296 417q-51 0 -92 -29t-52 -82h278q-9 52 -46.5 81.5t-87.5 29.5z" />
    <glyph glyph-name="uni0452" unicode="&#x452;" horiz-adv-x="594" 
d="M527 -53q0 -80 -47.5 -123t-120.5 -43q-29 0 -48 3v96q14 -2 27 -2q79 0 79 85v320q0 59 -28 93t-76 34q-57 0 -93 -43t-36 -121v-246h-110v582h-82v79h82v89h110v-89h170v-79h-170v-150q47 78 152 78q87 0 139 -57t52 -152v-354z" />
    <glyph glyph-name="uni0453" unicode="&#x453;" horiz-adv-x="419" 
d="M199 560l100 190h133l-148 -190h-85zM74 0v500h328v-98h-218v-402h-110z" />
    <glyph glyph-name="uni0454" unicode="&#x454;" horiz-adv-x="563" 
d="M535 128q-33 -63 -95 -100.5t-138 -37.5q-113 0 -188.5 74.5t-75.5 185.5t75.5 185.5t188.5 74.5q76 0 138 -37.5t95 -100.5l-96 -52q-19 40 -55 64t-82 24q-54 0 -93.5 -31.5t-52.5 -81.5h200v-80h-203q11 -54 51.5 -88.5t97.5 -34.5q46 0 82 24t55 64z" />
    <glyph glyph-name="uni0455" unicode="&#x455;" horiz-adv-x="455" 
d="M415 145q0 -71 -51 -113t-131 -42q-68 0 -121 27t-79 79l81 58q15 -32 47.5 -50.5t72.5 -18.5q31 0 51.5 14t20.5 39q0 22 -16.5 36.5t-61.5 27.5l-44 12q-64 18 -97.5 57.5t-32.5 95.5q1 65 51.5 104t127.5 39q113 0 169 -85l-77 -58q-36 51 -95 51q-27 0 -47 -13
t-20 -34q0 -41 60 -59l52 -15q140 -41 140 -152z" />
    <glyph glyph-name="uni0456" unicode="&#x456;" horiz-adv-x="258" 
d="M203 683q0 -31 -21.5 -52.5t-52.5 -21.5q-30 0 -51.5 21.5t-21.5 52.5q0 30 21.5 51.5t51.5 21.5q31 0 52.5 -21.5t21.5 -51.5zM74 0v500h110v-500h-110z" />
    <glyph glyph-name="uni0457" unicode="&#x457;" horiz-adv-x="258" 
d="M100 655q0 -28 -19.5 -48t-47.5 -20t-48 20t-20 48t20 47.5t48 19.5t47.5 -19.5t19.5 -47.5zM293 655q0 -28 -20 -48t-48 -20q-27 0 -47 20t-20 48t20 47.5t47 19.5q28 0 48 -19.5t20 -47.5zM74 0v500h110v-500h-110z" />
    <glyph glyph-name="uni0458" unicode="&#x458;" horiz-adv-x="266" 
d="M211 683q0 -31 -21.5 -52.5t-52.5 -21.5q-30 0 -51.5 21.5t-21.5 52.5q0 30 21.5 51.5t51.5 21.5q31 0 52.5 -21.5t21.5 -51.5zM192 500v-553q0 -80 -47.5 -123t-120.5 -43q-28 0 -47 3v96q14 -2 27 -2q78 0 78 85v537h110z" />
    <glyph glyph-name="uni0459" unicode="&#x459;" horiz-adv-x="822" 
d="M114 500h402v-198h110q82 0 125 -45t43 -104q0 -60 -43 -106.5t-125 -46.5h-220v402h-182v-237q0 -85 -42.5 -129t-107.5 -44q-35 0 -54 4v95q22 -2 33 -2q31 0 46 20.5t15 72.5v318zM516 207v-112h102q33 0 51.5 14.5t18.5 40.5q0 27 -18.5 42t-51.5 15h-102z" />
    <glyph glyph-name="uni045A" unicode="&#x45a;" horiz-adv-x="831" 
d="M635 302q82 0 125.5 -45t43.5 -104q0 -60 -43.5 -106.5t-125.5 -46.5h-220v204h-231v-204h-110v500h110v-198h231v198h110v-198h110zM628 95q32 0 50.5 14.5t18.5 40.5q0 27 -18.5 42t-50.5 15h-103v-112h103z" />
    <glyph glyph-name="uni045B" unicode="&#x45b;" horiz-adv-x="594" 
d="M74 582h-82v79h82v89h110v-89h170v-79h-170v-150q47 78 152 78q87 0 139 -57t52 -152v-301h-110v283q0 59 -28 93t-76 34q-57 0 -93 -43t-36 -121v-246h-110v582z" />
    <glyph glyph-name="uni045C" unicode="&#x45c;" horiz-adv-x="537" 
d="M251 560l100 190h133l-148 -190h-85zM74 0v500h110v-214l197 214h134l-226 -246l262 -254h-146l-221 213v-213h-110z" />
    <glyph glyph-name="uni045E" unicode="&#x45e;" horiz-adv-x="558" 
d="M446 735q0 -75 -48 -120.5t-118 -45.5t-118 45.5t-48 120.5v15h78v-15q0 -46 25 -72.5t63 -26.5t63 26.5t25 72.5v15h78v-15zM555 500l-260 -577q-33 -74 -76.5 -108t-108.5 -34q-40 0 -61 5v95q30 -2 49 -2q56 0 90 73l33 73l-216 475h121l157 -346l150 346h122z" />
    <glyph glyph-name="uni045F" unicode="&#x45f;" horiz-adv-x="602" 
d="M528 0h-176v-125h-101v125h-177v500h110v-401h234v401h110v-500z" />
    <glyph glyph-name="uni0462" unicode="&#x462;" horiz-adv-x="731" 
d="M327 429h126q109 0 175.5 -59.5t66.5 -155.5q0 -95 -67 -154.5t-175 -59.5h-243v525h-182v101h182v84h117v-84h222v-101h-222v-96zM327 109h123q62 0 96 27t34 78t-34.5 78.5t-95.5 27.5h-123v-211z" />
    <glyph glyph-name="uni0463" unicode="&#x463;" horiz-adv-x="555" 
d="M18 421v79h106v250h110v-250h186v-79h-186v-86h105q91 0 137.5 -50.5t46.5 -115.5q0 -66 -46.5 -117.5t-137.5 -51.5h-215v421h-106zM330 238h-96v-141h96q41 0 64 18.5t23 52.5q0 70 -87 70z" />
    <glyph glyph-name="uni0472" unicode="&#x472;" horiz-adv-x="817" 
d="M776 355q0 -153 -107 -260t-260 -107t-260 106.5t-107 260.5t107 260.5t260 106.5t260 -107t107 -260zM296 430q50 0 119 -21.5t106 -21.5q71 0 128 34q-21 83 -87 135.5t-153 52.5q-95 0 -164 -61.5t-82 -154.5q60 37 133 37zM296 326q-67 0 -129 -34
q21 -84 87.5 -137.5t154.5 -53.5q95 0 164.5 62.5t81.5 157.5q-60 -38 -134 -38q-42 0 -115.5 21.5t-109.5 21.5z" />
    <glyph glyph-name="uni0473" unicode="&#x473;" horiz-adv-x="599" 
d="M562 250q0 -109 -75.5 -184.5t-186.5 -75.5t-186.5 75.5t-75.5 184.5t75.5 184.5t186.5 75.5t186.5 -75.5t75.5 -184.5zM300 408q-56 0 -96 -33.5t-51 -86.5h293q-11 53 -51 86.5t-95 33.5zM300 92q55 0 95 33t51 86h-293q11 -53 51.5 -86t95.5 -33z" />
    <glyph glyph-name="uni0474" unicode="&#x474;" horiz-adv-x="781" 
d="M135 710l221 -530l161 386q36 88 76 122t104 34q36 0 66 -8v-110q-56 9 -82.5 -5t-52.5 -74l-221 -525h-102l-299 710h129z" />
    <glyph glyph-name="uni0475" unicode="&#x475;" horiz-adv-x="600" 
d="M488 352l-161 -352h-97l-226 500h122l152 -350l98 223q32 75 67.5 106t89.5 31q36 0 54 -6v-97q-41 5 -61 -5.5t-38 -49.5z" />
    <glyph glyph-name="uni0490" unicode="&#x490;" horiz-adv-x="517" 
d="M87 0v710h302v148h108v-260h-292v-598h-118z" />
    <glyph glyph-name="uni0491" unicode="&#x491;" horiz-adv-x="419" 
d="M74 0v500h227v125h101v-223h-218v-402h-110z" />
    <glyph glyph-name="uni0492" unicode="&#x492;" horiz-adv-x="542" 
d="M20 304v106h90v300h410v-112h-292v-188h171v-106h-171v-304h-118v304h-90z" />
    <glyph glyph-name="uni0493" unicode="&#x493;" horiz-adv-x="444" 
d="M99 0v212h-80v80h80v208h328v-98h-218v-110h118v-80h-118v-212h-110z" />
    <glyph glyph-name="uni0496" unicode="&#x496;" horiz-adv-x="1017" 
d="M137 0h-150l337 356l-307 354h141l279 -322v322h117v-322l280 322h141l-307 -354l231 -244h113v-260h-108v148h-49l-301 315v-315h-117v314z" />
    <glyph glyph-name="uni0497" unicode="&#x497;" horiz-adv-x="821" 
d="M133 0h-140l251 254l-217 246h131l187 -214v214h110v-213l186 213h131l-216 -246l154 -156h102v-223h-100v125h-45l-212 213v-213h-110v214z" />
    <glyph glyph-name="uni049A" unicode="&#x49a;" horiz-adv-x="707" 
d="M87 0v710h116v-306l285 306h148l-315 -339l268 -259h120v-260h-108v148h-53l-345 332v-332h-116z" />
    <glyph glyph-name="uni049B" unicode="&#x49b;" horiz-adv-x="558" 
d="M74 0v500h110v-214l197 214h134l-226 -246l161 -156h105v-223h-100v125h-50l-221 213v-213h-110z" />
    <glyph glyph-name="uni04A2" unicode="&#x4a2;" horiz-adv-x="797" 
d="M87 0v710h117v-294h351v294h117v-598h92v-260h-108v148h-101v305h-351v-305h-117z" />
    <glyph glyph-name="uni04A3" unicode="&#x4a3;" horiz-adv-x="647" 
d="M74 0v500h110v-198h241v198h110v-402h80v-223h-100v125h-90v204h-241v-204h-110z" />
    <glyph glyph-name="uni04AE" unicode="&#x4ae;" horiz-adv-x="681" 
d="M282 0v300l-269 410h137l190 -294l191 294h138l-270 -411v-299h-117z" />
    <glyph glyph-name="uni04AF" unicode="&#x4af;" horiz-adv-x="560" 
d="M225 -209v208l-221 501h123l153 -364l153 364h123l-221 -501v-208h-110z" />
    <glyph glyph-name="uni04B0" unicode="&#x4b0;" horiz-adv-x="676" 
d="M279 0v193h-152v106h152v1l-269 410h137l190 -294l191 294h138l-270 -411h151v-106h-151v-193h-117z" />
    <glyph glyph-name="uni04B1" unicode="&#x4b1;" horiz-adv-x="560" 
d="M93 -80v80h132l-221 500h123l153 -364l153 364h123l-221 -500h133v-80h-133v-129h-110v129h-132z" />
    <glyph glyph-name="uni04B2" unicode="&#x4b2;" horiz-adv-x="721" 
d="M607 -148v148h-63l-202 266l-202 -266h-141l271 360l-258 350h138l192 -258l191 258h138l-258 -351l187 -247h115v-260h-108z" />
    <glyph glyph-name="uni04B3" unicode="&#x4b3;" horiz-adv-x="571" 
d="M5 0l199 249l-188 251h131l126 -168l126 168h132l-188 -251l121 -151h93v-223h-100v125h-48l-135 169l-135 -169h-134z" />
    <glyph glyph-name="uni04B6" unicode="&#x4b6;" horiz-adv-x="723" 
d="M582 -148v148h-101v341q-63 -87 -197 -87q-106 0 -173 66t-67 175v215h118v-190q0 -77 38.5 -115.5t107.5 -38.5q73 0 123 47t50 138v159h118v-598h91v-260h-108z" />
    <glyph glyph-name="uni04B7" unicode="&#x4b7;" horiz-adv-x="590" 
d="M458 -125v125h-89v218q-19 -26 -58.5 -42.5t-88.5 -16.5q-83 0 -133.5 49t-50.5 140v152h110v-140q0 -103 103 -103q46 0 82 31t36 92v120h110v-402h79v-223h-100z" />
    <glyph glyph-name="uni04BA" unicode="&#x4ba;" horiz-adv-x="686" 
d="M87 710h118v-341q63 87 197 87q106 0 173 -66t67 -175v-215h-118v190q0 77 -38.5 115.5t-107.5 38.5q-73 0 -123 -47t-50 -138v-159h-118v710z" />
    <glyph glyph-name="uni04BB" unicode="&#x4bb;" horiz-adv-x="594" 
d="M74 0v750h110v-318q47 78 152 78q87 0 139 -57t52 -152v-301h-110v283q0 59 -28 93t-76 34q-57 0 -93 -43t-36 -121v-246h-110z" />
    <glyph glyph-name="uni04C0" unicode="&#x4c0;" horiz-adv-x="291" 
d="M87 0v710h117v-710h-117z" />
    <glyph glyph-name="uni04CF" unicode="&#x4cf;" horiz-adv-x="258" 
d="M74 0v750h110v-750h-110z" />
    <glyph glyph-name="uni04D8" unicode="&#x4d8;" horiz-adv-x="810" 
d="M768 355q0 -154 -106.5 -260.5t-260.5 -106.5q-155 0 -261 106.5t-106 260.5v54h610q-19 94 -89.5 147t-156.5 53q-59 0 -111 -22t-86 -59l-79 80q50 53 123.5 83.5t155.5 30.5q152 0 259.5 -106.5t107.5 -260.5zM401 101q88 0 158.5 55.5t85.5 148.5h-488
q13 -88 81.5 -146t162.5 -58z" />
    <glyph glyph-name="uni04D9" unicode="&#x4d9;" horiz-adv-x="580" 
d="M541 250q0 -111 -74 -185.5t-187 -74.5q-103 0 -172 66t-70 182q0 20 2 36h392q-4 61 -47 98.5t-106 37.5q-97 0 -144 -76l-84 60q75 116 229 116q114 0 187.5 -73t73.5 -187zM283 83q51 0 92 29t52 82h-278q9 -52 46.5 -81.5t87.5 -29.5z" />
    <glyph glyph-name="uni04E2" unicode="&#x4e2;" horiz-adv-x="793" 
d="M240 798v82h332v-82h-332zM87 0v710h118v-509l399 509h102v-710h-117v511l-400 -511h-102z" />
    <glyph glyph-name="uni04E3" unicode="&#x4e3;" horiz-adv-x="611" 
d="M147 628v82h332v-82h-332zM74 0v500h110v-333l255 333h98v-500h-110v333l-255 -333h-98z" />
    <glyph glyph-name="uni04E8" unicode="&#x4e8;" horiz-adv-x="817" 
d="M776 355q0 -153 -107 -260t-260 -107t-260 106.5t-107 260.5t107 260.5t260 106.5t260 -107t107 -260zM409 609q-91 0 -159 -57t-85 -144h487q-17 87 -85 144t-158 57zM409 101q90 0 158 57t85 144h-487q17 -87 85 -144t159 -57z" />
    <glyph glyph-name="uni04E9" unicode="&#x4e9;" horiz-adv-x="599" 
d="M562 250q0 -109 -75.5 -184.5t-186.5 -75.5t-186.5 75.5t-75.5 184.5t75.5 184.5t186.5 75.5t186.5 -75.5t75.5 -184.5zM300 408q-56 0 -96 -33.5t-51 -86.5h293q-11 53 -51 86.5t-95 33.5zM300 92q55 0 95 33t51 86h-293q11 -53 51.5 -86t95.5 -33z" />
    <glyph glyph-name="uni04EE" unicode="&#x4ee;" horiz-adv-x="710" 
d="M207 798v82h332v-82h-332zM133 -6v109q36 -4 62 -4q36 0 63 16t48 57l-278 538h134l210 -409l211 409h131l-286 -552q-47 -92 -96.5 -131t-121.5 -39q-31 0 -77 6z" />
    <glyph glyph-name="uni04EF" unicode="&#x4ef;" horiz-adv-x="558" 
d="M114 628v82h332v-82h-332zM555 500l-260 -577q-33 -74 -76.5 -108t-108.5 -34q-40 0 -61 5v95q30 -2 49 -2q56 0 90 73l33 73l-216 475h121l157 -346l150 346h122z" />
    <glyph glyph-name="Wgrave" unicode="&#x1e80;" horiz-adv-x="953" 
d="M516 770h-86l-118 157h129zM642 0l-165 434l-165 -434h-108l-183 710h123l130 -516l203 528l203 -528l130 516h124l-184 -710h-108z" />
    <glyph glyph-name="wgrave" unicode="&#x1e81;" horiz-adv-x="780" 
d="M347 560l-148 190h133l100 -190h-85zM500 0l-110 324l-109 -324h-104l-168 500h116l108 -344l115 344h84l114 -344l109 344h117l-168 -500h-104z" />
    <glyph glyph-name="Wacute" unicode="&#x1e82;" horiz-adv-x="953" 
d="M442 770l75 157h129l-118 -157h-86zM642 0l-165 434l-165 -434h-108l-183 710h123l130 -516l203 528l203 -528l130 516h124l-184 -710h-108z" />
    <glyph glyph-name="wacute" unicode="&#x1e83;" horiz-adv-x="780" 
d="M353 560l100 190h133l-148 -190h-85zM500 0l-110 324l-109 -324h-104l-168 500h116l108 -344l115 344h84l114 -344l109 344h117l-168 -500h-104z" />
    <glyph glyph-name="Wdieresis" unicode="&#x1e84;" horiz-adv-x="953" 
d="M428 845q0 -27 -19 -46.5t-46 -19.5q-28 0 -47.5 19.5t-19.5 46.5q0 28 19.5 47.5t47.5 19.5q27 0 46 -19.5t19 -47.5zM658 845q0 -27 -19 -46.5t-47 -19.5q-27 0 -46.5 19.5t-19.5 46.5q0 28 19.5 47.5t46.5 19.5q28 0 47 -19.5t19 -47.5zM642 0l-165 434l-165 -434
h-108l-183 710h123l130 -516l203 528l203 -528l130 516h124l-184 -710h-108z" />
    <glyph glyph-name="wdieresis" unicode="&#x1e85;" horiz-adv-x="780" 
d="M342 653q0 -27 -19 -46.5t-46 -19.5q-28 0 -47.5 19.5t-19.5 46.5q0 28 19.5 47.5t47.5 19.5q27 0 46 -19.5t19 -47.5zM572 653q0 -27 -19 -46.5t-47 -19.5q-27 0 -46.5 19.5t-19.5 46.5q0 28 19.5 47.5t46.5 19.5q28 0 47 -19.5t19 -47.5zM500 0l-110 324l-109 -324
h-104l-168 500h116l108 -344l115 344h84l114 -344l109 344h117l-168 -500h-104z" />
    <glyph glyph-name="uni1E9E" unicode="&#x1e9e;" horiz-adv-x="640" 
d="M87 0v710h461v-79l-116 -179q166 -43 166 -217q0 -111 -71 -173t-187 -62h-41v112h44q60 0 98.5 32t38.5 91t-38.5 91.5t-98.5 32.5h-44v84l105 160h-200v-603h-117z" />
    <glyph glyph-name="uni1ECA" unicode="&#x1eca;" horiz-adv-x="291" 
d="M87 0v710h117v-710h-117zM212 -137q0 -28 -19.5 -47.5t-46.5 -19.5q-28 0 -47.5 19.5t-19.5 47.5q0 27 19.5 46.5t47.5 19.5q27 0 46.5 -19.5t19.5 -46.5z" />
    <glyph glyph-name="uni1ECB" unicode="&#x1ecb;" horiz-adv-x="258" 
d="M202 683q0 -31 -21 -52.5t-52 -21.5q-30 0 -52 21.5t-22 52.5q0 30 22 51.5t52 21.5q31 0 52 -21.5t21 -51.5zM74 0v500h110v-500h-110zM196 -137q0 -28 -19.5 -47.5t-46.5 -19.5q-28 0 -47.5 19.5t-19.5 47.5q0 27 19.5 46.5t47.5 19.5q27 0 46.5 -19.5t19.5 -46.5z" />
    <glyph glyph-name="uni1ECC" unicode="&#x1ecc;" horiz-adv-x="817" 
d="M776 355q0 -153 -107 -260t-260 -107t-260 106.5t-107 260.5t107 260.5t260 106.5t260 -107t107 -260zM160 355q0 -106 72 -180t177 -74t176.5 74t71.5 180t-71.5 180t-176.5 74t-177 -74t-72 -180zM475 -137q0 -28 -19.5 -47.5t-46.5 -19.5q-28 0 -47.5 19.5t-19.5 47.5
q0 27 19.5 46.5t47.5 19.5q27 0 46.5 -19.5t19.5 -46.5z" />
    <glyph glyph-name="uni1ECD" unicode="&#x1ecd;" horiz-adv-x="599" 
d="M562 250q0 -109 -75.5 -184.5t-186.5 -75.5t-186.5 75.5t-75.5 184.5t75.5 184.5t186.5 75.5t186.5 -75.5t75.5 -184.5zM149 250q0 -67 42.5 -112.5t108.5 -45.5q65 0 107.5 45.5t42.5 112.5t-42.5 112.5t-107.5 45.5q-66 0 -108.5 -45.5t-42.5 -112.5zM366 -137
q0 -28 -19.5 -47.5t-46.5 -19.5q-28 0 -47.5 19.5t-19.5 47.5q0 27 19.5 46.5t47.5 19.5q27 0 46.5 -19.5t19.5 -46.5z" />
    <glyph glyph-name="uni1EE4" unicode="&#x1ee4;" horiz-adv-x="723" 
d="M644 278q0 -131 -78.5 -210.5t-203.5 -79.5q-126 0 -204.5 79t-78.5 211v432h117v-434q0 -82 45 -128.5t121 -46.5q75 0 120 46.5t45 128.5v434h117v-432zM428 -137q0 -28 -19.5 -47.5t-46.5 -19.5q-28 0 -47.5 19.5t-19.5 47.5q0 27 19.5 46.5t47.5 19.5
q27 0 46.5 -19.5t19.5 -46.5z" />
    <glyph glyph-name="uni1EE5" unicode="&#x1ee5;" horiz-adv-x="583" 
d="M67 201v299h110v-281q0 -60 26 -94.5t74 -34.5q55 0 88.5 43t33.5 121v246h110v-500h-110v68q-45 -78 -146 -78q-86 0 -136 57.5t-50 153.5zM357 -137q0 -28 -19.5 -47.5t-46.5 -19.5q-28 0 -47.5 19.5t-19.5 47.5q0 27 19.5 46.5t47.5 19.5q27 0 46.5 -19.5t19.5 -46.5z
" />
    <glyph glyph-name="Ygrave" unicode="&#x1ef2;" horiz-adv-x="681" 
d="M379 770h-86l-118 157h129zM282 0v300l-269 410h137l190 -294l191 294h138l-270 -411v-299h-117z" />
    <glyph glyph-name="ygrave" unicode="&#x1ef3;" horiz-adv-x="558" 
d="M237 560l-148 190h133l100 -190h-85zM234 -209h-121l107 236l-215 473h121l154 -354l153 354h122z" />
    <glyph glyph-name="uni2007" unicode="&#x2007;" horiz-adv-x="590" 
 />
    <glyph glyph-name="uni2008" unicode="&#x2008;" horiz-adv-x="265" 
 />
    <glyph glyph-name="uni2009" unicode="&#x2009;" horiz-adv-x="125" 
 />
    <glyph glyph-name="uni200B" unicode="&#x200b;" 
 />
    <glyph glyph-name="endash" unicode="&#x2013;" horiz-adv-x="575" 
d="M62 226v108h452v-108h-452z" />
    <glyph glyph-name="emdash" unicode="&#x2014;" horiz-adv-x="751" 
d="M62 226v108h628v-108h-628z" />
    <glyph glyph-name="quoteleft" unicode="&#x2018;" horiz-adv-x="262" 
d="M52 538l108 172h68l-70 -147q22 -10 36 -31.5t14 -47.5q0 -35 -25 -60.5t-61 -25.5t-61 25.5t-25 60.5q0 28 16 54z" />
    <glyph glyph-name="quoteright" unicode="&#x2019;" horiz-adv-x="266" 
d="M222 581l-108 -171h-68l70 146q-21 10 -35.5 31.5t-14.5 47.5q0 36 25.5 61.5t60.5 25.5q36 0 61.5 -25.5t25.5 -61.5q0 -25 -17 -54z" />
    <glyph glyph-name="quotesinglbase" unicode="&#x201a;" horiz-adv-x="268" 
d="M203 25l-107 -172h-68l69 147q-21 10 -35 31t-14 48q0 36 25 61.5t61 25.5t61 -25.5t25 -61.5q0 -27 -17 -54z" />
    <glyph glyph-name="quotedblleft" unicode="&#x201c;" horiz-adv-x="469" 
d="M52 538l108 172h68l-70 -147q22 -10 36 -31.5t14 -47.5q0 -35 -25 -60.5t-61 -25.5t-61 25.5t-25 60.5q0 28 16 54zM259 538l108 172h68l-70 -147q22 -10 36 -31.5t14 -47.5q0 -35 -25 -60.5t-61 -25.5t-61 25.5t-25 60.5q0 28 16 54z" />
    <glyph glyph-name="quotedblright" unicode="&#x201d;" horiz-adv-x="473" 
d="M222 581l-108 -171h-68l70 146q-21 10 -35.5 31.5t-14.5 47.5q0 36 25.5 61.5t60.5 25.5q36 0 61.5 -25.5t25.5 -61.5q0 -25 -17 -54zM429 581l-108 -171h-68l70 146q-21 10 -35.5 31.5t-14.5 47.5q0 36 25.5 61.5t60.5 25.5q36 0 61.5 -25.5t25.5 -61.5q0 -25 -17 -54z
" />
    <glyph glyph-name="quotedblbase" unicode="&#x201e;" horiz-adv-x="475" 
d="M203 25l-107 -172h-68l69 147q-21 10 -35 31t-14 48q0 36 25 61.5t61 25.5t61 -25.5t25 -61.5q0 -27 -17 -54zM410 25l-107 -172h-68l69 147q-21 10 -35 31t-14 48q0 36 25 61.5t61 25.5t61 -25.5t25 -61.5q0 -27 -17 -54z" />
    <glyph glyph-name="dagger" unicode="&#x2020;" horiz-adv-x="511" 
d="M208 -98v507h-180v91h180v210h96v-210h179v-91h-179v-507h-96z" />
    <glyph glyph-name="daggerdbl" unicode="&#x2021;" horiz-adv-x="540" 
d="M498 112h-180v-210h-96v210h-179v91h179v206h-179v91h179v210h96v-210h180v-91h-180v-206h180v-91z" />
    <glyph glyph-name="bullet" unicode="&#x2022;" horiz-adv-x="410" 
d="M342 302q0 -56 -40.5 -96t-96.5 -40t-96 40t-40 96t40 96t96 40t96.5 -40t40.5 -96z" />
    <glyph glyph-name="ellipsis" unicode="&#x2026;" horiz-adv-x="758" 
d="M466 79q0 -36 -25.5 -61.5t-61.5 -25.5q-35 0 -60.5 25.5t-25.5 61.5q0 35 25.5 61t60.5 26q36 0 61.5 -26t25.5 -61zM718 79q0 -36 -25.5 -61.5t-61.5 -25.5q-35 0 -60.5 25.5t-25.5 61.5q0 35 25.5 61t60.5 26q36 0 61.5 -26t25.5 -61zM213 79q0 -36 -25.5 -61.5
t-61.5 -25.5q-35 0 -60.5 25.5t-25.5 61.5q0 35 25.5 61t60.5 26q36 0 61.5 -26t25.5 -61z" />
    <glyph glyph-name="perthousand" unicode="&#x2030;" horiz-adv-x="1407" 
d="M424 521q0 -81 -58 -139t-139 -58q-82 0 -139.5 58t-57.5 139q0 82 57.5 139.5t139.5 57.5q81 0 139 -57.5t58 -139.5zM210 0l450 710h116l-450 -710h-116zM127 521q0 -42 29 -71.5t71 -29.5t71 29.5t29 71.5t-29 71.5t-71 29.5t-71 -29.5t-29 -71.5zM1377 189
q0 -81 -58 -139t-139 -58q-82 0 -139.5 58t-57.5 139q0 82 57.5 139.5t139.5 57.5q81 0 139 -57.5t58 -139.5zM956 189q0 -81 -58 -139t-139 -58q-82 0 -139.5 58t-57.5 139q0 82 57.5 139.5t139.5 57.5q81 0 139 -57.5t58 -139.5zM1079 189q0 -41 29.5 -71t71.5 -30
q41 0 70 30t29 71t-29 71t-70 30q-42 0 -71.5 -30t-29.5 -71zM658 189q0 -41 29.5 -71t71.5 -30q41 0 70 30t29 71t-29 71t-70 30q-42 0 -71.5 -30t-29.5 -71z" />
    <glyph glyph-name="guilsinglleft" unicode="&#x2039;" horiz-adv-x="312" 
d="M36 250l141 217h95l-116 -217l116 -217h-95z" />
    <glyph glyph-name="guilsinglright" unicode="&#x203a;" horiz-adv-x="312" 
d="M276 250l-141 -217h-95l116 217l-116 217h95z" />
    <glyph glyph-name="fraction" unicode="&#x2044;" horiz-adv-x="180" 
d="M-208 0l500 710h98l-500 -710h-98z" />
    <glyph glyph-name="uni2060" unicode="&#x2060;" horiz-adv-x="237" 
 />
    <glyph glyph-name="zero.superior" unicode="&#x2070;" horiz-adv-x="390" 
d="M356 573q0 -74 -45 -121.5t-115 -47.5q-72 0 -117 47.5t-45 121.5v106q0 75 45 122.5t117 47.5q70 0 115 -48t45 -122v-106zM117 573q0 -41 21.5 -64.5t57.5 -23.5q34 0 55.5 23.5t21.5 64.5v106q0 41 -21.5 64.5t-55.5 23.5q-36 0 -57.5 -23.5t-21.5 -64.5v-106z" />
    <glyph glyph-name="four.superior" unicode="&#x2074;" horiz-adv-x="392" 
d="M232 410v99h-215v67l224 266h74v-257h56v-76h-56v-99h-83zM232 585v135l-113 -135h113z" />
    <glyph glyph-name="five.superior" unicode="&#x2075;" horiz-adv-x="349" 
d="M22 535h85q5 -22 24 -36t46 -14q28 0 47 19t19 48t-19 48t-48 19q-49 0 -66 -44l-74 22l46 245h212v-81h-147l-16 -81q23 14 60 14q61 0 97.5 -41t36.5 -104q0 -64 -41 -104.5t-106 -40.5q-63 0 -108.5 37t-47.5 94z" />
    <glyph glyph-name="six.superior" unicode="&#x2076;" horiz-adv-x="341" 
d="M319 552q0 -64 -41.5 -106t-108.5 -42t-109 42t-42 102q0 33 11 56t39 63l129 175h102l-112 -152q52 -2 92 -40t40 -98zM101 551q0 -29 19 -48.5t49 -19.5q28 0 47 19.5t19 48.5t-19 48.5t-47 19.5q-30 0 -49 -19.5t-19 -48.5z" />
    <glyph glyph-name="seven.superior" unicode="&#x2077;" horiz-adv-x="339" 
d="M127 410h-93l195 351h-202v81h300v-72z" />
    <glyph glyph-name="eight.superior" unicode="&#x2078;" horiz-adv-x="362" 
d="M334 541q0 -60 -43.5 -98.5t-109.5 -38.5t-109.5 38.5t-43.5 98.5q0 70 57 105q-37 34 -37 87q0 49 37 82.5t96 33.5t95.5 -33.5t36.5 -82.5q0 -54 -37 -87q58 -34 58 -105zM127 725q0 -21 15.5 -35.5t38.5 -14.5q24 0 39.5 14.5t15.5 35.5q0 22 -16 36.5t-39 14.5
t-38.5 -14.5t-15.5 -36.5zM113 544q0 -26 18.5 -45t49.5 -19t49.5 19t18.5 45q0 27 -18.5 46t-49.5 19t-49.5 -19t-18.5 -46z" />
    <glyph glyph-name="nine.superior" unicode="&#x2079;" horiz-adv-x="341" 
d="M42 410l111 152q-51 2 -91 40t-40 99q0 64 41.5 106t109.5 42q67 0 108.5 -42t41.5 -102q0 -33 -11 -57t-39 -63l-129 -175h-102zM106 701q0 -28 19 -48t48 -20t48 20t19 48q0 29 -19 48.5t-48 19.5t-48 -19.5t-19 -48.5z" />
    <glyph glyph-name="zero.inferior" unicode="&#x2080;" horiz-adv-x="390" 
d="M356 48q0 -74 -45 -121.5t-115 -47.5q-72 0 -117 47.5t-45 121.5v106q0 75 45 122.5t117 47.5q70 0 115 -48t45 -122v-106zM117 48q0 -41 21.5 -64.5t57.5 -23.5q34 0 55.5 23.5t21.5 64.5v106q0 41 -21.5 64.5t-55.5 23.5q-36 0 -57.5 -23.5t-21.5 -64.5v-106z" />
    <glyph glyph-name="one.inferior" unicode="&#x2081;" horiz-adv-x="235" 
d="M98 -115v350h-91l60 82h114v-432h-83z" />
    <glyph glyph-name="two.inferior" unicode="&#x2082;" horiz-adv-x="354" 
d="M322 -34v-81h-293v28q0 18 4 34.5t8 28.5t15.5 26.5l17 21.5t23 21t22.5 17.5l25.5 18t23.5 16.5q68 48 68 92q0 23 -16 38t-42 15q-28 0 -46.5 -17.5t-18.5 -43.5h-83q0 63 43 103t107 40q58 0 98.5 -35t40.5 -98q0 -52 -22.5 -85.5t-68.5 -66.5l-23 -15.5t-26.5 -18.5
t-20.5 -18t-15 -21h179z" />
    <glyph glyph-name="three.inferior" unicode="&#x2083;" horiz-adv-x="365" 
d="M335 8q0 -57 -41.5 -93t-107.5 -36q-65 0 -112 39t-49 107h82q8 -65 79 -65q29 0 47.5 15t18.5 40q0 27 -19.5 42.5t-52.5 15.5h-36v67h34q29 0 45 14.5t16 37.5q1 22 -15.5 36t-40.5 14q-29 0 -48 -17t-19 -44h-82q0 65 44.5 104t105.5 39q64 0 101.5 -35.5t37.5 -89.5
q-1 -60 -48 -93q26 -12 43 -37.5t17 -60.5z" />
    <glyph glyph-name="four.inferior" unicode="&#x2084;" horiz-adv-x="392" 
d="M232 -115v99h-215v67l224 266h74v-257h56v-76h-56v-99h-83zM232 60v135l-113 -135h113z" />
    <glyph glyph-name="five.inferior" unicode="&#x2085;" horiz-adv-x="349" 
d="M21 10h85q5 -22 24 -36t46 -14q28 0 47 19t19 48t-19 48t-48 19q-49 0 -66 -44l-74 22l46 245h212v-81h-147l-16 -81q23 14 60 14q61 0 97.5 -41t36.5 -104q0 -64 -41 -104.5t-106 -40.5q-63 0 -108.5 37t-47.5 94z" />
    <glyph glyph-name="six.inferior" unicode="&#x2086;" horiz-adv-x="341" 
d="M319 27q0 -64 -41.5 -106t-108.5 -42t-109 42t-42 102q0 33 11 56t39 63l129 175h102l-112 -152q52 -2 92 -40t40 -98zM101 26q0 -29 19 -48.5t49 -19.5q28 0 47 19.5t19 48.5t-19 48.5t-47 19.5q-30 0 -49 -19.5t-19 -48.5z" />
    <glyph glyph-name="seven.inferior" unicode="&#x2087;" horiz-adv-x="339" 
d="M127 -115h-93l195 351h-202v81h300v-72z" />
    <glyph glyph-name="eight.inferior" unicode="&#x2088;" horiz-adv-x="362" 
d="M334 16q0 -60 -43.5 -98.5t-109.5 -38.5t-109.5 38.5t-43.5 98.5q0 70 57 105q-37 34 -37 87q0 49 37 82.5t96 33.5t95.5 -33.5t36.5 -82.5q0 -54 -37 -87q58 -34 58 -105zM127 200q0 -21 15.5 -35.5t38.5 -14.5q24 0 39.5 14.5t15.5 35.5q0 22 -16 36.5t-39 14.5
t-38.5 -14.5t-15.5 -36.5zM113 19q0 -26 18.5 -45t49.5 -19t49.5 19t18.5 45q0 27 -18.5 46t-49.5 19t-49.5 -19t-18.5 -46z" />
    <glyph glyph-name="nine.inferior" unicode="&#x2089;" horiz-adv-x="341" 
d="M42 -115l111 152q-51 2 -91 40t-40 99q0 64 41.5 106t109.5 42q67 0 108.5 -42t41.5 -102q0 -33 -11 -57t-39 -63l-129 -175h-102zM106 176q0 -28 19 -48t48 -20t48 20t19 48q0 29 -19 48.5t-48 19.5t-48 -19.5t-19 -48.5z" />
    <glyph glyph-name="Euro" unicode="&#x20ac;" horiz-adv-x="874" 
d="M31 258l23 55h76q-2 28 -2 42q0 16 2 44h-99l23 55h87q32 119 129.5 193.5t226.5 74.5q114 0 204 -59.5t132 -162.5h-125q-69 114 -211 114q-85 0 -148.5 -43.5t-91.5 -116.5h390l-23 -55h-382q-3 -21 -3 -44q0 -21 3 -42h346l-22 -55h-310q27 -74 91 -118t150 -44
q142 0 211 114h125q-42 -103 -132 -162.5t-204 -59.5q-130 0 -228 74.5t-129 195.5h-109z" />
    <glyph glyph-name="uni20B4" unicode="&#x20b4;" horiz-adv-x="602" 
d="M45 391v56h336q35 28 35 75q0 44 -28 70.5t-78 26.5q-43 0 -74 -23.5t-40 -64.5h-110q9 86 70.5 138.5t155.5 52.5q96 0 155 -51.5t59 -134.5q0 -53 -25 -89h54v-56h-510zM45 272v56h510v-56h-335q-39 -27 -39 -77q0 -46 34 -75t87 -29q111 0 122 111h110
q-6 -107 -71 -160.5t-162 -53.5q-100 0 -165 54.5t-65 137.5q0 57 28 92h-54z" />
    <glyph glyph-name="uni20B8" unicode="&#x20b8;" horiz-adv-x="595" 
d="M33 654v56h529v-56h-529zM242 0v483h-209v108h529v-108h-210v-483h-110z" />
    <glyph glyph-name="uni20BD" unicode="&#x20bd;" horiz-adv-x="617" 
d="M136 0v137h-86v56h86v75h-86v106h86v336h209q108 0 174.5 -60.5t66.5 -160.5q0 -99 -66.5 -160t-174.5 -61h-99v-75h186v-56h-186v-137h-110zM246 374h97q61 0 94.5 30.5t33.5 84.5t-33.5 84t-94.5 30h-97v-229z" />
    <glyph glyph-name="afii61352" unicode="&#x2116;" horiz-adv-x="1107" 
d="M1068 560q0 -64 -45.5 -109.5t-109.5 -45.5t-109 45.5t-45 109.5t45 109.5t109 45.5t109.5 -45.5t45.5 -109.5zM706 0h-102l-400 511v-511h-117v710h102l399 -509v509h118v-710zM837 560q0 -32 22.5 -55t54.5 -23t54.5 23t22.5 55t-22.5 55t-54.5 23t-54.5 -23t-22.5 -55
zM764 282v77h299v-77h-299z" />
    <glyph glyph-name="uni2117" unicode="&#x2117;" horiz-adv-x="816" 
d="M775 355q0 -151 -107.5 -259t-259.5 -108q-151 0 -259 108t-108 259t108 259t259 108q152 0 259.5 -108t107.5 -259zM118 355q0 -120 85.5 -205t204.5 -85t204.5 85t85.5 205t-85.5 205t-204.5 85t-204.5 -85t-85.5 -205zM432 541q57 0 93.5 -36t36.5 -90q0 -53 -37 -89
t-93 -36h-47v-121h-77v372h124zM431 362q25 0 41 15t16 38t-16 38.5t-41 15.5h-46v-107h46z" />
    <glyph glyph-name="trademark" unicode="&#x2122;" horiz-adv-x="825" 
d="M392 336v374h83l97 -142l96 142h83v-374h-85v227l-94 -138l-95 139v-228h-85zM138 336v288h-105v86h298v-86h-105v-288h-88z" />
    <glyph glyph-name="uni2150" unicode="&#x2150;" horiz-adv-x="812" 
d="M99 278v350h-91l60 82h114v-432h-83zM53 0l500 710h98l-500 -710h-98zM600 0h-93l195 351h-202v81h300v-72z" />
    <glyph glyph-name="uni2151" unicode="&#x2151;" horiz-adv-x="782" 
d="M99 278v350h-91l60 82h114v-432h-83zM53 0l500 710h98l-500 -710h-98zM483 0l111 152q-51 2 -91 40t-40 99q0 64 41.5 106t109.5 42q67 0 108.5 -42t41.5 -102q0 -33 -11 -57t-39 -63l-129 -175h-102zM547 291q0 -28 19 -48t48 -20t48 20t19 48q0 29 -19 48.5t-48 19.5
t-48 -19.5t-19 -48.5z" />
    <glyph glyph-name="uni2152" unicode="&#x2152;" horiz-adv-x="1066" 
d="M99 278v350h-91l60 82h114v-432h-83zM53 0l500 710h98l-500 -710h-98zM1033 163q0 -74 -45 -121.5t-115 -47.5q-72 0 -117 47.5t-45 121.5v106q0 75 45 122.5t117 47.5q70 0 115 -48t45 -122v-106zM541 0v350h-91l60 82h114v-432h-83zM794 163q0 -41 21.5 -64.5
t57.5 -23.5q34 0 55.5 23.5t21.5 64.5v106q0 41 -21.5 64.5t-55.5 23.5q-36 0 -57.5 -23.5t-21.5 -64.5v-106z" />
    <glyph glyph-name="onethird" unicode="&#x2153;" horiz-adv-x="806" 
d="M99 278v350h-91l60 82h114v-432h-83zM53 0l500 710h98l-500 -710h-98zM776 123q0 -57 -41.5 -93t-107.5 -36q-65 0 -112 39t-49 107h82q8 -65 79 -65q29 0 47.5 15t18.5 40q0 27 -19.5 42.5t-52.5 15.5h-36v67h34q29 0 45 14.5t16 37.5q1 22 -15.5 36t-40.5 14
q-29 0 -48 -17t-19 -44h-82q0 65 44.5 104t105.5 39q64 0 101.5 -35.5t37.5 -89.5q-1 -60 -48 -93q26 -12 43 -37.5t17 -60.5z" />
    <glyph glyph-name="twothirds" unicode="&#x2154;" horiz-adv-x="912" 
d="M322 359v-81h-293v28q0 18 4 34.5t8 28.5t15.5 26.5l17 21.5t23 21t22.5 17.5l25.5 18t23.5 16.5q68 48 68 92q0 23 -16 38t-42 15q-28 0 -46.5 -17.5t-18.5 -43.5h-83q0 63 43 103t107 40q58 0 98.5 -35t40.5 -98q0 -52 -22.5 -85.5t-68.5 -66.5l-23 -15.5t-26.5 -18.5
t-20.5 -18t-15 -21h179zM159 0l500 710h98l-500 -710h-98zM882 123q0 -57 -41.5 -93t-107.5 -36q-65 0 -112 39t-49 107h82q8 -65 79 -65q29 0 47.5 15t18.5 40q0 27 -19.5 42.5t-52.5 15.5h-36v67h34q29 0 45 14.5t16 37.5q1 22 -15.5 36t-40.5 14q-29 0 -48 -17t-19 -44
h-82q0 65 44.5 104t105.5 39q64 0 101.5 -35.5t37.5 -89.5q-1 -60 -48 -93q26 -12 43 -37.5t17 -60.5z" />
    <glyph glyph-name="uni2155" unicode="&#x2155;" horiz-adv-x="790" 
d="M99 278v350h-91l60 82h114v-432h-83zM53 0l500 710h98l-500 -710h-98zM463 125h85q5 -22 24 -36t46 -14q28 0 47 19t19 48t-19 48t-48 19q-49 0 -66 -44l-74 22l46 245h212v-81h-147l-16 -81q23 14 60 14q61 0 97.5 -41t36.5 -104q0 -64 -41 -104.5t-106 -40.5
q-63 0 -108.5 37t-47.5 94z" />
    <glyph glyph-name="uni2156" unicode="&#x2156;" horiz-adv-x="896" 
d="M322 359v-81h-293v28q0 18 4 34.5t8 28.5t15.5 26.5l17 21.5t23 21t22.5 17.5l25.5 18t23.5 16.5q68 48 68 92q0 23 -16 38t-42 15q-28 0 -46.5 -17.5t-18.5 -43.5h-83q0 63 43 103t107 40q58 0 98.5 -35t40.5 -98q0 -52 -22.5 -85.5t-68.5 -66.5l-23 -15.5t-26.5 -18.5
t-20.5 -18t-15 -21h179zM159 0l500 710h98l-500 -710h-98zM569 125h85q5 -22 24 -36t46 -14q28 0 47 19t19 48t-19 48t-48 19q-49 0 -66 -44l-74 22l46 245h212v-81h-147l-16 -81q23 14 60 14q61 0 97.5 -41t36.5 -104q0 -64 -41 -104.5t-106 -40.5q-63 0 -108.5 37
t-47.5 94z" />
    <glyph glyph-name="uni2157" unicode="&#x2157;" horiz-adv-x="893" 
d="M335 401q0 -57 -41.5 -93t-107.5 -36q-65 0 -112 39t-49 107h82q8 -65 79 -65q29 0 47.5 15t18.5 40q0 27 -19.5 42.5t-52.5 15.5h-36v67h34q29 0 45 14.5t16 37.5q1 22 -15.5 36t-40.5 14q-29 0 -48 -17t-19 -44h-82q0 65 44.5 104t105.5 39q64 0 101.5 -35.5
t37.5 -89.5q-1 -60 -48 -93q26 -12 43 -37.5t17 -60.5zM157 0l500 710h98l-500 -710h-98zM567 125h85q5 -22 24 -36t46 -14q28 0 47 19t19 48t-19 48t-48 19q-49 0 -66 -44l-74 22l46 245h212v-81h-147l-16 -81q23 14 60 14q61 0 97.5 -41t36.5 -104q0 -64 -41 -104.5
t-106 -40.5q-63 0 -108.5 37t-47.5 94z" />
    <glyph glyph-name="uni2158" unicode="&#x2158;" horiz-adv-x="921" 
d="M232 278v99h-215v67l224 266h74v-257h56v-76h-56v-99h-83zM184 0l500 710h98l-500 -710h-98zM232 453v135l-113 -135h113zM594 125h85q5 -22 24 -36t46 -14q28 0 47 19t19 48t-19 48t-48 19q-49 0 -66 -44l-74 22l46 245h212v-81h-147l-16 -81q23 14 60 14q61 0 97.5 -41
t36.5 -104q0 -64 -41 -104.5t-106 -40.5q-63 0 -108.5 37t-47.5 94z" />
    <glyph glyph-name="uni2159" unicode="&#x2159;" horiz-adv-x="744" 
d="M99 278v350h-91l60 82h114v-432h-83zM53 0l500 710h98l-500 -710h-98zM722 142q0 -64 -41.5 -106t-108.5 -42t-109 42t-42 102q0 33 11 56t39 63l129 175h102l-112 -152q52 -2 92 -40t40 -98zM504 141q0 -29 19 -48.5t49 -19.5q28 0 47 19.5t19 48.5t-19 48.5t-47 19.5
q-30 0 -49 -19.5t-19 -48.5z" />
    <glyph glyph-name="uni215A" unicode="&#x215a;" horiz-adv-x="832" 
d="M22 403h85q5 -22 24 -36t46 -14q28 0 47 19t19 48t-19 48t-48 19q-49 0 -66 -44l-74 22l46 245h212v-81h-147l-16 -81q23 14 60 14q61 0 97.5 -41t36.5 -104q0 -64 -41 -104.5t-106 -40.5q-63 0 -108.5 37t-47.5 94zM141 0l500 710h98l-500 -710h-98zM810 142
q0 -64 -41.5 -106t-108.5 -42t-109 42t-42 102q0 33 11 56t39 63l129 175h102l-112 -152q52 -2 92 -40t40 -98zM592 141q0 -29 19 -48.5t49 -19.5q28 0 47 19.5t19 48.5t-19 48.5t-47 19.5q-30 0 -49 -19.5t-19 -48.5z" />
    <glyph glyph-name="oneeighth" unicode="&#x215b;" horiz-adv-x="803" 
d="M99 278v350h-91l60 82h114v-432h-83zM53 0l500 710h98l-500 -710h-98zM775 131q0 -60 -43.5 -98.5t-109.5 -38.5t-109.5 38.5t-43.5 98.5q0 70 57 105q-37 34 -37 87q0 49 37 82.5t96 33.5t95.5 -33.5t36.5 -82.5q0 -54 -37 -87q58 -34 58 -105zM568 315
q0 -21 15.5 -35.5t38.5 -14.5q24 0 39.5 14.5t15.5 35.5q0 22 -16 36.5t-39 14.5t-38.5 -14.5t-15.5 -36.5zM554 134q0 -26 18.5 -45t49.5 -19t49.5 19t18.5 45q0 27 -18.5 46t-49.5 19t-49.5 -19t-18.5 -46z" />
    <glyph glyph-name="threeeighths" unicode="&#x215c;" horiz-adv-x="906" 
d="M335 401q0 -57 -41.5 -93t-107.5 -36q-65 0 -112 39t-49 107h82q8 -65 79 -65q29 0 47.5 15t18.5 40q0 27 -19.5 42.5t-52.5 15.5h-36v67h34q29 0 45 14.5t16 37.5q1 22 -15.5 36t-40.5 14q-29 0 -48 -17t-19 -44h-82q0 65 44.5 104t105.5 39q64 0 101.5 -35.5
t37.5 -89.5q-1 -60 -48 -93q26 -12 43 -37.5t17 -60.5zM157 0l500 710h98l-500 -710h-98zM879 131q0 -60 -43.5 -98.5t-109.5 -38.5t-109.5 38.5t-43.5 98.5q0 70 57 105q-37 34 -37 87q0 49 37 82.5t96 33.5t95.5 -33.5t36.5 -82.5q0 -54 -37 -87q58 -34 58 -105zM672 315
q0 -21 15.5 -35.5t38.5 -14.5q24 0 39.5 14.5t15.5 35.5q0 22 -16 36.5t-39 14.5t-38.5 -14.5t-15.5 -36.5zM658 134q0 -26 18.5 -45t49.5 -19t49.5 19t18.5 45q0 27 -18.5 46t-49.5 19t-49.5 -19t-18.5 -46z" />
    <glyph glyph-name="fiveeighths" unicode="&#x215d;" horiz-adv-x="891" 
d="M22 403h85q5 -22 24 -36t46 -14q28 0 47 19t19 48t-19 48t-48 19q-49 0 -66 -44l-74 22l46 245h212v-81h-147l-16 -81q23 14 60 14q61 0 97.5 -41t36.5 -104q0 -64 -41 -104.5t-106 -40.5q-63 0 -108.5 37t-47.5 94zM141 0l500 710h98l-500 -710h-98zM863 131
q0 -60 -43.5 -98.5t-109.5 -38.5t-109.5 38.5t-43.5 98.5q0 70 57 105q-37 34 -37 87q0 49 37 82.5t96 33.5t95.5 -33.5t36.5 -82.5q0 -54 -37 -87q58 -34 58 -105zM656 315q0 -21 15.5 -35.5t38.5 -14.5q24 0 39.5 14.5t15.5 35.5q0 22 -16 36.5t-39 14.5t-38.5 -14.5
t-15.5 -36.5zM642 134q0 -26 18.5 -45t49.5 -19t49.5 19t18.5 45q0 27 -18.5 46t-49.5 19t-49.5 -19t-18.5 -46z" />
    <glyph glyph-name="seveneighths" unicode="&#x215e;" horiz-adv-x="823" 
d="M127 278h-93l195 351h-202v81h300v-72zM73 0l500 710h98l-500 -710h-98zM795 131q0 -60 -43.5 -98.5t-109.5 -38.5t-109.5 38.5t-43.5 98.5q0 70 57 105q-37 34 -37 87q0 49 37 82.5t96 33.5t95.5 -33.5t36.5 -82.5q0 -54 -37 -87q58 -34 58 -105zM588 315
q0 -21 15.5 -35.5t38.5 -14.5q24 0 39.5 14.5t15.5 35.5q0 22 -16 36.5t-39 14.5t-38.5 -14.5t-15.5 -36.5zM574 134q0 -26 18.5 -45t49.5 -19t49.5 19t18.5 45q0 27 -18.5 46t-49.5 19t-49.5 -19t-18.5 -46z" />
    <glyph glyph-name="uni215F" unicode="&#x215f;" horiz-adv-x="441" 
d="M99 278v350h-91l60 82h114v-432h-83zM53 0l500 710h98l-500 -710h-98z" />
    <glyph glyph-name="uni2190" unicode="&#x2190;" horiz-adv-x="819" 
d="M348 -56l-306 306l306 306l61 -64l-198 -198h551v-89h-551l198 -198z" />
    <glyph glyph-name="uni2191" unicode="&#x2191;" horiz-adv-x="701" 
d="M305 0v552l-198 -198l-63 62l306 306l306 -306l-64 -62l-197 198v-552h-90z" />
    <glyph glyph-name="uni2192" unicode="&#x2192;" horiz-adv-x="819" 
d="M472 -56l-62 63l198 198h-550v89h550l-198 198l62 64l306 -306z" />
    <glyph glyph-name="uni2193" unicode="&#x2193;" horiz-adv-x="697" 
d="M349 -12l-306 306l63 62l198 -198v552h89v-552l198 198l64 -62z" />
    <glyph glyph-name="uni2196" unicode="&#x2196;" horiz-adv-x="727" 
d="M620 -12l-434 433v-281h-88v432h433v-89h-282l434 -432z" />
    <glyph glyph-name="uni2197" unicode="&#x2197;" horiz-adv-x="727" 
d="M107 -12l-62 63l433 432h-282v89h433v-432h-88v281z" />
    <glyph glyph-name="uni2198" unicode="&#x2198;" horiz-adv-x="722" 
d="M198 0v89h282l-433 432l62 63l434 -433v281h88v-432h-433z" />
    <glyph glyph-name="uni2199" unicode="&#x2199;" horiz-adv-x="722" 
d="M612 584l63 -63l-433 -432h282v-89h-433v432h88v-281z" />
    <glyph glyph-name="uni21B0" unicode="&#x21b0;" horiz-adv-x="843" 
d="M672 -209v414h-461l198 -198l-61 -63l-306 306l306 306l61 -64l-198 -198h551v-503h-90z" />
    <glyph glyph-name="uni21B1" unicode="&#x21b1;" horiz-adv-x="843" 
d="M81 -209v503h550l-197 198l61 64l306 -306l-306 -306l-61 63l197 198h-460v-414h-90z" />
    <glyph glyph-name="uni21B2" unicode="&#x21b2;" horiz-adv-x="854" 
d="M349 -58l-306 306l306 306l61 -63l-198 -198h461v417h90v-506h-551l198 -198z" />
    <glyph glyph-name="uni21B3" unicode="&#x21b3;" horiz-adv-x="854" 
d="M506 -58l-62 64l198 198h-550v506h89v-417h461l-198 198l62 63l306 -306z" />
    <glyph glyph-name="minus" unicode="&#x2212;" horiz-adv-x="550" 
d="M64 241v97h422v-97h-422z" />
    <glyph glyph-name="commaaccent" unicode="&#xf6c3;" 
d="M-67 -287l39 90q-38 18 -38 60q0 27 19 46.5t47 19.5q27 0 46.5 -19.5t19.5 -46.5q0 -21 -13 -41l-68 -109h-52z" />
    <glyph glyph-name="cyrbreve.case" unicode="&#xf6d1;" 
d="M-166 921h77q0 -44 24 -70.5t65 -26.5t65 26.5t24 70.5h77q0 -75 -48 -120.5t-118 -45.5t-118 45.5t-48 120.5z" />
    <glyph glyph-name="cyrbreve" unicode="&#xf6d4;" 
d="M166 735q0 -75 -48 -120.5t-118 -45.5t-118 45.5t-48 120.5v15h78v-15q0 -46 25 -72.5t63 -26.5t63 26.5t25 72.5v15h78v-15z" />
    <glyph glyph-name="uniFB00" unicode="&#xfb00;" horiz-adv-x="750" 
d="M121 0v402h-104v98h104v90q0 81 47.5 123.5t123.5 42.5q46 0 82 -12v-98q-18 10 -59 10q-44 0 -64 -19.5t-20 -65.5v-71h117v-98h-117v-402h-110zM483 0v402h-83v98h83v90q0 81 47.5 123.5t123.5 42.5q44 0 82 -12v-98q-27 10 -59 10q-44 0 -64 -19.5t-20 -65.5v-71h143
v-98h-143v-402h-110z" />
    <glyph glyph-name="fi" unicode="&#xfb01;" horiz-adv-x="646" 
d="M121 0v402h-104v98h104v84q0 81 48 126.5t123 45.5q46 0 82 -12v-98q-27 10 -59 10q-44 0 -64 -19.5t-20 -65.5v-71h143v-98h-143v-402h-110zM590 683q0 -31 -21 -52.5t-52 -21.5q-30 0 -52 21.5t-22 52.5q0 30 22 51.5t52 21.5q31 0 52 -21.5t21 -51.5zM462 0v500h110
v-500h-110z" />
    <glyph glyph-name="fl" unicode="&#xfb02;" horiz-adv-x="646" 
d="M121 0v402h-104v98h104v84q0 81 48 126.5t123 45.5q46 0 82 -12v-98q-27 10 -59 10q-44 0 -64 -19.5t-20 -65.5v-71h143v-98h-143v-402h-110zM462 0v750h110v-750h-110z" />
    <glyph glyph-name="uniFB03" unicode="&#xfb03;" horiz-adv-x="1009" 
d="M952 683q0 -31 -21 -52.5t-52 -21.5q-30 0 -52 21.5t-22 52.5q0 30 22 51.5t52 21.5q31 0 52 -21.5t21 -51.5zM121 0v402h-104v98h104v90q0 81 47.5 123.5t123.5 42.5q46 0 82 -12v-98q-18 10 -59 10q-44 0 -64 -19.5t-20 -65.5v-71h117v-98h-117v-402h-110zM483 0v402
h-83v98h83v90q0 81 47.5 123.5t123.5 42.5q44 0 82 -12v-98q-27 10 -59 10q-44 0 -64 -19.5t-20 -65.5v-71h143v-98h-143v-402h-110zM824 0v500h110v-500h-110z" />
    <glyph glyph-name="uniFB04" unicode="&#xfb04;" horiz-adv-x="1009" 
d="M121 0v402h-104v98h104v90q0 81 47.5 123.5t123.5 42.5q46 0 82 -12v-98q-18 10 -59 10q-44 0 -64 -19.5t-20 -65.5v-71h117v-98h-117v-402h-110zM483 0v402h-83v98h83v90q0 81 47.5 123.5t123.5 42.5q44 0 82 -12v-98q-27 10 -59 10q-44 0 -64 -19.5t-20 -65.5v-71h143
v-98h-143v-402h-110zM824 0v750h110v-750h-110z" />
    <glyph glyph-name="uniFEFF" unicode="&#xfeff;" 
 />
    <glyph glyph-name="CR" horiz-adv-x="235" 
 />
    <glyph glyph-name="L_periodcentered" horiz-adv-x="555" 
d="M87 0v710h117v-598h325v-112h-442zM486 411q0 -27 -19.5 -46.5t-46.5 -19.5q-28 0 -47.5 19.5t-19.5 46.5q0 28 19.5 47.5t47.5 19.5q27 0 46.5 -19.5t19.5 -47.5z" />
    <glyph glyph-name="l_periodcentered" horiz-adv-x="393" 
d="M74 0v750h110v-750h-110zM392 374q0 -27 -19.5 -46.5t-46.5 -19.5q-28 0 -47.5 19.5t-19.5 46.5q0 28 19.5 47.5t47.5 19.5q27 0 46.5 -19.5t19.5 -47.5z" />
    <glyph glyph-name="uni0446.loclBGR" horiz-adv-x="631" 
d="M410 254v246h110v-363q0 -21 8.5 -30t28.5 -9h42v-223h-100v125h-5q-33 0 -54.5 17t-21.5 50v13q-48 -90 -160 -90q-87 0 -139 57t-52 152v301h110v-283q0 -59 28 -93t76 -34q57 0 93 43t36 121z" />
    <glyph glyph-name="uni043F.loclBGR" horiz-adv-x="594" 
d="M74 0v500h110v-68q47 78 152 78q87 0 139 -57t52 -152v-301h-110v283q0 59 -28 93t-76 34q-57 0 -93 -43t-36 -121v-246h-110z" />
    <glyph glyph-name="uni0437.loclBGR" horiz-adv-x="484" 
d="M-6 -106l83 68q20 -32 56 -57t83 -25q56 0 88 32.5t32 84.5q0 53 -31 86.5t-94 33.5h-69v94h67q50 0 77.5 29.5t27.5 75.5q0 42 -26.5 69t-72.5 27q-73 0 -125 -66l-70 66q76 98 206 98q88 0 141.5 -53t53.5 -129q0 -108 -78 -157q104 -52 104 -181q0 -92 -61.5 -150.5
t-163.5 -58.5q-78 0 -136 31t-92 82z" />
    <glyph glyph-name="uni0448.loclBGR" horiz-adv-x="888" 
d="M177 500v-281q0 -60 22.5 -94.5t66.5 -34.5q54 0 87 43.5t33 120.5v246h110v-281q0 -60 22 -94.5t66 -34.5q54 0 87 43.5t33 120.5v246h110v-500h-110v68q-45 -78 -142 -78q-110 0 -155 100q-20 -47 -64 -73.5t-95 -26.5q-85 0 -133 57t-48 154v299h110z" />
    <glyph glyph-name="uni0433.loclBGR" horiz-adv-x="450" 
d="M420 96q-26 -52 -79.5 -79t-121.5 -27q-79 0 -130 42t-51 113q0 59 35.5 95.5t103.5 56.5l52 15q60 17 60 59q0 21 -20 34t-47 13q-59 0 -95 -51l-76 58q54 85 168 85q78 0 128.5 -39t51.5 -104q1 -56 -32.5 -95.5t-98.5 -57.5l-44 -12q-44 -13 -60.5 -27.5t-16.5 -36.5
q0 -25 20.5 -39t50.5 -14q40 0 73 18.5t48 50.5z" />
    <glyph glyph-name="uni0438.loclBGR" horiz-adv-x="583" 
d="M67 201v299h110v-281q0 -60 26 -94.5t74 -34.5q55 0 88.5 43t33.5 121v246h110v-500h-110v68q-45 -78 -146 -78q-86 0 -136 57.5t-50 153.5z" />
    <glyph glyph-name="uni044E.loclBGR" horiz-adv-x="812" 
d="M184 301h89q16 91 84.5 150t163.5 59q109 0 180.5 -75t71.5 -185t-71.5 -185t-180.5 -75q-96 0 -165 60.5t-84 153.5h-88v-204h-110v750h110v-449zM380 250q0 -68 39.5 -112.5t101.5 -44.5t101.5 44.5t39.5 112.5t-39.5 112.5t-101.5 44.5t-101.5 -44.5t-39.5 -112.5z
" />
    <glyph glyph-name="uni0432.loclBGR" horiz-adv-x="556" 
d="M295 -10h-15q-100 0 -156.5 59t-56.5 162v332q0 101 51.5 158.5t153.5 57.5q100 0 152.5 -56t52.5 -142q0 -114 -70 -159q52 -24 81 -73.5t29 -114.5q0 -103 -60.5 -163.5t-161.5 -60.5zM177 558v-113h92q49 0 75 28.5t26 79.5q0 107 -98 107q-45 0 -70 -26t-25 -76z
M283 88h16q53 0 80 36t27 96q0 59 -31 95t-87 36h-111v-137q0 -126 106 -126z" />
    <glyph glyph-name="uni0434.loclBGR" horiz-adv-x="623" 
d="M549 34q0 -125 -71.5 -189t-188.5 -64q-72 0 -134.5 25t-99.5 67l67 79q67 -73 166 -73q65 0 108 41.5t43 114.5v46q-23 -34 -66.5 -56t-93.5 -22q-101 0 -170.5 73.5t-69.5 180.5q0 106 69.5 179.5t170.5 73.5q50 0 93.5 -21.5t66.5 -55.5v67h110v-466zM150 257
q0 -66 42.5 -109.5t106.5 -43.5t106.5 43.5t42.5 109.5t-42.5 109.5t-106.5 43.5t-106.5 -43.5t-42.5 -109.5z" />
    <glyph glyph-name="uni0439.loclBGR" horiz-adv-x="583" 
d="M454 735q0 -75 -48 -120.5t-118 -45.5t-118 45.5t-48 120.5v15h78v-15q0 -46 25 -72.5t63 -26.5t63 26.5t25 72.5v15h78v-15zM67 201v299h110v-281q0 -60 26 -94.5t74 -34.5q55 0 88.5 43t33.5 121v246h110v-500h-110v68q-45 -78 -146 -78q-86 0 -136 57.5t-50 153.5z
" />
    <glyph glyph-name="uni0431.loclSRB" horiz-adv-x="597" 
d="M558 250q0 -110 -74 -185t-185 -75q-112 0 -186 75t-74 185q0 61 27.5 114.5t77.5 86.5q-73 44 -73 132q0 78 55 122.5t166 44.5h190v-98h-191q-112 0 -112 -80t112 -80h18q107 0 178 -70.5t71 -171.5zM150 248q0 -70 41.5 -113t106.5 -43t106.5 43t41.5 113
q0 62 -41.5 104t-107.5 42q-68 0 -107.5 -41.5t-39.5 -104.5z" />
    <glyph glyph-name="uni044C.loclBGR" horiz-adv-x="495" 
d="M279 -10h-23q-93 0 -140.5 50t-47.5 122v338h110v-165h101q93 0 140.5 -51.5t47.5 -121.5t-47.5 -121t-140.5 -51zM178 162q0 -76 91 -76q92 0 92 76t-91 76h-92v-76z" />
    <glyph glyph-name="uni0449.loclBGR" horiz-adv-x="926" 
d="M177 500v-281q0 -60 22.5 -94.5t66.5 -34.5q54 0 87 43.5t33 120.5v246h110v-281q0 -60 22 -94.5t66 -34.5q54 0 87 43.5t33 120.5v246h110v-363q0 -21 9 -30t29 -9h42v-223h-101v125h-5q-32 0 -53.5 17t-21.5 50v12q-51 -89 -151 -89q-110 0 -155 100q-20 -47 -64 -73.5
t-95 -26.5q-85 0 -133 57t-48 154v299h110z" />
    <glyph glyph-name="uni0442.loclBGR" horiz-adv-x="888" 
d="M74 0v500h110v-68q46 78 142 78q112 0 155 -99q22 47 65.5 73t94.5 26q84 0 132 -57t48 -154v-299h-110v281q0 60 -22.5 94.5t-66.5 34.5q-54 0 -86.5 -43.5t-32.5 -120.5v-246h-110v281q0 60 -22.5 94.5t-66.5 34.5q-54 0 -87 -43.5t-33 -120.5v-246h-110z" />
    <glyph glyph-name="uni043A.loclBGR" horiz-adv-x="537" 
d="M74 0v750h110v-464l197 214h134l-226 -246l262 -254h-145l-222 214v-214h-110z" />
    <glyph glyph-name="uni0436.loclBGR" horiz-adv-x="800" 
d="M133 0h-140l251 254l-217 246h131l187 -214v464h110v-463l186 213h131l-216 -246l251 -254h-140l-212 213v-213h-110v214z" />
    <glyph glyph-name="uni044A.loclBGR" horiz-adv-x="577" 
d="M361 -10h-23q-93 0 -140.5 50t-47.5 122v240h-133v98h243v-165h101q93 0 140.5 -51.5t47.5 -121.5t-47.5 -121t-140.5 -51zM351 86q92 0 92 76t-91 76h-92v-76q0 -76 91 -76z" />
    <glyph glyph-name="apple" horiz-adv-x="535" 
d="M234 675l129 48l-131 -252l233 10l-415 -492l242 402l-205 -12zM360 710q0 5 5 5t5 -5t-5 -5t-5 5zM370 700q0 5 5 5t5 -5t-5 -5t-5 5zM360 700q0 5 5 5t5 -5t-5 -5t-5 5zM350 690q0 5 5 5t5 -5t-5 -5t-5 5zM360 690q0 5 5 5t5 -5t-5 -5t-5 5zM370 690q0 5 5 5t5 -5
t-5 -5t-5 5zM380 690q0 5 5 5t5 -5t-5 -5t-5 5zM350 680q0 5 5 5t5 -5t-5 -5t-5 5zM360 680q0 5 5 5t5 -5t-5 -5t-5 5zM370 680q0 5 5 5t5 -5t-5 -5t-5 5zM380 680q0 5 5 5t5 -5t-5 -5t-5 5zM350 670q0 5 5 5t5 -5t-5 -5t-5 5zM360 670q0 5 5 5t5 -5t-5 -5t-5 5zM370 670
q0 5 5 5t5 -5t-5 -5t-5 5zM340 670q0 5 5 5t5 -5t-5 -5t-5 5zM350 660q0 5 5 5t5 -5t-5 -5t-5 5zM360 660q0 5 5 5t5 -5t-5 -5t-5 5zM370 660q0 5 5 5t5 -5t-5 -5t-5 5zM340 660q0 5 5 5t5 -5t-5 -5t-5 5zM340 650q0 5 5 5t5 -5t-5 -5t-5 5zM350 650q0 5 5 5t5 -5t-5 -5
t-5 5zM360 650q0 5 5 5t5 -5t-5 -5t-5 5zM330 650q0 5 5 5t5 -5t-5 -5t-5 5zM350 640q0 5 5 5t5 -5t-5 -5t-5 5zM330 640q0 5 5 5t5 -5t-5 -5t-5 5zM340 640q0 5 5 5t5 -5t-5 -5t-5 5zM350 630q0 5 5 5t5 -5t-5 -5t-5 5zM320 630q0 5 5 5t5 -5t-5 -5t-5 5zM330 630q0 5 5 5
t5 -5t-5 -5t-5 5zM340 630q0 5 5 5t5 -5t-5 -5t-5 5zM320 620q0 5 5 5t5 -5t-5 -5t-5 5zM330 620q0 5 5 5t5 -5t-5 -5t-5 5zM340 620q0 5 5 5t5 -5t-5 -5t-5 5zM310 610q0 5 5 5t5 -5t-5 -5t-5 5zM320 610q0 5 5 5t5 -5t-5 -5t-5 5zM330 610q0 5 5 5t5 -5t-5 -5t-5 5z
M340 610q0 5 5 5t5 -5t-5 -5t-5 5zM330 600q0 5 5 5t5 -5t-5 -5t-5 5zM300 600q0 5 5 5t5 -5t-5 -5t-5 5zM310 600q0 5 5 5t5 -5t-5 -5t-5 5zM320 600q0 5 5 5t5 -5t-5 -5t-5 5zM330 590q0 5 5 5t5 -5t-5 -5t-5 5zM300 590q0 5 5 5t5 -5t-5 -5t-5 5zM310 590q0 5 5 5t5 -5
t-5 -5t-5 5zM320 590q0 5 5 5t5 -5t-5 -5t-5 5zM290 580q0 5 5 5t5 -5t-5 -5t-5 5zM300 580q0 5 5 5t5 -5t-5 -5t-5 5zM310 580q0 5 5 5t5 -5t-5 -5t-5 5zM320 580q0 5 5 5t5 -5t-5 -5t-5 5zM290 570q0 5 5 5t5 -5t-5 -5t-5 5zM300 570q0 5 5 5t5 -5t-5 -5t-5 5zM310 570
q0 5 5 5t5 -5t-5 -5t-5 5zM290 560q0 5 5 5t5 -5t-5 -5t-5 5zM300 560q0 5 5 5t5 -5t-5 -5t-5 5zM310 560q0 5 5 5t5 -5t-5 -5t-5 5zM280 560q0 5 5 5t5 -5t-5 -5t-5 5zM290 550q0 5 5 5t5 -5t-5 -5t-5 5zM300 550q0 5 5 5t5 -5t-5 -5t-5 5zM280 550q0 5 5 5t5 -5t-5 -5
t-5 5zM290 540q0 5 5 5t5 -5t-5 -5t-5 5zM300 540q0 5 5 5t5 -5t-5 -5t-5 5zM280 540q0 5 5 5t5 -5t-5 -5t-5 5zM270 540q0 5 5 5t5 -5t-5 -5t-5 5zM280 530q0 5 5 5t5 -5t-5 -5t-5 5zM290 530q0 5 5 5t5 -5t-5 -5t-5 5zM270 530q0 5 5 5t5 -5t-5 -5t-5 5zM290 520q0 5 5 5
t5 -5t-5 -5t-5 5zM260 520q0 5 5 5t5 -5t-5 -5t-5 5zM270 520q0 5 5 5t5 -5t-5 -5t-5 5zM280 520q0 5 5 5t5 -5t-5 -5t-5 5zM280 510q0 5 5 5t5 -5t-5 -5t-5 5zM260 510q0 5 5 5t5 -5t-5 -5t-5 5zM270 510q0 5 5 5t5 -5t-5 -5t-5 5zM250 500q0 5 5 5t5 -5t-5 -5t-5 5z
M270 500q0 5 5 5t5 -5t-5 -5t-5 5zM280 500q0 5 5 5t5 -5t-5 -5t-5 5zM260 500q0 5 5 5t5 -5t-5 -5t-5 5zM250 490q0 5 5 5t5 -5t-5 -5t-5 5zM260 490q0 5 5 5t5 -5t-5 -5t-5 5zM270 490q0 5 5 5t5 -5t-5 -5t-5 5zM270 480q0 5 5 5t5 -5t-5 -5t-5 5zM240 480q0 5 5 5t5 -5
t-5 -5t-5 5zM250 480q0 5 5 5t5 -5t-5 -5t-5 5zM260 480q0 5 5 5t5 -5t-5 -5t-5 5zM460 470q0 5 5 5t5 -5t-5 -5t-5 5zM470 460q0 5 5 5t5 -5t-5 -5t-5 5zM460 460q0 5 5 5t5 -5t-5 -5t-5 5zM450 460q0 5 5 5t5 -5t-5 -5t-5 5zM470 450q0 5 5 5t5 -5t-5 -5t-5 5zM450 450
q0 5 5 5t5 -5t-5 -5t-5 5zM460 450q0 5 5 5t5 -5t-5 -5t-5 5zM450 440q0 5 5 5t5 -5t-5 -5t-5 5zM440 440q0 5 5 5t5 -5t-5 -5t-5 5zM480 440q0 5 5 5t5 -5t-5 -5t-5 5zM470 440q0 5 5 5t5 -5t-5 -5t-5 5zM460 440q0 5 5 5t5 -5t-5 -5t-5 5zM440 430q0 5 5 5t5 -5t-5 -5
t-5 5zM480 430q0 5 5 5t5 -5t-5 -5t-5 5zM470 430q0 5 5 5t5 -5t-5 -5t-5 5zM460 430q0 5 5 5t5 -5t-5 -5t-5 5zM450 430q0 5 5 5t5 -5t-5 -5t-5 5zM430 430q0 5 5 5t5 -5t-5 -5t-5 5zM460 420q0 5 5 5t5 -5t-5 -5t-5 5zM420 420q0 5 5 5t5 -5t-5 -5t-5 5zM430 420q0 5 5 5
t5 -5t-5 -5t-5 5zM440 420q0 5 5 5t5 -5t-5 -5t-5 5zM450 420q0 5 5 5t5 -5t-5 -5t-5 5zM470 420q0 5 5 5t5 -5t-5 -5t-5 5zM420 410q0 5 5 5t5 -5t-5 -5t-5 5zM410 410q0 5 5 5t5 -5t-5 -5t-5 5zM460 410q0 5 5 5t5 -5t-5 -5t-5 5zM450 410q0 5 5 5t5 -5t-5 -5t-5 5z
M440 410q0 5 5 5t5 -5t-5 -5t-5 5zM430 410q0 5 5 5t5 -5t-5 -5t-5 5zM420 400q0 5 5 5t5 -5t-5 -5t-5 5zM410 400q0 5 5 5t5 -5t-5 -5t-5 5zM400 400q0 5 5 5t5 -5t-5 -5t-5 5zM450 400q0 5 5 5t5 -5t-5 -5t-5 5zM440 400q0 5 5 5t5 -5t-5 -5t-5 5zM430 400q0 5 5 5t5 -5
t-5 -5t-5 5zM420 390q0 5 5 5t5 -5t-5 -5t-5 5zM430 390q0 5 5 5t5 -5t-5 -5t-5 5zM400 390q0 5 5 5t5 -5t-5 -5t-5 5zM390 390q0 5 5 5t5 -5t-5 -5t-5 5zM410 390q0 5 5 5t5 -5t-5 -5t-5 5zM440 390q0 5 5 5t5 -5t-5 -5t-5 5zM260 380q0 5 5 5t5 -5t-5 -5t-5 5zM250 380
q0 5 5 5t5 -5t-5 -5t-5 5zM240 380q0 5 5 5t5 -5t-5 -5t-5 5zM230 380q0 5 5 5t5 -5t-5 -5t-5 5zM220 380q0 5 5 5t5 -5t-5 -5t-5 5zM210 380q0 5 5 5t5 -5t-5 -5t-5 5zM200 380q0 5 5 5t5 -5t-5 -5t-5 5zM190 380q0 5 5 5t5 -5t-5 -5t-5 5zM420 380q0 5 5 5t5 -5t-5 -5
t-5 5zM410 380q0 5 5 5t5 -5t-5 -5t-5 5zM400 380q0 5 5 5t5 -5t-5 -5t-5 5zM390 380q0 5 5 5t5 -5t-5 -5t-5 5zM430 380q0 5 5 5t5 -5t-5 -5t-5 5zM270 380q0 5 5 5t5 -5t-5 -5t-5 5zM410 370q0 5 5 5t5 -5t-5 -5t-5 5zM90 370q0 5 5 5t5 -5t-5 -5t-5 5zM100 370q0 5 5 5
t5 -5t-5 -5t-5 5zM110 370q0 5 5 5t5 -5t-5 -5t-5 5zM120 370q0 5 5 5t5 -5t-5 -5t-5 5zM130 370q0 5 5 5t5 -5t-5 -5t-5 5zM140 370q0 5 5 5t5 -5t-5 -5t-5 5zM380 370q0 5 5 5t5 -5t-5 -5t-5 5zM390 370q0 5 5 5t5 -5t-5 -5t-5 5zM150 370q0 5 5 5t5 -5t-5 -5t-5 5z
M160 370q0 5 5 5t5 -5t-5 -5t-5 5zM170 370q0 5 5 5t5 -5t-5 -5t-5 5zM180 370q0 5 5 5t5 -5t-5 -5t-5 5zM190 370q0 5 5 5t5 -5t-5 -5t-5 5zM200 370q0 5 5 5t5 -5t-5 -5t-5 5zM400 370q0 5 5 5t5 -5t-5 -5t-5 5zM420 370q0 5 5 5t5 -5t-5 -5t-5 5zM210 370q0 5 5 5t5 -5
t-5 -5t-5 5zM220 370q0 5 5 5t5 -5t-5 -5t-5 5zM230 370q0 5 5 5t5 -5t-5 -5t-5 5zM240 370q0 5 5 5t5 -5t-5 -5t-5 5zM250 370q0 5 5 5t5 -5t-5 -5t-5 5zM260 370q0 5 5 5t5 -5t-5 -5t-5 5zM390 360q0 5 5 5t5 -5t-5 -5t-5 5zM410 360q0 5 5 5t5 -5t-5 -5t-5 5zM90 360
q0 5 5 5t5 -5t-5 -5t-5 5zM100 360q0 5 5 5t5 -5t-5 -5t-5 5zM110 360q0 5 5 5t5 -5t-5 -5t-5 5zM120 360q0 5 5 5t5 -5t-5 -5t-5 5zM400 360q0 5 5 5t5 -5t-5 -5t-5 5zM260 360q0 5 5 5t5 -5t-5 -5t-5 5zM250 360q0 5 5 5t5 -5t-5 -5t-5 5zM240 360q0 5 5 5t5 -5t-5 -5
t-5 5zM230 360q0 5 5 5t5 -5t-5 -5t-5 5zM220 360q0 5 5 5t5 -5t-5 -5t-5 5zM210 360q0 5 5 5t5 -5t-5 -5t-5 5zM130 360q0 5 5 5t5 -5t-5 -5t-5 5zM140 360q0 5 5 5t5 -5t-5 -5t-5 5zM150 360q0 5 5 5t5 -5t-5 -5t-5 5zM160 360q0 5 5 5t5 -5t-5 -5t-5 5zM170 360q0 5 5 5
t5 -5t-5 -5t-5 5zM180 360q0 5 5 5t5 -5t-5 -5t-5 5zM190 360q0 5 5 5t5 -5t-5 -5t-5 5zM380 360q0 5 5 5t5 -5t-5 -5t-5 5zM370 360q0 5 5 5t5 -5t-5 -5t-5 5zM200 360q0 5 5 5t5 -5t-5 -5t-5 5zM360 350q0 5 5 5t5 -5t-5 -5t-5 5zM180 350q0 5 5 5t5 -5t-5 -5t-5 5z
M170 350q0 5 5 5t5 -5t-5 -5t-5 5zM160 350q0 5 5 5t5 -5t-5 -5t-5 5zM150 350q0 5 5 5t5 -5t-5 -5t-5 5zM370 350q0 5 5 5t5 -5t-5 -5t-5 5zM410 350q0 5 5 5t5 -5t-5 -5t-5 5zM400 350q0 5 5 5t5 -5t-5 -5t-5 5zM140 350q0 5 5 5t5 -5t-5 -5t-5 5zM130 350q0 5 5 5t5 -5
t-5 -5t-5 5zM120 350q0 5 5 5t5 -5t-5 -5t-5 5zM110 350q0 5 5 5t5 -5t-5 -5t-5 5zM100 350q0 5 5 5t5 -5t-5 -5t-5 5zM390 350q0 5 5 5t5 -5t-5 -5t-5 5zM380 350q0 5 5 5t5 -5t-5 -5t-5 5zM400 340q0 5 5 5t5 -5t-5 -5t-5 5zM390 340q0 5 5 5t5 -5t-5 -5t-5 5zM380 340
q0 5 5 5t5 -5t-5 -5t-5 5zM370 340q0 5 5 5t5 -5t-5 -5t-5 5zM360 340q0 5 5 5t5 -5t-5 -5t-5 5zM350 340q0 5 5 5t5 -5t-5 -5t-5 5zM370 330q0 5 5 5t5 -5t-5 -5t-5 5zM380 330q0 5 5 5t5 -5t-5 -5t-5 5zM390 330q0 5 5 5t5 -5t-5 -5t-5 5zM360 330q0 5 5 5t5 -5t-5 -5
t-5 5zM350 330q0 5 5 5t5 -5t-5 -5t-5 5zM340 330q0 5 5 5t5 -5t-5 -5t-5 5zM360 320q0 5 5 5t5 -5t-5 -5t-5 5zM380 320q0 5 5 5t5 -5t-5 -5t-5 5zM370 320q0 5 5 5t5 -5t-5 -5t-5 5zM340 320q0 5 5 5t5 -5t-5 -5t-5 5zM350 320q0 5 5 5t5 -5t-5 -5t-5 5zM350 310q0 5 5 5
t5 -5t-5 -5t-5 5zM340 310q0 5 5 5t5 -5t-5 -5t-5 5zM330 310q0 5 5 5t5 -5t-5 -5t-5 5zM360 310q0 5 5 5t5 -5t-5 -5t-5 5zM370 310q0 5 5 5t5 -5t-5 -5t-5 5zM330 300q0 5 5 5t5 -5t-5 -5t-5 5zM320 300q0 5 5 5t5 -5t-5 -5t-5 5zM340 300q0 5 5 5t5 -5t-5 -5t-5 5z
M350 300q0 5 5 5t5 -5t-5 -5t-5 5zM360 300q0 5 5 5t5 -5t-5 -5t-5 5zM310 290q0 5 5 5t5 -5t-5 -5t-5 5zM320 290q0 5 5 5t5 -5t-5 -5t-5 5zM330 290q0 5 5 5t5 -5t-5 -5t-5 5zM340 290q0 5 5 5t5 -5t-5 -5t-5 5zM350 290q0 5 5 5t5 -5t-5 -5t-5 5zM330 280q0 5 5 5t5 -5
t-5 -5t-5 5zM300 280q0 5 5 5t5 -5t-5 -5t-5 5zM310 280q0 5 5 5t5 -5t-5 -5t-5 5zM320 280q0 5 5 5t5 -5t-5 -5t-5 5zM340 280q0 5 5 5t5 -5t-5 -5t-5 5zM310 270q0 5 5 5t5 -5t-5 -5t-5 5zM320 270q0 5 5 5t5 -5t-5 -5t-5 5zM330 270q0 5 5 5t5 -5t-5 -5t-5 5zM290 270
q0 5 5 5t5 -5t-5 -5t-5 5zM300 270q0 5 5 5t5 -5t-5 -5t-5 5zM310 260q0 5 5 5t5 -5t-5 -5t-5 5zM290 260q0 5 5 5t5 -5t-5 -5t-5 5zM300 260q0 5 5 5t5 -5t-5 -5t-5 5zM320 260q0 5 5 5t5 -5t-5 -5t-5 5zM310 250q0 5 5 5t5 -5t-5 -5t-5 5zM300 250q0 5 5 5t5 -5t-5 -5
t-5 5zM290 250q0 5 5 5t5 -5t-5 -5t-5 5zM280 250q0 5 5 5t5 -5t-5 -5t-5 5zM300 240q0 5 5 5t5 -5t-5 -5t-5 5zM290 240q0 5 5 5t5 -5t-5 -5t-5 5zM280 240q0 5 5 5t5 -5t-5 -5t-5 5zM270 240q0 5 5 5t5 -5t-5 -5t-5 5zM290 230q0 5 5 5t5 -5t-5 -5t-5 5zM280 230q0 5 5 5
t5 -5t-5 -5t-5 5zM270 230q0 5 5 5t5 -5t-5 -5t-5 5zM260 230q0 5 5 5t5 -5t-5 -5t-5 5zM280 220q0 5 5 5t5 -5t-5 -5t-5 5zM270 220q0 5 5 5t5 -5t-5 -5t-5 5zM260 220q0 5 5 5t5 -5t-5 -5t-5 5zM250 220q0 5 5 5t5 -5t-5 -5t-5 5zM280 210q0 5 5 5t5 -5t-5 -5t-5 5z
M270 210q0 5 5 5t5 -5t-5 -5t-5 5zM260 210q0 5 5 5t5 -5t-5 -5t-5 5zM250 210q0 5 5 5t5 -5t-5 -5t-5 5zM240 210q0 5 5 5t5 -5t-5 -5t-5 5zM270 200q0 5 5 5t5 -5t-5 -5t-5 5zM250 200q0 5 5 5t5 -5t-5 -5t-5 5zM230 200q0 5 5 5t5 -5t-5 -5t-5 5zM240 200q0 5 5 5t5 -5
t-5 -5t-5 5zM260 200q0 5 5 5t5 -5t-5 -5t-5 5zM250 190q0 5 5 5t5 -5t-5 -5t-5 5zM260 190q0 5 5 5t5 -5t-5 -5t-5 5zM230 190q0 5 5 5t5 -5t-5 -5t-5 5zM240 190q0 5 5 5t5 -5t-5 -5t-5 5zM250 180q0 5 5 5t5 -5t-5 -5t-5 5zM230 180q0 5 5 5t5 -5t-5 -5t-5 5zM240 180
q0 5 5 5t5 -5t-5 -5t-5 5zM220 180q0 5 5 5t5 -5t-5 -5t-5 5zM210 170q0 5 5 5t5 -5t-5 -5t-5 5zM240 170q0 5 5 5t5 -5t-5 -5t-5 5zM230 170q0 5 5 5t5 -5t-5 -5t-5 5zM220 170q0 5 5 5t5 -5t-5 -5t-5 5zM230 160q0 5 5 5t5 -5t-5 -5t-5 5zM220 160q0 5 5 5t5 -5t-5 -5
t-5 5zM210 160q0 5 5 5t5 -5t-5 -5t-5 5zM200 160q0 5 5 5t5 -5t-5 -5t-5 5zM220 150q0 5 5 5t5 -5t-5 -5t-5 5zM210 150q0 5 5 5t5 -5t-5 -5t-5 5zM200 150q0 5 5 5t5 -5t-5 -5t-5 5zM190 150q0 5 5 5t5 -5t-5 -5t-5 5zM190 140q0 5 5 5t5 -5t-5 -5t-5 5zM200 140q0 5 5 5
t5 -5t-5 -5t-5 5zM210 140q0 5 5 5t5 -5t-5 -5t-5 5zM180 140q0 5 5 5t5 -5t-5 -5t-5 5zM180 130q0 5 5 5t5 -5t-5 -5t-5 5zM190 130q0 5 5 5t5 -5t-5 -5t-5 5zM200 130q0 5 5 5t5 -5t-5 -5t-5 5zM170 120q0 5 5 5t5 -5t-5 -5t-5 5zM180 120q0 5 5 5t5 -5t-5 -5t-5 5z
M190 120q0 5 5 5t5 -5t-5 -5t-5 5zM160 110q0 5 5 5t5 -5t-5 -5t-5 5zM170 110q0 5 5 5t5 -5t-5 -5t-5 5zM180 110q0 5 5 5t5 -5t-5 -5t-5 5zM150 100q0 5 5 5t5 -5t-5 -5t-5 5zM160 100q0 5 5 5t5 -5t-5 -5t-5 5zM170 100q0 5 5 5t5 -5t-5 -5t-5 5zM160 90q0 5 5 5t5 -5
t-5 -5t-5 5zM150 90q0 5 5 5t5 -5t-5 -5t-5 5zM170 90q0 5 5 5t5 -5t-5 -5t-5 5zM140 90q0 5 5 5t5 -5t-5 -5t-5 5zM150 80q0 5 5 5t5 -5t-5 -5t-5 5zM160 80q0 5 5 5t5 -5t-5 -5t-5 5zM130 80q0 5 5 5t5 -5t-5 -5t-5 5zM140 80q0 5 5 5t5 -5t-5 -5t-5 5zM130 70q0 5 5 5
t5 -5t-5 -5t-5 5zM150 70q0 5 5 5t5 -5t-5 -5t-5 5zM140 70q0 5 5 5t5 -5t-5 -5t-5 5zM120 60q0 5 5 5t5 -5t-5 -5t-5 5zM130 60q0 5 5 5t5 -5t-5 -5t-5 5zM140 60q0 5 5 5t5 -5t-5 -5t-5 5zM110 50q0 5 5 5t5 -5t-5 -5t-5 5zM120 50q0 5 5 5t5 -5t-5 -5t-5 5zM130 50
q0 5 5 5t5 -5t-5 -5t-5 5zM100 40q0 5 5 5t5 -5t-5 -5t-5 5zM120 40q0 5 5 5t5 -5t-5 -5t-5 5zM110 40q0 5 5 5t5 -5t-5 -5t-5 5zM90 30q0 5 5 5t5 -5t-5 -5t-5 5zM100 30q0 5 5 5t5 -5t-5 -5t-5 5zM110 30q0 5 5 5t5 -5t-5 -5t-5 5zM90 20q0 5 5 5t5 -5t-5 -5t-5 5zM100 20
q0 5 5 5t5 -5t-5 -5t-5 5zM80 20q0 5 5 5t5 -5t-5 -5t-5 5zM70 10q0 5 5 5t5 -5t-5 -5t-5 5zM80 10q0 5 5 5t5 -5t-5 -5t-5 5zM90 10q0 5 5 5t5 -5t-5 -5t-5 5zM70 0q0 5 5 5t5 -5t-5 -5t-5 5zM80 0q0 5 5 5t5 -5t-5 -5t-5 5zM60 -10q0 5 5 5t5 -5t-5 -5t-5 5zM70 -10
q0 5 5 5t5 -5t-5 -5t-5 5zM60 -20q0 5 5 5t5 -5t-5 -5t-5 5z" />
    <glyph glyph-name="dot" 
d="M73 683q0 -31 -21 -52.5t-52 -21.5q-30 0 -52 21.5t-22 52.5q0 30 22 51.5t52 21.5q31 0 52 -21.5t21 -51.5z" />
    <glyph glyph-name="dotaccent.l" 
d="M66 0q0 -27 -19.5 -46.5t-46.5 -19.5q-28 0 -47.5 19.5t-19.5 46.5q0 28 19.5 47.5t47.5 19.5q27 0 46.5 -19.5t19.5 -47.5z" />
    <glyph glyph-name="dotaccent.low" 
d="M66 -137q0 -28 -19.5 -47.5t-46.5 -19.5q-28 0 -47.5 19.5t-19.5 47.5q0 27 19.5 46.5t47.5 19.5q27 0 46.5 -19.5t19.5 -46.5z" />
    <glyph glyph-name="caron.slovak" 
d="M-66 547l22 163h110l-57 -163h-75z" />
    <glyph glyph-name="commaaccent.top" 
d="M66 654q0 -27 -19.5 -47t-46.5 -20t-46.5 20t-19.5 47q0 20 13 40l68 109h52l-39 -90q38 -18 38 -59z" />
    <glyph glyph-name="dieresis.i" 
d="M-29 655q0 -28 -20 -48t-48 -20t-47.5 20t-19.5 48t19.5 47.5t47.5 19.5t48 -19.5t20 -47.5zM164 655q0 -28 -20 -48t-48 -20t-47.5 20t-19.5 48t19.5 47.5t47.5 19.5t48 -19.5t20 -47.5z" />
    <glyph glyph-name="zero.slashed" horiz-adv-x="626" 
d="M571 263q0 -120 -72.5 -196.5t-185.5 -76.5t-185 76.5t-72 196.5v186q0 120 72 196.5t185 76.5t185.5 -76.5t72.5 -196.5v-186zM166 449v-135l291 180q-12 57 -50.5 88.5t-93.5 31.5q-66 0 -106.5 -44.5t-40.5 -120.5zM461 263v134l-291 -179q11 -57 49.5 -88.5
t93.5 -31.5q66 0 107 44t41 121z" />
    <glyph glyph-name="one.pof" horiz-adv-x="320" 
d="M132 0v462h-123l81 98h152v-560h-110z" />
    <glyph glyph-name="two.pof" horiz-adv-x="495" 
d="M446 98v-98h-399v35q0 23 5.5 44t11.5 36.5t21 34l23.5 28.5t30.5 27t30.5 23t35 23.5l32.5 21.5q47 31 70 58.5t23 66.5q0 31 -22 52.5t-58 21.5q-41 0 -66.5 -24t-25.5 -62h-110q0 81 58 132.5t147 51.5q79 0 133.5 -45t54.5 -126q0 -65 -30.5 -109t-94.5 -88
q-7 -5 -26 -17t-30.5 -20t-26 -20t-24 -23.5t-14.5 -23.5h251z" />
    <glyph glyph-name="three.pof" horiz-adv-x="523" 
d="M476 109q0 -82 -59 -134t-151 -52q-93 0 -159.5 57t-68.5 150h109q4 -50 37 -79.5t81 -29.5q43 0 71.5 25.5t29.5 68.5q0 48 -30 73.5t-79 25.5h-49v85h46q40 0 67 24.5t28 62.5t-25 62t-64 24q-43 0 -71.5 -28.5t-29.5 -76.5h-110q0 92 63 147.5t152 55.5q87 0 141 -50
t54 -128q0 -43 -21 -79.5t-51 -55.5q39 -18 64 -57.5t25 -90.5z" />
    <glyph glyph-name="four.pof" horiz-adv-x="548" 
d="M325 -68v156h-308v81l319 391h99v-379h80v-93h-80v-156h-110zM325 181v219l-173 -219h173z" />
    <glyph glyph-name="five.pof" horiz-adv-x="498" 
d="M30 109h114q8 -39 35.5 -63.5t68.5 -24.5q49 0 77 32t28 83q0 50 -28.5 82t-73.5 32q-70 0 -103 -65l-97 28l66 347h301v-97h-214l-29 -148q40 28 96 28q84 0 138 -58.5t54 -148.5q0 -97 -57.5 -155t-157.5 -58q-89 0 -152 53.5t-66 132.5z" />
    <glyph glyph-name="six.pof" horiz-adv-x="517" 
d="M476 203q0 -91 -61.5 -152t-157.5 -61q-94 0 -156 60t-62 145q0 48 16.5 83.5t54.5 86.5l198 262h135l-166 -221h1q77 0 137.5 -58.5t60.5 -144.5zM257 316q-47 0 -76.5 -33t-29.5 -82t29.5 -81.5t76.5 -32.5q48 0 78 32.5t30 81.5q0 50 -30 82.5t-78 32.5z" />
    <glyph glyph-name="seven.pof" horiz-adv-x="466" 
d="M162 -68h-124l280 529h-291v99h421v-86z" />
    <glyph glyph-name="eight.pof" horiz-adv-x="532" 
d="M488 190q0 -87 -64.5 -143.5t-157.5 -56.5t-157.5 56.5t-64.5 143.5q0 106 91 156q-62 46 -62 125q0 72 54.5 119t138.5 47t138 -47t54 -119q0 -79 -62 -125q92 -50 92 -156zM180 465q0 -35 24 -59t62 -24t61.5 24t23.5 59t-23.5 58.5t-61.5 23.5t-62 -23.5t-24 -58.5z
M156 191q0 -46 30.5 -77t79.5 -31t79 31t30 77q0 47 -30 77.5t-79 30.5t-79.5 -31t-30.5 -77z" />
    <glyph glyph-name="nine.pof" horiz-adv-x="515" 
d="M41 356q0 91 61 152t157 61q95 0 157 -59.5t62 -145.5q0 -48 -16.5 -83.5t-54.5 -86.5l-199 -262h-134l166 221h-2q-76 0 -136.5 58.5t-60.5 144.5zM259 243q47 0 77 33t30 82t-30 81.5t-77 32.5t-77 -32.5t-30 -81.5t30 -82t77 -33z" />
    <glyph glyph-name="zero.pof" horiz-adv-x="545" 
d="M491 210q0 -96 -61.5 -158t-157.5 -62t-157 62t-61 158v141q0 96 61 157.5t157 61.5q97 0 158 -61.5t61 -157.5v-141zM164 210q0 -56 30 -88.5t78 -32.5q49 0 79 32.5t30 88.5v141q0 56 -30 88t-79 32q-48 0 -78 -32t-30 -88v-141z" />
    <glyph glyph-name="zero.slashed.pof" horiz-adv-x="545" 
d="M491 210q0 -96 -61.5 -158t-157.5 -62t-157 62t-61 158v141q0 96 61 157.5t157 61.5q97 0 158 -61.5t61 -157.5v-141zM164 351v-88l212 130q-22 78 -104 78q-48 0 -78 -32t-30 -88zM381 210v88l-212 -130q10 -37 37.5 -58t65.5 -21q49 0 79 32.5t30 88.5z" />
    <glyph glyph-name="one.tlf" horiz-adv-x="590" 
d="M72 0v104h176v497h-144l85 109h169v-606h175v-104h-461z" />
    <glyph glyph-name="two.tlf" horiz-adv-x="590" 
d="M528 108v-108h-470v40q0 32 6.5 61t22 54t29.5 44t40.5 41l42 34.5t47.5 34.5t45 32q63 46 91 80.5t28 84.5q0 48 -30.5 78t-82.5 30q-55 0 -91 -33t-37 -88h-111q0 101 68.5 165t171.5 64q95 0 159 -56t64 -157q0 -80 -36.5 -134.5t-120.5 -114.5q-13 -10 -48 -34
t-51.5 -37t-36 -36t-25.5 -45h325z" />
    <glyph glyph-name="three.tlf" horiz-adv-x="590" 
d="M539 200q0 -94 -66 -152t-172 -58q-107 0 -181.5 64t-76.5 169h110q4 -57 45.5 -91t102.5 -34q55 0 90.5 29.5t36.5 79.5q0 55 -37 84t-100 29h-56v94h56q52 0 84 28t33 73q1 43 -31.5 71t-79.5 28q-56 0 -93 -32.5t-37 -88.5h-111q0 104 70.5 166.5t170.5 62.5
q99 0 161 -56.5t61 -143.5q0 -49 -25 -90.5t-62 -63.5q48 -21 77.5 -65t29.5 -103z" />
    <glyph glyph-name="four.tlf" horiz-adv-x="590" 
d="M374 0v178h-367v89l379 443h98v-430h95v-102h-95v-178h-110zM374 280v266l-229 -266h229z" />
    <glyph glyph-name="five.tlf" horiz-adv-x="590" 
d="M48 199h113q11 -44 47.5 -72.5t84.5 -28.5q59 0 96 38t37 94t-37 94t-93 38q-86 0 -124 -73l-99 31l76 390h338v-107h-252l-33 -170q45 31 111 31q100 0 162 -69t62 -176q0 -100 -68.5 -164.5t-175.5 -64.5q-98 0 -170 60.5t-75 148.5z" />
    <glyph glyph-name="six.tlf" horiz-adv-x="590" 
d="M536 230q0 -103 -68.5 -171.5t-175.5 -68.5t-175 68.5t-68 170.5q0 50 19 89.5t61 94.5l237 297h138l-200 -252h11q87 0 154 -65.5t67 -162.5zM160 229q0 -56 37.5 -94.5t94.5 -38.5t95 38.5t38 94.5q0 55 -38.5 94t-94.5 39t-94 -39t-38 -94z" />
    <glyph glyph-name="seven.tlf" horiz-adv-x="590" 
d="M207 0h-124l326 603h-349v107h480v-94z" />
    <glyph glyph-name="eight.tlf" horiz-adv-x="590" 
d="M540 215q0 -98 -69 -161.5t-176 -63.5q-105 0 -174.5 63.5t-69.5 161.5q0 123 102 179q-67 51 -67 141q0 81 59 134t150 53q93 0 151.5 -52.5t58.5 -134.5q0 -89 -66 -141q101 -55 101 -179zM193 528q0 -39 29 -66.5t73 -27.5q46 0 74.5 27.5t28.5 66.5q0 41 -28.5 67.5
t-74.5 26.5q-45 0 -73.5 -27t-28.5 -67zM163 217q0 -52 36.5 -88t95.5 -36q61 0 97 36t36 88q0 53 -36 88.5t-96 35.5t-96.5 -35.5t-36.5 -88.5z" />
    <glyph glyph-name="nine.tlf" horiz-adv-x="590" 
d="M85 0l202 254h-11q-88 0 -155 65.5t-67 162.5q0 102 68.5 171t175.5 69t175.5 -69t68.5 -170q0 -51 -19.5 -91t-61.5 -94l-238 -298h-138zM166 483q0 -56 38 -95t94 -39t94 39t38 95q0 55 -38 94t-94 39t-94 -39t-38 -94z" />
    <glyph glyph-name="zero.tlf" horiz-adv-x="590" 
d="M553 263q0 -120 -72.5 -196.5t-185.5 -76.5t-185 76.5t-72 196.5v186q0 120 72 196.5t185 76.5t185.5 -76.5t72.5 -196.5v-186zM148 263q0 -77 40.5 -121t106.5 -44t107 44t41 121v186q0 76 -41 120.5t-107 44.5t-106.5 -44.5t-40.5 -120.5v-186z" />
    <glyph glyph-name="zero.slashed.tlf" horiz-adv-x="590" 
d="M553 263q0 -120 -72.5 -196.5t-185.5 -76.5t-185 76.5t-72 196.5v186q0 120 72 196.5t185 76.5t185.5 -76.5t72.5 -196.5v-186zM148 449v-135l291 180q-12 57 -50.5 88.5t-93.5 31.5q-66 0 -106.5 -44.5t-40.5 -120.5zM443 263v134l-291 -179q11 -57 49.5 -88.5
t93.5 -31.5q66 0 107 44t41 121z" />
    <glyph glyph-name="zero.slashed.superior" horiz-adv-x="390" 
d="M356 573q0 -74 -45 -121.5t-115 -47.5q-72 0 -117 47.5t-45 121.5v106q0 75 45 122.5t117 47.5q70 0 115 -48t45 -122v-106zM117 679v-63l153 90q-7 29 -26.5 45t-47.5 16q-36 0 -57.5 -23.5t-21.5 -64.5zM273 573v65l-153 -90q6 -30 26.5 -46.5t49.5 -16.5
q34 0 55.5 23.5t21.5 64.5z" />
    <glyph glyph-name="zero.slashed.inferior" horiz-adv-x="389" 
d="M355 48q0 -74 -45 -121.5t-115 -47.5q-72 0 -117 47.5t-45 121.5v106q0 75 45 122.5t117 47.5q70 0 115 -48t45 -122v-106zM116 154v-63l153 90q-7 29 -26.5 45t-47.5 16q-36 0 -57.5 -23.5t-21.5 -64.5zM272 48v65l-153 -90q6 -30 26.5 -46.5t49.5 -16.5q34 0 55.5 23.5
t21.5 64.5z" />
    <glyph glyph-name="one.numr" horiz-adv-x="235" 
d="M99 278v350h-91l60 82h114v-432h-83z" />
    <glyph glyph-name="two.numr" horiz-adv-x="354" 
d="M322 359v-81h-293v28q0 18 4 34.5t8 28.5t15.5 26.5l17 21.5t23 21t22.5 17.5l25.5 18t23.5 16.5q68 48 68 92q0 23 -16 38t-42 15q-28 0 -46.5 -17.5t-18.5 -43.5h-83q0 63 43 103t107 40q58 0 98.5 -35t40.5 -98q0 -52 -22.5 -85.5t-68.5 -66.5l-23 -15.5t-26.5 -18.5
t-20.5 -18t-15 -21h179z" />
    <glyph glyph-name="three.numr" horiz-adv-x="365" 
d="M335 401q0 -57 -41.5 -93t-107.5 -36q-65 0 -112 39t-49 107h82q8 -65 79 -65q29 0 47.5 15t18.5 40q0 27 -19.5 42.5t-52.5 15.5h-36v67h34q29 0 45 14.5t16 37.5q1 22 -15.5 36t-40.5 14q-29 0 -48 -17t-19 -44h-82q0 65 44.5 104t105.5 39q64 0 101.5 -35.5
t37.5 -89.5q-1 -60 -48 -93q26 -12 43 -37.5t17 -60.5z" />
    <glyph glyph-name="four.numr" horiz-adv-x="392" 
d="M232 278v99h-215v67l224 266h74v-257h56v-76h-56v-99h-83zM232 453v135l-113 -135h113z" />
    <glyph glyph-name="five.numr" horiz-adv-x="349" 
d="M22 403h85q5 -22 24 -36t46 -14q28 0 47 19t19 48t-19 48t-48 19q-49 0 -66 -44l-74 22l46 245h212v-81h-147l-16 -81q23 14 60 14q61 0 97.5 -41t36.5 -104q0 -64 -41 -104.5t-106 -40.5q-63 0 -108.5 37t-47.5 94z" />
    <glyph glyph-name="six.numr" horiz-adv-x="341" 
d="M319 420q0 -64 -41.5 -106t-108.5 -42t-109 42t-42 102q0 33 11 56t39 63l129 175h102l-112 -152q52 -2 92 -40t40 -98zM101 419q0 -29 19 -48.5t49 -19.5q28 0 47 19.5t19 48.5t-19 48.5t-47 19.5q-30 0 -49 -19.5t-19 -48.5z" />
    <glyph glyph-name="seven.numr" horiz-adv-x="339" 
d="M127 278h-93l195 351h-202v81h300v-72z" />
    <glyph glyph-name="eight.numr" horiz-adv-x="362" 
d="M334 409q0 -60 -43.5 -98.5t-109.5 -38.5t-109.5 38.5t-43.5 98.5q0 70 57 105q-37 34 -37 87q0 49 37 82.5t96 33.5t95.5 -33.5t36.5 -82.5q0 -54 -37 -87q58 -34 58 -105zM127 593q0 -21 15.5 -35.5t38.5 -14.5q24 0 39.5 14.5t15.5 35.5q0 22 -16 36.5t-39 14.5
t-38.5 -14.5t-15.5 -36.5zM113 412q0 -26 18.5 -45t49.5 -19t49.5 19t18.5 45q0 27 -18.5 46t-49.5 19t-49.5 -19t-18.5 -46z" />
    <glyph glyph-name="nine.numr" horiz-adv-x="341" 
d="M42 278l111 152q-51 2 -91 40t-40 99q0 64 41.5 106t109.5 42q67 0 108.5 -42t41.5 -102q0 -33 -11 -57t-39 -63l-129 -175h-102zM106 569q0 -28 19 -48t48 -20t48 20t19 48q0 29 -19 48.5t-48 19.5t-48 -19.5t-19 -48.5z" />
    <glyph glyph-name="zero.numr" horiz-adv-x="390" 
d="M356 441q0 -74 -45 -121.5t-115 -47.5q-72 0 -117 47.5t-45 121.5v106q0 75 45 122.5t117 47.5q70 0 115 -48t45 -122v-106zM117 441q0 -41 21.5 -64.5t57.5 -23.5q34 0 55.5 23.5t21.5 64.5v106q0 41 -21.5 64.5t-55.5 23.5q-36 0 -57.5 -23.5t-21.5 -64.5v-106z" />
    <glyph glyph-name="zero.slashed.numr" horiz-adv-x="390" 
d="M356 441q0 -74 -45 -121.5t-115 -47.5q-72 0 -117 47.5t-45 121.5v106q0 75 45 122.5t117 47.5q70 0 115 -48t45 -122v-106zM117 547v-63l153 90q-7 29 -26.5 45t-47.5 16q-36 0 -57.5 -23.5t-21.5 -64.5zM273 441v65l-153 -90q6 -30 26.5 -46.5t49.5 -16.5
q34 0 55.5 23.5t21.5 64.5z" />
    <glyph glyph-name="one.dnom" horiz-adv-x="235" 
d="M100 0v350h-91l60 82h114v-432h-83z" />
    <glyph glyph-name="two.dnom" horiz-adv-x="354" 
d="M322 81v-81h-293v28q0 18 4 34.5t8 28.5t15.5 26.5l17 21.5t23 21t22.5 17.5l25.5 18t23.5 16.5q68 48 68 92q0 23 -16 38t-42 15q-28 0 -46.5 -17.5t-18.5 -43.5h-83q0 63 43 103t107 40q58 0 98.5 -35t40.5 -98q0 -52 -22.5 -85.5t-68.5 -66.5l-23 -15.5t-26.5 -18.5
t-20.5 -18t-15 -21h179z" />
    <glyph glyph-name="three.dnom" horiz-adv-x="365" 
d="M335 123q0 -57 -41.5 -93t-107.5 -36q-65 0 -112 39t-49 107h82q8 -65 79 -65q29 0 47.5 15t18.5 40q0 27 -19.5 42.5t-52.5 15.5h-36v67h34q29 0 45 14.5t16 37.5q1 22 -15.5 36t-40.5 14q-29 0 -48 -17t-19 -44h-82q0 65 44.5 104t105.5 39q64 0 101.5 -35.5
t37.5 -89.5q-1 -60 -48 -93q26 -12 43 -37.5t17 -60.5z" />
    <glyph glyph-name="four.dnom" horiz-adv-x="392" 
d="M232 0v99h-215v67l224 266h74v-257h56v-76h-56v-99h-83zM232 175v135l-113 -135h113z" />
    <glyph glyph-name="five.dnom" horiz-adv-x="349" 
d="M22 125h85q5 -22 24 -36t46 -14q28 0 47 19t19 48t-19 48t-48 19q-49 0 -66 -44l-74 22l46 245h212v-81h-147l-16 -81q23 14 60 14q61 0 97.5 -41t36.5 -104q0 -64 -41 -104.5t-106 -40.5q-63 0 -108.5 37t-47.5 94z" />
    <glyph glyph-name="six.dnom" horiz-adv-x="341" 
d="M319 142q0 -64 -41.5 -106t-108.5 -42t-109 42t-42 102q0 33 11 56t39 63l129 175h102l-112 -152q52 -2 92 -40t40 -98zM101 141q0 -29 19 -48.5t49 -19.5q28 0 47 19.5t19 48.5t-19 48.5t-47 19.5q-30 0 -49 -19.5t-19 -48.5z" />
    <glyph glyph-name="seven.dnom" horiz-adv-x="339" 
d="M128 0h-93l195 351h-202v81h300v-72z" />
    <glyph glyph-name="eight.dnom" horiz-adv-x="362" 
d="M334 131q0 -60 -43.5 -98.5t-109.5 -38.5t-109.5 38.5t-43.5 98.5q0 70 57 105q-37 34 -37 87q0 49 37 82.5t96 33.5t95.5 -33.5t36.5 -82.5q0 -54 -37 -87q58 -34 58 -105zM127 315q0 -21 15.5 -35.5t38.5 -14.5q24 0 39.5 14.5t15.5 35.5q0 22 -16 36.5t-39 14.5
t-38.5 -14.5t-15.5 -36.5zM113 134q0 -26 18.5 -45t49.5 -19t49.5 19t18.5 45q0 27 -18.5 46t-49.5 19t-49.5 -19t-18.5 -46z" />
    <glyph glyph-name="nine.dnom" horiz-adv-x="341" 
d="M42 0l111 152q-51 2 -91 40t-40 99q0 64 41.5 106t109.5 42q67 0 108.5 -42t41.5 -102q0 -33 -11 -57t-39 -63l-129 -175h-102zM106 291q0 -28 19 -48t48 -20t48 20t19 48q0 29 -19 48.5t-48 19.5t-48 -19.5t-19 -48.5z" />
    <glyph glyph-name="zero.dnom" horiz-adv-x="390" 
d="M356 163q0 -74 -45 -121.5t-115 -47.5q-72 0 -117 47.5t-45 121.5v106q0 75 45 122.5t117 47.5q70 0 115 -48t45 -122v-106zM117 163q0 -41 21.5 -64.5t57.5 -23.5q34 0 55.5 23.5t21.5 64.5v106q0 41 -21.5 64.5t-55.5 23.5q-36 0 -57.5 -23.5t-21.5 -64.5v-106z" />
    <glyph glyph-name="zero.slashed.dnom" horiz-adv-x="390" 
d="M356 163q0 -74 -45 -121.5t-115 -47.5q-72 0 -117 47.5t-45 121.5v106q0 75 45 122.5t117 47.5q70 0 115 -48t45 -122v-106zM117 269v-63l153 90q-7 29 -26.5 45t-47.5 16q-36 0 -57.5 -23.5t-21.5 -64.5zM273 163v65l-153 -90q6 -30 26.5 -46.5t49.5 -16.5
q34 0 55.5 23.5t21.5 64.5z" />
    <glyph glyph-name="hyphen.case" horiz-adv-x="398" 
d="M65 301v108h269v-108h-269z" />
    <glyph glyph-name="uni00AD.case" horiz-adv-x="398" 
d="M65 301v108h269v-108h-269z" />
    <glyph glyph-name="endash.case" horiz-adv-x="581" 
d="M65 301v108h452v-108h-452z" />
    <glyph glyph-name="emdash.case" horiz-adv-x="757" 
d="M65 301v108h628v-108h-628z" />
    <glyph glyph-name="questiondown.case" horiz-adv-x="512" 
d="M366 635q0 -36 -25.5 -61.5t-61.5 -25.5q-35 0 -60.5 25.5t-25.5 61.5q0 35 25.5 61t60.5 26q36 0 61.5 -26t25.5 -61zM334 464v-19q0 -67 -89 -132q-3 -2 -14.5 -10.5t-14.5 -10.5t-13 -9.5t-12.5 -10.5t-10 -10t-9.5 -11.5t-6.5 -11.5t-6 -13t-3 -14t-1.5 -16
q0 -43 29 -71.5t73 -28.5q49 0 82.5 31t33.5 81h110q0 -91 -65.5 -155.5t-160.5 -64.5q-93 0 -152.5 60t-59.5 144q0 104 97 177q5 4 18 13.5t18 13.5l14.5 12t14 12.5t9.5 11.5t7 13.5t2 13.5v5h110z" />
    <glyph glyph-name="exclamdown.case" horiz-adv-x="287" 
d="M230 635q0 -36 -25.5 -61.5t-61.5 -25.5q-35 0 -60.5 25.5t-25.5 61.5q0 35 25.5 61t60.5 26q36 0 61.5 -26t25.5 -61zM177 464l22 -187v-277h-111v277l21 187h68z" />
    <glyph glyph-name="guilsinglleft.case" horiz-adv-x="340" 
d="M44 355l141 217h95l-116 -217l116 -217h-95z" />
    <glyph glyph-name="guilsinglright.case" horiz-adv-x="340" 
d="M296 355l-141 -217h-95l116 217l-116 217h95z" />
    <glyph glyph-name="guillemotleft.case" horiz-adv-x="527" 
d="M231 355l141 217h95l-116 -217l116 -217h-95zM44 355l141 217h95l-116 -217l116 -217h-95z" />
    <glyph glyph-name="guillemotright.case" horiz-adv-x="527" 
d="M483 355l-141 -217h-95l116 217l-116 217h95zM296 355l-141 -217h-95l116 217l-116 217h95z" />
    <glyph glyph-name="parenleft.case" horiz-adv-x="289" 
d="M263 -126h-89q-128 232 -128 480t128 480h89q-121 -235 -121 -480t121 -480z" />
    <glyph glyph-name="parenright.case" horiz-adv-x="289" 
d="M26 -126q121 235 121 480t-121 480h89q128 -232 128 -480t-128 -480h-89z" />
    <glyph glyph-name="bracketleft.case" horiz-adv-x="324" 
d="M88 -125v960h202v-85h-107v-790h107v-85h-202z" />
    <glyph glyph-name="bracketright.case" horiz-adv-x="323" 
d="M235 -125h-202v85h107v790h-107v85h202v-960z" />
    <glyph glyph-name="braceleft.case" horiz-adv-x="335" 
d="M303 -125h-71q-132 0 -132 143v229q0 33 -12 49t-44 16h-13v85h13q32 0 44 16t12 48v231q0 143 132 143h71v-85h-48q-34 0 -46.5 -15t-12.5 -52v-222q0 -84 -58 -106q58 -24 58 -108v-220q0 -37 12.5 -52t46.5 -15h48v-85z" />
    <glyph glyph-name="braceright.case" horiz-adv-x="335" 
d="M32 -125v85h48q34 0 46.5 15t12.5 52v220q0 84 58 108q-58 22 -58 106v222q0 37 -12.5 52t-46.5 15h-48v85h71q132 0 132 -143v-231q0 -32 12 -48t44 -16h13v-85h-13q-32 0 -44 -16t-12 -49v-229q0 -143 -132 -143h-71z" />
    <glyph glyph-name="bar.case" horiz-adv-x="270" 
d="M87 -55v820h96v-820h-96z" />
    <glyph glyph-name="brokenbar.case" horiz-adv-x="270" 
d="M87 410v355h96v-355h-96zM87 -55v355h96v-355h-96z" />
    <glyph glyph-name="periodcentered.case" horiz-adv-x="287" 
d="M230 356q0 -36 -25.5 -61.5t-61.5 -25.5q-35 0 -60.5 25.5t-25.5 61.5q0 35 25.5 61t60.5 26q36 0 61.5 -26t25.5 -61z" />
    <glyph glyph-name="plus.case" horiz-adv-x="499" 
d="M38 306v97h162v162h98v-162h162v-97h-162v-162h-98v162h-162z" />
    <glyph glyph-name="minus.case" horiz-adv-x="552" 
d="M65 306v97h422v-97h-422z" />
    <glyph glyph-name="multiply.case" horiz-adv-x="509" 
d="M119 152l-69 68l135 135l-135 134l69 68l135 -133l136 133l68 -68l-134 -134l134 -135l-68 -68l-136 133z" />
    <glyph glyph-name="equal.case" horiz-adv-x="551" 
d="M65 413v97h422v-97h-422zM65 200v96h422v-96h-422z" />
    <glyph glyph-name="less.case" horiz-adv-x="470" 
d="M426 608l-253 -253l253 -253h-138l-253 253l253 253h138z" />
    <glyph glyph-name="greater.case" horiz-adv-x="470" 
d="M435 355l-253 -253h-138l253 253l-253 253h138z" />
    <glyph glyph-name="acute.case" 
d="M-102 770l75 157h129l-118 -157h-86z" />
    <glyph glyph-name="breve.case" 
d="M-166 921h68q0 -46 28 -72t70 -26t70 26t28 72h68q0 -75 -48 -120.5t-118 -45.5t-118 45.5t-48 120.5z" />
    <glyph glyph-name="caron.case" 
d="M0 766l-170 80v92l170 -80l170 80v-92z" />
    <glyph glyph-name="cedilla.case" 
d="M-112 -146q30 -17 76 -17q65 0 65 38q0 29 -45 29q-23 0 -43 -10l-34 20l54 89h58l-32 -54q21 7 43 7q36 0 59 -20.5t23 -56.5q0 -44 -39 -71t-93 -27q-57 0 -92 15v58z" />
    <glyph glyph-name="circumflex.case" 
d="M-170 766v92l170 80l170 -80v-92l-170 80z" />
    <glyph glyph-name="dieresis.case" 
d="M-49 845q0 -27 -19 -46.5t-46 -19.5q-28 0 -47.5 19.5t-19.5 46.5q0 28 19.5 47.5t47.5 19.5q27 0 46 -19.5t19 -47.5zM181 845q0 -27 -19 -46.5t-47 -19.5q-27 0 -46.5 19.5t-19.5 46.5q0 28 19.5 47.5t46.5 19.5q28 0 47 -19.5t19 -47.5z" />
    <glyph glyph-name="dotaccent.case" 
d="M66 845q0 -27 -19.5 -46.5t-46.5 -19.5q-28 0 -47.5 19.5t-19.5 46.5q0 28 19.5 47.5t47.5 19.5q27 0 46.5 -19.5t19.5 -47.5z" />
    <glyph glyph-name="dotaccent.L.case" 
d="M66 0q0 -27 -19.5 -46.5t-46.5 -19.5q-28 0 -47.5 19.5t-19.5 46.5q0 28 19.5 47.5t47.5 19.5q27 0 46.5 -19.5t19.5 -47.5z" />
    <glyph glyph-name="dotaccent.low.case" 
d="M66 -137q0 -28 -19.5 -47.5t-46.5 -19.5q-28 0 -47.5 19.5t-19.5 47.5q0 27 19.5 46.5t47.5 19.5q27 0 46.5 -19.5t19.5 -46.5z" />
    <glyph glyph-name="commaaccent.case" 
d="M-67 -287l39 90q-38 18 -38 60q0 27 19 46.5t47 19.5q27 0 46.5 -19.5t19.5 -46.5q0 -21 -13 -41l-68 -109h-52z" />
    <glyph glyph-name="grave.case" 
d="M102 770h-86l-118 157h129z" />
    <glyph glyph-name="hungarumlaut.case" 
d="M-7 770l68 157h120l-116 -157h-72zM-181 770l67 157h121l-116 -157h-72z" />
    <glyph glyph-name="macron.case" 
d="M-166 798v82h332v-82h-332z" />
    <glyph glyph-name="ogonek.case" 
d="M96 -192q-33 -27 -90 -27q-45 0 -74 26.5t-29 67.5q0 65 76 125h117q-89 -50 -89 -101q0 -29 36 -29q30 0 53 19v-81z" />
    <glyph glyph-name="ring.case" 
d="M122 873q0 -49 -36 -84.5t-86 -35.5t-85.5 35.5t-35.5 84.5t35.5 84.5t85.5 35.5t86 -35.5t36 -84.5zM-64 873q0 -27 19 -45.5t45 -18.5q28 0 47 18.5t19 45.5t-19 46t-47 19q-26 0 -45 -19.5t-19 -45.5z" />
    <glyph glyph-name="tilde.case" 
d="M-180 782l3 22q8 47 39.5 75t72.5 28q30 0 73.5 -22.5t56.5 -22.5q33 0 43 45h72l-3 -22q-8 -46 -39.5 -74t-72.5 -28q-31 0 -74.5 22.5t-55.5 22.5q-32 0 -44 -46h-71z" />
    <glyph glyph-name="uni0414.loclBGR" horiz-adv-x="739" 
d="M19 -148v260h69l230 598h102l232 -598h68v-260h-108v148h-485v-148h-108zM208 112h321l-160 423z" />
    <glyph glyph-name="uni041B.loclBGR" horiz-adv-x="730" 
d="M4 0l310 710h102l310 -710h-122l-240 547l-239 -547h-121z" />
    <glyph glyph-name="uni043B.loclBGR" horiz-adv-x="557" 
d="M230 500h97l227 -500h-123l-153 350l-152 -350h-122z" />
    </font>
</defs>
</svg>
